<mxfile host="65bd71144e">
    <diagram name="Page-1" id="k0UFA2LNuBGmvo6Z352x">
        <mxGraphModel dx="1345" dy="631" grid="1" gridSize="10" guides="1" tooltips="1" connect="1" arrows="1" fold="1" page="1" pageScale="1" pageWidth="1169" pageHeight="1654" background="none" math="0" shadow="0">
            <root>
                <mxCell id="0"/>
                <mxCell id="1" parent="0"/>
                <mxCell id="GKFrKR1DqxPzxdLuU1VH-6" style="edgeStyle=orthogonalEdgeStyle;rounded=0;orthogonalLoop=1;jettySize=auto;html=1;exitX=0.5;exitY=0;exitDx=0;exitDy=0;entryX=0.5;entryY=1;entryDx=0;entryDy=0;strokeWidth=2;" parent="1" source="GKFrKR1DqxPzxdLuU1VH-1" target="GKFrKR1DqxPzxdLuU1VH-3" edge="1">
                    <mxGeometry relative="1" as="geometry"/>
                </mxCell>
                <mxCell id="GKFrKR1DqxPzxdLuU1VH-7" style="edgeStyle=orthogonalEdgeStyle;rounded=0;orthogonalLoop=1;jettySize=auto;html=1;exitX=0.5;exitY=0;exitDx=0;exitDy=0;entryX=0.5;entryY=1;entryDx=0;entryDy=0;strokeWidth=2;" parent="1" source="GKFrKR1DqxPzxdLuU1VH-1" target="GKFrKR1DqxPzxdLuU1VH-4" edge="1">
                    <mxGeometry relative="1" as="geometry"/>
                </mxCell>
                <mxCell id="GKFrKR1DqxPzxdLuU1VH-1" value="&lt;b&gt;encoder&lt;/b&gt;" style="shape=trapezoid;perimeter=trapezoidPerimeter;whiteSpace=wrap;html=1;fixedSize=1;direction=south;fillColor=#dae8fc;strokeColor=#6c8ebf;strokeWidth=2;" parent="1" vertex="1">
                    <mxGeometry x="205" y="80" width="90" height="120" as="geometry"/>
                </mxCell>
                <mxCell id="tvCu5DKCvv_bB73sExrc-16" style="edgeStyle=orthogonalEdgeStyle;rounded=0;orthogonalLoop=1;jettySize=auto;html=1;exitX=0.5;exitY=1;exitDx=0;exitDy=0;entryX=0;entryY=0.5;entryDx=0;entryDy=0;strokeWidth=2;" parent="1" source="GKFrKR1DqxPzxdLuU1VH-2" target="tvCu5DKCvv_bB73sExrc-14" edge="1">
                    <mxGeometry relative="1" as="geometry"/>
                </mxCell>
                <mxCell id="GKFrKR1DqxPzxdLuU1VH-2" value="&lt;b&gt;decoder&lt;/b&gt;" style="shape=trapezoid;perimeter=trapezoidPerimeter;whiteSpace=wrap;html=1;fixedSize=1;direction=north;fillColor=#d5e8d4;strokeColor=#82b366;strokeWidth=2;" parent="1" vertex="1">
                    <mxGeometry x="565" y="80" width="90" height="120" as="geometry"/>
                </mxCell>
                <mxCell id="GKFrKR1DqxPzxdLuU1VH-8" style="edgeStyle=orthogonalEdgeStyle;rounded=0;orthogonalLoop=1;jettySize=auto;html=1;exitX=0.5;exitY=0;exitDx=0;exitDy=0;strokeWidth=2;" parent="1" source="GKFrKR1DqxPzxdLuU1VH-3" target="GKFrKR1DqxPzxdLuU1VH-5" edge="1">
                    <mxGeometry relative="1" as="geometry"/>
                </mxCell>
                <mxCell id="GKFrKR1DqxPzxdLuU1VH-3" value="&lt;span style=&quot;font-family: &amp;quot;Google Sans&amp;quot;, Arial, sans-serif; font-size: 14px; text-align: left;&quot;&gt;μ&lt;/span&gt;" style="rounded=0;whiteSpace=wrap;html=1;direction=south;strokeColor=#000000;strokeWidth=2;" parent="1" vertex="1">
                    <mxGeometry x="365" y="80" width="40" height="40" as="geometry"/>
                </mxCell>
                <mxCell id="GKFrKR1DqxPzxdLuU1VH-10" style="edgeStyle=orthogonalEdgeStyle;rounded=0;orthogonalLoop=1;jettySize=auto;html=1;exitX=0.5;exitY=0;exitDx=0;exitDy=0;entryX=0.5;entryY=1;entryDx=0;entryDy=0;strokeWidth=2;" parent="1" source="GKFrKR1DqxPzxdLuU1VH-4" target="GKFrKR1DqxPzxdLuU1VH-5" edge="1">
                    <mxGeometry relative="1" as="geometry"/>
                </mxCell>
                <mxCell id="GKFrKR1DqxPzxdLuU1VH-4" value="σ" style="rounded=0;whiteSpace=wrap;html=1;direction=south;strokeWidth=2;" parent="1" vertex="1">
                    <mxGeometry x="365" y="160" width="40" height="40" as="geometry"/>
                </mxCell>
                <mxCell id="GKFrKR1DqxPzxdLuU1VH-11" style="edgeStyle=orthogonalEdgeStyle;rounded=0;orthogonalLoop=1;jettySize=auto;html=1;exitX=0.5;exitY=0;exitDx=0;exitDy=0;strokeWidth=2;" parent="1" source="GKFrKR1DqxPzxdLuU1VH-5" target="GKFrKR1DqxPzxdLuU1VH-2" edge="1">
                    <mxGeometry relative="1" as="geometry"/>
                </mxCell>
                <mxCell id="tvCu5DKCvv_bB73sExrc-19" style="edgeStyle=orthogonalEdgeStyle;rounded=0;orthogonalLoop=1;jettySize=auto;html=1;exitX=1;exitY=0.5;exitDx=0;exitDy=0;entryX=0;entryY=0.5;entryDx=0;entryDy=0;fontStyle=1;strokeWidth=2;" parent="1" source="GKFrKR1DqxPzxdLuU1VH-5" target="GKFrKR1DqxPzxdLuU1VH-12" edge="1">
                    <mxGeometry relative="1" as="geometry"/>
                </mxCell>
                <mxCell id="GKFrKR1DqxPzxdLuU1VH-5" value="&lt;b&gt;latent space&amp;nbsp; of&lt;/b&gt;&lt;div&gt;&lt;b&gt;128 features&lt;/b&gt;&lt;/div&gt;" style="rounded=0;whiteSpace=wrap;html=1;direction=south;glass=0;shadow=0;treeFolding=0;fillColor=#f8cecc;strokeColor=#b85450;strokeWidth=2;" parent="1" vertex="1">
                    <mxGeometry x="445" y="80" width="50" height="120" as="geometry"/>
                </mxCell>
                <mxCell id="tvCu5DKCvv_bB73sExrc-11" style="edgeStyle=orthogonalEdgeStyle;rounded=0;orthogonalLoop=1;jettySize=auto;html=1;exitX=1;exitY=0.5;exitDx=0;exitDy=0;strokeWidth=2;" parent="1" source="GKFrKR1DqxPzxdLuU1VH-12" target="suplfYX3frFjkZ8Oar6K-3" edge="1">
                    <mxGeometry relative="1" as="geometry"/>
                </mxCell>
                <mxCell id="GKFrKR1DqxPzxdLuU1VH-12" value="&lt;b&gt;classifier&lt;/b&gt;" style="rounded=1;whiteSpace=wrap;html=1;strokeWidth=2;fillColor=#ffe6cc;strokeColor=#d79b00;" parent="1" vertex="1">
                    <mxGeometry x="570" y="220" width="65" height="50" as="geometry"/>
                </mxCell>
                <mxCell id="GKFrKR1DqxPzxdLuU1VH-46" style="edgeStyle=orthogonalEdgeStyle;rounded=0;orthogonalLoop=1;jettySize=auto;html=1;exitX=0.5;exitY=0;exitDx=0;exitDy=0;entryX=0.5;entryY=1;entryDx=0;entryDy=0;strokeWidth=2;" parent="1" source="GKFrKR1DqxPzxdLuU1VH-48" target="GKFrKR1DqxPzxdLuU1VH-50" edge="1">
                    <mxGeometry relative="1" as="geometry"/>
                </mxCell>
                <mxCell id="GKFrKR1DqxPzxdLuU1VH-47" style="edgeStyle=orthogonalEdgeStyle;rounded=0;orthogonalLoop=1;jettySize=auto;html=1;exitX=0.5;exitY=0;exitDx=0;exitDy=0;entryX=0.5;entryY=1;entryDx=0;entryDy=0;strokeWidth=2;" parent="1" source="GKFrKR1DqxPzxdLuU1VH-48" target="GKFrKR1DqxPzxdLuU1VH-52" edge="1">
                    <mxGeometry relative="1" as="geometry"/>
                </mxCell>
                <mxCell id="GKFrKR1DqxPzxdLuU1VH-48" value="&lt;b&gt;encoder&lt;/b&gt;" style="shape=trapezoid;perimeter=trapezoidPerimeter;whiteSpace=wrap;html=1;fixedSize=1;direction=south;fillColor=#dae8fc;strokeColor=#6c8ebf;strokeWidth=2;" parent="1" vertex="1">
                    <mxGeometry x="210" y="360" width="90" height="120" as="geometry"/>
                </mxCell>
                <mxCell id="GKFrKR1DqxPzxdLuU1VH-49" style="edgeStyle=orthogonalEdgeStyle;rounded=0;orthogonalLoop=1;jettySize=auto;html=1;exitX=0.5;exitY=0;exitDx=0;exitDy=0;strokeWidth=2;" parent="1" source="GKFrKR1DqxPzxdLuU1VH-50" target="GKFrKR1DqxPzxdLuU1VH-54" edge="1">
                    <mxGeometry relative="1" as="geometry"/>
                </mxCell>
                <mxCell id="GKFrKR1DqxPzxdLuU1VH-50" value="&lt;span style=&quot;font-family: &amp;quot;Google Sans&amp;quot;, Arial, sans-serif; font-size: 14px; text-align: left;&quot;&gt;μ&lt;/span&gt;" style="rounded=0;whiteSpace=wrap;html=1;direction=south;strokeColor=#000000;strokeWidth=2;" parent="1" vertex="1">
                    <mxGeometry x="370" y="360" width="40" height="40" as="geometry"/>
                </mxCell>
                <mxCell id="GKFrKR1DqxPzxdLuU1VH-51" style="edgeStyle=orthogonalEdgeStyle;rounded=0;orthogonalLoop=1;jettySize=auto;html=1;exitX=0.5;exitY=0;exitDx=0;exitDy=0;entryX=0.5;entryY=1;entryDx=0;entryDy=0;strokeWidth=2;" parent="1" source="GKFrKR1DqxPzxdLuU1VH-52" target="GKFrKR1DqxPzxdLuU1VH-54" edge="1">
                    <mxGeometry relative="1" as="geometry"/>
                </mxCell>
                <mxCell id="GKFrKR1DqxPzxdLuU1VH-52" value="σ" style="rounded=0;whiteSpace=wrap;html=1;direction=south;strokeWidth=2;" parent="1" vertex="1">
                    <mxGeometry x="370" y="440" width="40" height="40" as="geometry"/>
                </mxCell>
                <mxCell id="ziZ8K_oR1JvcJGJ8FtnZ-42" style="edgeStyle=orthogonalEdgeStyle;rounded=0;orthogonalLoop=1;jettySize=auto;html=1;exitX=0.5;exitY=0;exitDx=0;exitDy=0;entryX=0.5;entryY=0;entryDx=0;entryDy=0;strokeWidth=2;" parent="1" source="GKFrKR1DqxPzxdLuU1VH-54" target="ziZ8K_oR1JvcJGJ8FtnZ-41" edge="1">
                    <mxGeometry relative="1" as="geometry"/>
                </mxCell>
                <mxCell id="GKFrKR1DqxPzxdLuU1VH-54" value="&lt;b&gt;latent space&lt;/b&gt;" style="rounded=0;whiteSpace=wrap;html=1;direction=south;fillColor=#f8cecc;strokeColor=#b85450;strokeWidth=2;" parent="1" vertex="1">
                    <mxGeometry x="450" y="360" width="40" height="120" as="geometry"/>
                </mxCell>
                <mxCell id="suplfYX3frFjkZ8Oar6K-3" value="&lt;b&gt;STOP&lt;/b&gt;" style="text;html=1;align=center;verticalAlign=middle;resizable=0;points=[];autosize=1;strokeColor=#B20000;fillColor=#e51400;strokeWidth=2;fontColor=#ffffff;" parent="1" vertex="1">
                    <mxGeometry x="675" y="230" width="60" height="30" as="geometry"/>
                </mxCell>
                <mxCell id="xkD0RlQDMPOBizxxRY-R-1" value="&lt;b&gt;reconstructed image before masking&lt;/b&gt;" style="text;html=1;align=center;verticalAlign=middle;resizable=0;points=[];autosize=1;strokeColor=none;fillColor=none;strokeWidth=2;" parent="1" vertex="1">
                    <mxGeometry x="650" y="190" width="230" height="30" as="geometry"/>
                </mxCell>
                <mxCell id="ziZ8K_oR1JvcJGJ8FtnZ-26" style="edgeStyle=orthogonalEdgeStyle;rounded=0;orthogonalLoop=1;jettySize=auto;html=1;exitX=0.5;exitY=0;exitDx=0;exitDy=0;entryX=0.5;entryY=1;entryDx=0;entryDy=0;strokeWidth=2;" parent="1" source="ziZ8K_oR1JvcJGJ8FtnZ-28" target="ziZ8K_oR1JvcJGJ8FtnZ-30" edge="1">
                    <mxGeometry relative="1" as="geometry"/>
                </mxCell>
                <mxCell id="ziZ8K_oR1JvcJGJ8FtnZ-27" style="edgeStyle=orthogonalEdgeStyle;rounded=0;orthogonalLoop=1;jettySize=auto;html=1;exitX=0.5;exitY=0;exitDx=0;exitDy=0;entryX=0.5;entryY=1;entryDx=0;entryDy=0;strokeWidth=2;" parent="1" source="ziZ8K_oR1JvcJGJ8FtnZ-28" target="ziZ8K_oR1JvcJGJ8FtnZ-32" edge="1">
                    <mxGeometry relative="1" as="geometry"/>
                </mxCell>
                <mxCell id="ziZ8K_oR1JvcJGJ8FtnZ-28" value="&lt;b&gt;encoder&lt;/b&gt;" style="shape=trapezoid;perimeter=trapezoidPerimeter;whiteSpace=wrap;html=1;fixedSize=1;direction=south;fillColor=#dae8fc;strokeColor=#6c8ebf;strokeWidth=2;" parent="1" vertex="1">
                    <mxGeometry x="210" y="560" width="90" height="120" as="geometry"/>
                </mxCell>
                <mxCell id="ziZ8K_oR1JvcJGJ8FtnZ-29" style="edgeStyle=orthogonalEdgeStyle;rounded=0;orthogonalLoop=1;jettySize=auto;html=1;exitX=0.5;exitY=0;exitDx=0;exitDy=0;strokeWidth=2;" parent="1" source="ziZ8K_oR1JvcJGJ8FtnZ-30" target="ziZ8K_oR1JvcJGJ8FtnZ-34" edge="1">
                    <mxGeometry relative="1" as="geometry"/>
                </mxCell>
                <mxCell id="ziZ8K_oR1JvcJGJ8FtnZ-30" value="&lt;span style=&quot;font-family: &amp;quot;Google Sans&amp;quot;, Arial, sans-serif; font-size: 14px; text-align: left;&quot;&gt;&lt;b&gt;μ&lt;/b&gt;&lt;/span&gt;" style="rounded=0;whiteSpace=wrap;html=1;direction=south;strokeColor=#000000;strokeWidth=2;" parent="1" vertex="1">
                    <mxGeometry x="370" y="560" width="40" height="40" as="geometry"/>
                </mxCell>
                <mxCell id="ziZ8K_oR1JvcJGJ8FtnZ-31" style="edgeStyle=orthogonalEdgeStyle;rounded=0;orthogonalLoop=1;jettySize=auto;html=1;exitX=0.5;exitY=0;exitDx=0;exitDy=0;entryX=0.5;entryY=1;entryDx=0;entryDy=0;strokeWidth=2;" parent="1" source="ziZ8K_oR1JvcJGJ8FtnZ-32" target="ziZ8K_oR1JvcJGJ8FtnZ-34" edge="1">
                    <mxGeometry relative="1" as="geometry"/>
                </mxCell>
                <mxCell id="ziZ8K_oR1JvcJGJ8FtnZ-32" value="&lt;b&gt;σ&lt;/b&gt;" style="rounded=0;whiteSpace=wrap;html=1;direction=south;strokeWidth=2;" parent="1" vertex="1">
                    <mxGeometry x="370" y="640" width="40" height="40" as="geometry"/>
                </mxCell>
                <mxCell id="ziZ8K_oR1JvcJGJ8FtnZ-33" style="edgeStyle=orthogonalEdgeStyle;rounded=0;orthogonalLoop=1;jettySize=auto;html=1;exitX=0.5;exitY=0;exitDx=0;exitDy=0;strokeWidth=2;" parent="1" source="ziZ8K_oR1JvcJGJ8FtnZ-34" target="ziZ8K_oR1JvcJGJ8FtnZ-35" edge="1">
                    <mxGeometry relative="1" as="geometry"/>
                </mxCell>
                <mxCell id="ziZ8K_oR1JvcJGJ8FtnZ-34" value="&lt;b&gt;latent space&lt;/b&gt;" style="rounded=0;whiteSpace=wrap;html=1;direction=south;fillColor=#f8cecc;strokeColor=#b85450;strokeWidth=2;" parent="1" vertex="1">
                    <mxGeometry x="450" y="560" width="40" height="120" as="geometry"/>
                </mxCell>
                <mxCell id="tvCu5DKCvv_bB73sExrc-12" style="edgeStyle=orthogonalEdgeStyle;rounded=0;orthogonalLoop=1;jettySize=auto;html=1;exitX=1;exitY=0.5;exitDx=0;exitDy=0;strokeWidth=2;" parent="1" source="ziZ8K_oR1JvcJGJ8FtnZ-35" target="ziZ8K_oR1JvcJGJ8FtnZ-37" edge="1">
                    <mxGeometry relative="1" as="geometry"/>
                </mxCell>
                <mxCell id="ziZ8K_oR1JvcJGJ8FtnZ-35" value="&lt;b&gt;classifier&lt;/b&gt;" style="rounded=1;whiteSpace=wrap;html=1;strokeWidth=2;fillColor=#ffe6cc;strokeColor=#d79b00;" parent="1" vertex="1">
                    <mxGeometry x="560" y="595" width="60" height="50" as="geometry"/>
                </mxCell>
                <mxCell id="ziZ8K_oR1JvcJGJ8FtnZ-37" value="&lt;b&gt;&lt;font color=&quot;#080808&quot;&gt;GO&lt;/font&gt;&lt;/b&gt;" style="text;html=1;align=center;verticalAlign=middle;resizable=0;points=[];autosize=1;strokeColor=#005700;fillColor=#008a00;fontColor=#ffffff;strokeWidth=2;" parent="1" vertex="1">
                    <mxGeometry x="660" y="605" width="40" height="30" as="geometry"/>
                </mxCell>
                <mxCell id="6" style="edgeStyle=none;html=1;exitX=0.5;exitY=1;exitDx=0;exitDy=0;entryX=0;entryY=0.5;entryDx=0;entryDy=0;dashed=1;strokeWidth=2;" parent="1" source="ziZ8K_oR1JvcJGJ8FtnZ-41" edge="1" target="8">
                    <mxGeometry relative="1" as="geometry">
                        <mxPoint x="702.6799999999998" y="418.645" as="targetPoint"/>
                    </mxGeometry>
                </mxCell>
                <mxCell id="ziZ8K_oR1JvcJGJ8FtnZ-41" value="decoder" style="shape=trapezoid;perimeter=trapezoidPerimeter;whiteSpace=wrap;html=1;fixedSize=1;direction=north;fillColor=#d5e8d4;strokeColor=#82b366;strokeWidth=2;" parent="1" vertex="1">
                    <mxGeometry x="581.22" y="360" width="90" height="120" as="geometry"/>
                </mxCell>
                <mxCell id="Fl4KhSsgxRQFQHlkGlRb-4" value="&lt;b&gt;if(actual_prediction != CE_Prediction)&lt;/b&gt;&lt;div&gt;&lt;b&gt;CE Found&lt;/b&gt;&lt;/div&gt;" style="text;html=1;align=center;verticalAlign=middle;resizable=0;points=[];autosize=1;strokeColor=none;fillColor=none;strokeWidth=2;rotation=270;" parent="1" vertex="1">
                    <mxGeometry x="790" y="400" width="240" height="40" as="geometry"/>
                </mxCell>
                <mxCell id="Lp6lEvJiYIESFEjmCuKW-5" value="&lt;b&gt;actual prediction&lt;/b&gt;" style="text;html=1;align=center;verticalAlign=middle;resizable=0;points=[];autosize=1;strokeColor=none;fillColor=none;strokeWidth=2;" parent="1" vertex="1">
                    <mxGeometry x="645" y="260" width="120" height="30" as="geometry"/>
                </mxCell>
                <mxCell id="Lp6lEvJiYIESFEjmCuKW-11" style="edgeStyle=orthogonalEdgeStyle;rounded=0;orthogonalLoop=1;jettySize=auto;html=1;entryX=0.5;entryY=1;entryDx=0;entryDy=0;strokeWidth=2;" parent="1" target="GKFrKR1DqxPzxdLuU1VH-48" edge="1">
                    <mxGeometry relative="1" as="geometry">
                        <mxPoint x="180" y="420" as="sourcePoint"/>
                    </mxGeometry>
                </mxCell>
                <mxCell id="tvCu5DKCvv_bB73sExrc-8" style="edgeStyle=orthogonalEdgeStyle;rounded=0;orthogonalLoop=1;jettySize=auto;html=1;exitX=0.5;exitY=1;exitDx=0;exitDy=0;entryX=0.5;entryY=1;entryDx=0;entryDy=0;dashed=1;strokeWidth=2;" parent="1" target="ziZ8K_oR1JvcJGJ8FtnZ-28" edge="1">
                    <mxGeometry relative="1" as="geometry">
                        <Array as="points">
                            <mxPoint x="780" y="520"/>
                            <mxPoint x="140" y="520"/>
                            <mxPoint x="140" y="620"/>
                        </Array>
                        <mxPoint x="780" y="460.0000000000001" as="sourcePoint"/>
                    </mxGeometry>
                </mxCell>
                <mxCell id="tvCu5DKCvv_bB73sExrc-15" style="edgeStyle=orthogonalEdgeStyle;rounded=0;orthogonalLoop=1;jettySize=auto;html=1;entryX=0.5;entryY=1;entryDx=0;entryDy=0;strokeWidth=2;" parent="1" source="tvCu5DKCvv_bB73sExrc-13" target="GKFrKR1DqxPzxdLuU1VH-1" edge="1">
                    <mxGeometry relative="1" as="geometry"/>
                </mxCell>
                <mxCell id="tvCu5DKCvv_bB73sExrc-44" style="edgeStyle=orthogonalEdgeStyle;rounded=0;orthogonalLoop=1;jettySize=auto;html=1;entryX=0.5;entryY=0;entryDx=0;entryDy=0;" parent="1" source="tvCu5DKCvv_bB73sExrc-13" target="tvCu5DKCvv_bB73sExrc-41" edge="1">
                    <mxGeometry relative="1" as="geometry">
                        <mxPoint x="90" y="250" as="targetPoint"/>
                    </mxGeometry>
                </mxCell>
                <mxCell id="tvCu5DKCvv_bB73sExrc-13" value="" style="shape=image;verticalLabelPosition=bottom;labelBackgroundColor=default;verticalAlign=top;aspect=fixed;imageAspect=0;image=data:image/png,iVBORw0KGgoAAAANSUhEUgAAAKAAAABQCAIAAAARP+ljAABIkUlEQVR4nF29V69ty3Ie9lVVjzFmWmHHE2/kvZfkZZIokSIg0/aTXgwY8INfDBjwLxBg+Df4Dxj2k6MAGw4PhgxbgA0JhmXREiVQInlJihRvPnmfHVaYYYTuqvJDdc+1jxYO9llrxjG60ldfVVfTv/fv/wdMBHcQGGTuIALAzDADMwEOACBmmDEz3v6p7yW4MxEAczDBHELsbkTxevP2Cee3MrPB8PAAmNnMmAHEtwMGMBhsMAYDMEBViaBuWqyox4cYAEMxA2AGM1VA4kbqhxMzx0cCZoZ2OYz4aICZUyIGmOLVxAAIwgwDJ6L6FDGxCBGTEOIeiSm+SAgAEYGYhSCJhSgWlQhERAQCERPMSQju8TQIFO+sQkD9IDg8Hq7CyXn5h//gH0ynqdusfvd3/+Z2d1FFASYYnB1GBHdP9aqIADc8SDf+B8QNPkggxMH08Fi7v/pIfCATwCCctaHd/Vv60WQXvzzI+Cu/xSUYVSE0bXAHg42RYOZiDJgCSMwwGKMUr99iBmYGtd8BsNn5SqoaGSO+zeJq3Bhs5mBiZ1UTETOIcDxvMIEAbiB2Y5EQLYGIwMzMRETElDhWi0J4Iae6clJl3dbvQZZtaauMvYqf4RaPswgSoHDEk82QHEDYlYEoncXHIZO6BOZVtHV17OGqEIt1lsNZUqhGgbd+CObM8XZiOM5+wYBQOICr1VfZMQOgWFzA28XT2TmcFyAxlxCXA2DjJixDSlKtGfX647KLgWHhPMxgADf94rd/bUtsD/84MUGt60TChJmYQWDhsFBnIhEhAhM7POwbQJNZdYXERFYt1cmp2ogDXqX8IN22vPGv18fPKyCCkku7YKK3rvy8RGe7YAI8rrrdHRMDZO4MCndlbvUjuJme1dcTC9AUA84gYzCTmYdHgAGgpj/EoLqgTGeLsq8oHIjE3eK2vYWLlCQ0sBjOPj++qP714HwRqsNMb/kJfvDM50cNSGCEYw4fRizMDxZQnwJATCIkLMQIIwznT8xEHq8iEsBAjCbbMFaPFWAAHrJu33D209WS2w8DRMQEcnIiAdxBBogkVeR5akpQ3+OAOwC4e2ofgZDrWfxMBJf2DdSECra2JnZ2x/XJeg/t1yb3cLVW14jY2EACByKsEuChSaEeVpewXQlVrTAidjdhgBjS5AcY2EzP0gu75ebrW1S36ocjmIcCWBUsV0cFZjBBWvSNQBy3GhckTEIsQkJMD5EbDCIGAQQyMwITN/zh4Xa/Ylv04JGbeOvj9evCTD1s+l8LzA4Cpv2dpBUELOxgAoHg7nB4yJuYYemswe2bwlJjlZuKy4NSERPDQ2mr4oRnBuhsIg/ArCrA2YYBMEm9xuZzQExMbg4CQb6ivUxng2MmGBusrjigUGZx0wKCuVnzuhGIuYaNxLAWY+1BCZr2xjsYnChR6pKcZVnBF3Gs/Pl/agAbmRgjEbtB4W5QVyYQmKAiROQswqTCcpYscxUuUdXdBxSEtuoBXZtEmk7A0DwxIMOKkYZeNrurcPYhH4PXeOzmxLwYFgukcRZJ3DAzS/OcDUexeFzSAzIFJBwhNXhFDOJwXKhfyQ+x5ay1REwkFDElnjh/MjPxw7fUaFchD4QD48MAiLAkScIIR5n+NZjP1TLjB8zpLRBXHwQzmJu51kBC4XMsEgDAH1YpboHVHUAxy2ZT1imXUnwpXswcUIe7B2bzGjvD0X5FnAAc1mJqLEWT//lNEeOJmAK5ERG+8eFTQSmqf/D7/0RN1VTVVItHDCVywM2SgQFazBMI7MlhFIsQOJqI2c2AGoIpDMkbLGaCRYLkALE0gzarSLxpDYH9wa3HTyxlcxgs3Dw5iOEWGMXdDAEeodoQVrVpMCz8NQPFDUAxPpvpV4TdcDISt08AGMzy1qvIAHNjY2Zqt1KzQzFzOcu4utEHlxr3S0giEqJgJjqrWJXPQ0iHIQR2VuSvwCuCOzHBH7xrS0i9qP/ox59sNru+6y+vrvbH4+Xu0gEzZarhF2CvTjJiUsOZsTRfwcKxvlXiod8PKDPVlKrqf4PTb61ZWHX88pVPZa4wiLl6itCHh3/da6yt/oEI3Oz7ratjnNOeB1T0dlp1lkp7hmoChrOucNhru5WaJ9boEMlMAyPN0t3d2+Wdv+BtnTICzmkuIWLqg7OkcMWOwNnV0OOfiLj+FVs/51iqpqVAYdC44PaCAHdVjRxIRiEOCiEHXnAEKOGUwjBrKmcPWB/x8IMpPVxFDbL+9orWJO5tNWrhN36nt97ebtPhRBLRRQguMLWHVLUlEizoQExOTGHokSC1/NqB6mnw1Z+3cEETjDkY5g+aQdXanUFucIEBZBChFs/4LEthFqHExByZFAjVr7JEOhRWXtW9Co3IvfJADbqQkz8gTQLg2Vid3N3hH330WZdWEJjpMKT1elODOiUP+3Rzd3ckQGquCJR6nWEQSGRaAlLC3UXiZgXVNs5wtzqFpqFVnE2HqimgWUfkDm4POVvju8jNgXNO7HGDZIAQzAmQLhKk0Cqy9jKBsDgpZWgCW5Wx15ehYf4mNnsr1Y3YDJg5s5CaVfDxYGqVAiOAGEzkMHVmhztA5u5ElIQrv8ES0qu0lYDaOrTI1nBWGK/7OVcKSHI2XPO6hu4gGFmBu7s/evIIKKolyUCpN3eYg+Bu5nCHuceHp0YPnNPEluEYCjNgrEgRiujBF1XIfI4ZXK2b2oI2avEty67Y0InhD+Ax3l7vP8zCHCyABzsBCJs7MwXVASaxFghZK5cgcDeCuHkOkItA/zVfMj4b9NlzmxnS2fcExDCA2YpyYlDAKgZ7DedEHpdHdcVQXTQRQwhS+QY0KBSypoo4yeir8CqUB+Twc4ZZ/b4bmYW+h0w9dD+CZb8aQlfLoqWYuRsMDjc3q0oXipISS1BMjdZARYk1lgkAYzZYyUiJxcCA1oSSIroSvHJZ1dk56sJzcHmABVggEm5syVsMsz0sexi5G4eFO6gZIRpCIyF3BxG7oGazboC6G8gqk5AMlhpVxwDE6wsplqkKlymCGOPhOhggdXiLXxU6cvWg4VMaUUONciIDJZYQlToYDiWQE8Bi5ExcnVxotFfnDHdvPjU029zNDQ52r0Rd+AmOfElNC3IqBsx5UXUSd4dbfWVTHyRufpchZl7RhxGk3hNXecf9U3CdbICDrMEkJSF2DivmANtnGpABs2rutYTRcCsbV9q6Za8UfJq1D4kfO4PwBvUiyoY5aKU9c8nqXgxMYu5MzCyoeRxpJas7K2b1BRTwQThYAlhoFh4YsfDrHAxIrBkxg1TdmYjIIuF0c+Pkbu4EJRLzwsTmxsRMJIk59DHIamFUscGt4n+vDjk8f9y5+gNGAwCFk5MzK4oUyJBgMBBptQA3gPzMOKUAGtaAUkjDas74tjchNEo5EHxEEFVnqoyNGgtD3YSYLSiRmuCLVLWySIuo4irnlhIEyymVoqaQerP9xrI9OHw+lz0Aj/QJ3iVhq7lpgjxQcwT3uEEy88pcAYClevU1qgAR9xp1Sk2e9JX6isG51eBMKy1Y2BYzKcYCIiMnkAoRoMQk5swM9koS6JnHgLcKnnssCjVzRUU28QeROYjI3FVdkBgJCjOjtxIUqojfiUhYEhhcoyJYiN0h8oD5m101XPUAdqsvq+UJzm5CYYISCyZfhVpxvVK1k5z8rRSgPoYzDfIV1vycg7i5nxMCbjovYWYsbpbVqZCYW6Obg9JSMziZORqNxUxMXcNd7P52mAj3bQzixNIyVTr7dABEgWwqdmsuyQEzYnaApHqtmnuoGxl7AAK3BxzSkJQ5pNFB1IpMda3JQULQuApJIikBRQGYEZyiMkVEUU+Ii3VKScQMSQCQGWoEca5EebMSAPBK1plrRU9CcOda0WSN90RKQaTmwdzWaF7jqEjYAKQGYDcELw+CQ9qyBCNDFd5V/eavQpSooxEgkhyuYBEwYA6FB/3cQdTdjBVqVYEeTLEleGRgMWKJMBl30jEHgxHfy474CGcCGi7wtkDUWEgRACwkaISQm5kQe0VMOMu2lZfiM4S5GUMoRoBPI4oQQURdfY8ZUKygSwmwrkvMDHpAru0+PTWkFy+I9EOa9n/VRdd7IUGqy/PwFHlU08wrU+xQUM7OrEIQIa65bjjpBzqChN1AzG5niw5FqyxDTbPM3mZrHRa5dl0MdyISiRwunYubbgBM3SeoFwFbS17jcxpFzGCjYLiYACfjB3rVDcowMraaL1uVOyoa8cqCUK13MVXmrUYQYgHQksFaGK5vg0v7pogDjcglhzOTkAQNzJWoBIFsmbqUFFAUAMLEzG9RD36+lsRSUfBZyAywkIFqf8U5g+Xm9t56oOZLAMRaXDybvoUyK0xLIMBIOiCh6SQBgJmrfjRpNTgjUXQSh1cNYNQ8gIEIc/xW7GhhINCeuVMCkFCMSIWJTLyue9zwA/iouXVcJZHU8B8R+awFxEQEl4f4XjmLVvqNW6gur9YYgo0kApyYCU4gIWIRuEUF+VyAQDXxcwAGM0nUFLky9wy4F0QmiwTLIX6vqXbVj/jC1JBUY5MrKmEBAR7hWKr5SuQJRFJxOHMj2OrNsYQNBPXBAJ3hsYMylI0VcV3hjACQW3XZzN7Y2jPHe1YZ1/CEVeoMrmHenFs2Xx1A/OEWYdIXtUjjUoQHh73Ve9RAojBVyi54CqGa7QBwC8o0bkfgwQrUAm4sAxElEbREFkQVK0ZcFBJOhIrXmInhzN1ZqQHySt7R+cLCaoMpFalf9/CaAiTkojs6jHyNtzp/WqLk6RzJueI3buLGWXVjSWORaipFLTNtrwr1boSf1dgK50RmUHY4yKXqUIB5IoG3mkRtUwgFDIhaiSz3itqIa+sGtXaIFjWI5EzyAcTuIEoCd1ezvpNIfa0po8jD66NqJcIASa2r4lwo4YZyAFisUK21ROg4A0kBzMLpVqa8ioSqgxVpAiPyWhWqK0/u1DpvIsVHa/6pnIm0dBtwIXKzrl9pOQAw2Ek7SHQTVMBW18aRNmlafJ3I4QpC0Z6EzoQjHNLlzdWROI+316dDTpIoDcES/es4/4weJBEMEn+6EDoi83P+bVaLUmCY0AM4YCYzrSDgIQiHMpE9gKymJ6GMUpXprHIBT1B1iMCeWDRyTcDci6KYMsDMQkRC0goQVWm5UcThc5tVqbu3EFORUmUSKNAkESKDIqqulQPfNpeApjrhqIUbunGKe1APugJEEGERitqUV9hEDizTDC2hVgnc+TT7tnkBojOV5p6EbjdyLKUHHQlUcgY+YOmpFrpyt72Hj+6cNp8N40LYOt4nevCeD31Y1DjIqsrkgHqzzIdsPegHcnfVEwmgkvpNzZRCc5jcTIMECalHYH1gHB/6JYDg4qzRrcTR4xHWwcTmSJSCwoC7YyFNnsJAk3AEQZF4gamfv4UI7AHWwk+aQ2qHV61/1bB9JoSiMAgCWGKduKp/tK62jp1O+N/5t37r8eUFzROZBhe5qH3++ub3/uVPWhQFMbm7onXhwN2QDdwPoiVWc8Y6snWC13hfs1EkK0viQjZGRrlZp8Nx318/AtBvXzM7S57n7Bn5tIiwcDYcII96vgfLotvqwby1jIDwUGAlc2Mi4kW1p6CzLXSx5Pk4vfkToDPDxbPvdcNVrUIQoRadPLIRh1iI3Mjd2YhZzkg5MHxFrYHwounw/CNGOJMuAKFLKcrMHOoW8qjJNfvZpojdUdRKe2NwcIlru2Rrv6pcBDUUFuEcLeK2cFANNyD33/r+15+VU/+XH/H+vuJWos16vX3nPfne1/7JTz7TllN5u8/6MeQghypKQUoGNem78BZcPU+r6yLJNtlk8ELEogBD/I17kcTMc3Ev46J54Yk9m5lBIPKS0wJHNygMmi8iotZvZwOTlnCZJOxpfc90U5b3rKzgcGK4Hl9/vH/zJWMBFgCnmx/tnv0KySbkw3CFR8ubE7zh9srsmLeW7XNeVe9fPVr9Wt7SUMTZezysUs3Izz00ODPETAxyjjKQA4TU0GuzqwbQAoQy4ExE5kbtFcC5+w4P1QcAwJD4d7/1/js905/+Wf77f87/+xft6wUfbvw//vUPfvG7v/2Nd//Zx1+qubdoXJkLInfvU+o7zAkAzCwJrzqhxmzXHs24cloxrZhLEiGM8EU3ux5dRu+wbh7vptnYynpJ0KijGGnBckdDV8BpuIH3pj1TMe9AxvKKS5H+XbPOfKH0wumeCKvVC9XrMl+7MQDZPi+vPi+zsiAx7LTvTj9bXf4SSwIqXVeZaTgJEZFUVtG98T0NS5AQhQmhsnxnorJy+SAKvk5a3cxCJiHulohGhnKuBwAw9wBNROgkVWhE/BbuiMaNAAXszTeec9aad1XjRhL+na+/96wj+ulP9e/+Cf7vV4aZoLUY8slU/s4P8B/qh7/4Pf3asz/+/A2C82lwJ26yS6FlKZfSQbvESZhqTfUBGsEpwc1hRKwGXjM7U4G68sILHbUUTGYzjgY1W63YzQqzlCId6zxD1729XLRLoku+OB1usr5K1G+fPIfMRC9fvfny8jJJn5RnojdCK5ONO0s+rRjTsGZeUMAs8EWkdtkBMFeuhTZP3IFMAnewBI71KJA5ReYQHEswHl7RkAeCpdry69KsTx1ei5FwcwI5m9sZHjszExkTa3OvAi6GFE1EXhswWroZ6hFeppHUVa51W0MluZh/61d/6Vkn/Sc/xc3ef/2J/NvfZCL7sy8A4288sjdH/+geL+/Tk5cffu0bZRh++MkLc6plJqK3iu71x1UD2Zl7XQqv6ufkyc0CtQXq5wuBcjkVJeznSZcMCIQHWCfMzOamuWQgpdSjB3AaD6nr5qx3rz4ejydmSLfqhx/pmvveHl32AYhIeBlnmz5xf/7m5avXX/xYVVcdktSuKJ+NPSdZtStPgOt0yMsXq+vvCFUStdoawZ0VcJjVMlmA3trVEXCPK9KJhMdr238rq6m6I8rjxlZhubqLsNdkA63XRCpwcK94MYpRHsAqAk/EBRCxVFLEmUPHPFD20K+fPrpM9zf+6Jp3W7+/x7vvEEg+/NRy4efP6faOv/Ypv/9M3n1ntdl++Pidn372KpueWSp/i62wUiQlEzGvxQt66HCGuzOQSikE1mXpNj2YFFDkkx2IeBqziADcCWbCStKkxSbT6RRA+II3czZb7LQcp8M4j3P0TgjjtD/pZHnXM8pmt8tknYLZ3oz7u8++PB2PpgoraUgMBN2U82k6/nQj3+uHTZVE0btXPyYcV6tnafOYJcrDrZhmYHgxIndnMde2MYC5WQwTm2urc2voBpPX+E0e4VldK7eBmhxW1/EQ0iLk8pnUAVU5Uw3YsdWhLnFkWRIhuDlwIiJ4EkY/lPuD3+7dHIex8+KXj10LLZkfPyrmELBCwElVhIpTxYGt644aD5FLsawC6yQ8n1Mr8ERdJpmbZ5v3yzKV3bNL0nyal/t9AYAFQ89g5IysGcw5Y9nfwsCQW7sfp3J5sXp9OzF0mU+lKDMAcc3eMRTTsqwuU8kn4v6kpRyW/d18Wo6WVVE2u5RYlmVOKzHDUrQ7leunHQFDElXd332ax70kvb/5ZL25AhIxSWsfUAY5dVHoRs2b2s6dqLFTWSYgC2+JyRSGJSUm687cYGhLolbWpHNK+kD6h1dsiTXXfVFo1RuiFgiocRrE0RPMb7H/RMKQxPn21pfszNIPfntT9smFZNcp2F99KR9+oMMKSSwNVhRYhDmlc0JeYTUzl1wygIIl6zSNV9fXkaFUhBXa4EhuoA5pSJR4mZZOIIbLCwaQZ4jgtM9Dvx41n24P+TR1QEoAUBaF5Ne3XDTbotHlUVXdkDVP1vGiNEIlYZyI0u2bbIBl5U50Kqe7kruSM3KehyExS87H15//4W7zaPfk22W+299/YZax6CyvltPPVxcfJN7EKsemjAiEdfETKKkXiXYFhxdb9vtXMvj6YmPu5ofU0c386t3dN2ESbU7u5N6gSwCTRhQElg5qzMMyqil77X+Nf7hKl1usrZw61XQID/1ZYBCL+OnO3b3vebsGA+5Wis+Zx1mXbGbCHaa5LItcPUqJrQSFWYk0hwd6D1KgaJHYZMPEtc/YiSpjmjRbWqW0hjtrLsej5Txv0CG6rMi6fgAKzxklD1xbOILHnY7HwgqDLcfE4CRmmhJKQerw5INBBhbweCj3dzM4l8Xm+wmAad3bOU14/nRICTAxQ78BczkdXzpwPN0dj3e2aN8LGfanV92K4U+SbIl9nk/DLlG/8HLx5osvtleP11tgPdvpkvqDT+TeHfev3Y/9dttv7w93cnf/Ws14BU8L5w4wFsC5bWYLnY8qswm3LQoN2fBbaRK1tt32exNzDYP1PYIzXVGTpRqcd5v88o2XzKnTRWkezYGsLuJmZVr8eMA8Y8rLd75NRJLIHyhqBKVaCaEEKJg8pXPvBIFbqDZPh3HeAWlIeVxOs5nptNghnwCspEudlDzvp4yTdaxICoNBwGosx712XU5JZ0VWdDavNgmAQU1x+vSwZ+x2XRmxfzNJkgxMp0Ugm5VqBoBeCjAYsL8/MZB6rC/RoRuPrzVnK5pW4TBsmeeS5/n0CaeLbtUdxgnrfpMS9a+Hy0XzSytbUtD6FlQs8XxcljIBvNr0XvxU7t3Mp7zdbG7v3qzXY1ny0K2K5u3wjJncMZ9uh/Wli59ev9xcPOlX6whnTo2jiGoEIvQ+VL+Yg8ygmqqCW8k9oi+ICR5NIJhOp3QaVcCL2c8/zcX07qh5wTfekyeP9NPPbVlSEjqcSFWLipCbRH94qxH4dDydpW0A4MIcnNcDpneHUBLgfjxcDk+5K8t+7sE76SBBvyejAsBe5WhoAmSd1KAwjEedpsIsnDAMQEHqkxVZFk1J0It0uOg6JDlMpwyYYbodRWQzYLdbp3453M8rSWXWPBcITHFalGeWAVxwPOZlVEBQlBO6wYpmka4fnDkvh/1p2K23Avf19XDz0QEka15hZSAHLXkseW/rbSciav7s0aasunnKsurGoy7TaDPI5ourSxlGKy4u5plkMnHlMk/71XbLTZZAdcgttWVUsshrnG02zSRh7i1CB0cGYmFyFozmV8tin35Rfv6Z/cPPPHH5FyfDyX/zc/ud9/z2aKY+dCzd8Ou/wBdXfHNDUKkwviZCy7LMY7FSkBJQCJDKEjR6r7Jfno4nA8tnP79JidNq4JyhuN9nYN493ixz3t9MMIhCOvQ9UpJlwbjMp1MB0jzP24tUFhQUKwNDU4/EshSkjA42HmZdAu9pt5K8n08ZKaHfyGPeMJR7KZDppKexJAgnM4hpBmfuwIzUiyRhsIC7voObZp9OBd0pX6XUCYFPSyl2GjYDRUtUEhFcXPSrNXruUk/vPr7cpgTDkGQap5dv9h9/vqfERKpZOaWMTAKFuXvf9TotrrOLiEjdgNK8cUXO0PPeWrh10tWdLJGRVWHTmZqIeiKAv/zy1beOx6ertb44lB98bJiAAhT8ixflX/wYSEDy5+/I3/6t8cnTz+5vnSwlahi6UtosEAGn1BBcIylrjtSyYVAqS54ncGKoBsN+v58AAeTLL26jRSJn5U7yvMAK+oFZT/uyLIgOipcvyjvvDT1LmRRFyqLo1U46oTfI/qjZYFA2ERbrEgvGgsPLExSPrwczLQvmsUxHACeD7q5Wy2gpYXPZ26IoUFPZdH3fp6E383k2IHU95UXTIMx09Wh993q+O81XQ4omgvUVy5HXQ89Kbkic+mGXwGZlteu+dX395Nn+9vZ4c1hovRp6WXQerjbdwFhcL9Z3PnadFc+z61p2pAQU5p7QMbObncZ7EV71u5tXL5nw/J13RVIlpaMl71wsQA3FsfZM9NHl1m/3j3/nl8vnp/KP/ryRzMVRHCt5/k7627+Vv/H+54mzK7W0l4nd3cnv9nsrpe9XsUGaUV588q++/Qu/EIig9boFyvJ0OmhEEWbZiRh0d9HdHzNDdpsVSp5NLpOaRdBMVpSTdF0SATOmY7l+ti0TwMosWGHX98E0wRQKMeRRmSEduoSLx30g0ZMNyvrmdjaDLlCFljIh2TTPBXnCaqOXuz71AoMM3ZRP9/v7K2biLs+ZV7h8tOHEZVqoX222Q17MgFK0Zx5PS89pe9mRUclGZMe7+XK4KPC7/biYvvf46snu+vnlxeE4/vzm5MBKkg/SrZkl3S/7eVpubt9srlYO2h9v18yS6DAeDtP07vU7h/1xydO6607HKS8zAfM8rTdrKzrNEzNt1ztOwW/WAltkqGiU12ePLvR+fPzv/hX/1Wf60Ru/nSPJ9g7d3/h2+fr7nxtly3/5kx+D/J0nT9ebiy4luB8Oh5988pOb/ZvNIIeoJkmi/vr25vby+iJJB3qbsvRkczTmwXrcF+2TLKYJFu2Iqe+YzSZw0Q5IK1jB8ag5Y7NJIri8jpwJMDEGF1mgfRIrgbc1AJgBedZhJ8dRT6fy5NGw388AdCnby7QsBUiSkmpZAD6lzU5SklrEYXQMAPu7PQEXF9fLsrDwdFRwdsd2zbevT5RkR7mMPt6XadE04ekHl0xipnC/3R9W/YoI+3Feij3dFumTZUgamKZFy2k/SuqVBbp8+vrlNGYMnkZ1ksOb02kZdGenaZzLmMg+//TN8f54fXn53nvPuSNX3N3dnpb7PBX3xAzNenGxTZJAOB1P2+3GzEWoFEtJhEkNL7ZDenR1/Su/qndv9HAgZrhT103r9Q9+9GO7GF6/vru9P8523K53X3zx8jSWl69fp54AzIcJAhZAUZby5vX9H/35v3z06OI3fvn7UQvXoszkQMKsUGinnBWdLDwxy2rTAW1kyaJL6W/f7FcrbDjNuRyPZbVa5blsHw9gTKdZM4ZhKJPmaQbASBB0Aza7fliLZQDoBPOsUKxWaZz14iJNJ0iP6QgoogNUJEm0RrOayZevTpe7FBzIatV3PQ7jkSQxsc34/KNbgj1/92pGvn89G2y57jkhL3Z9sTlJ3t8v63UygxCOc/7Bj36+jEu36pm9lLxdS17szevj5ukudQQiNX3z2e3+/sDWncZlvR5svWY3L+zFhpRmNT35PJ8uN7vxMDNYVTNKpykvC7p+nsu8jJ2kmzd33PFuWH/wztOf/PSTzWYYl2XVd6dp6SXttutvfO1dBf7kxeffv3r0f/zD3//mu+/8+q9/LzGN4/T3f+//S7vV3Sf7LvXH8bDdrr/48pVAcilPnly9vr1zLf2wOeTb6toV5JanDKhhMRNX8TrXwNM3v/bkyy9vV+sehv24DF3PSW3JzJKYpykDmnjZrqAGmLBhu0o5FxaU2LGjCSglB8xGh9TvhFPlhqIJuevEsgKSrUZ6ngGU3WZgkfvTaVnQAwp0klYbSQnLpJtNar3wq7LkbtWJyDyfGKt5LmYm4P3tmLXkYpawue4B27853XxpYy7ig8B6pBPNXS+3rw/TmEVOF9frv3j18dX1+nC/XD65EJsLOTp4tvV689lnr1cCFJvGuet7YR2u1uPrgx3zzetTtuXLzyzxYMVMbdRTtIMg03yXl5Mx21EXAkrG/aLvPr1elrIshQl5zABGFHO9P9ylRPfT/Id/8UdY01++er3/s7/ouvT65au7aXr3+kJEStFlKps1W4G5AlimArW86P3rV1OeoShaplLuj9NlP6yHq9dv9kzo+9U0TsTSMdJ3P3jfZ33++OKL2+k7H67++IcvVqlbcwfD0G1X6yljmnOeO1wN6yENmuz+/jhs+sNpQZFlWfpBADGTFcsC7Qc5jEu/Rr+ShO5q043IDC3D6vbmnjsRQdf1UDCQpCuad93FQUcFtiJDJ5eb1WnJ7z/a3O5PlriY9QxwR8qbfvPu03cUkodP7sYFmkyZkLqLctmtSX0pZV6KwOZ5EZLVBS8nPvIxf3KT5xWMDQK1vu/mk1/v+sQ+vp7y0ykVvfpQeJbuNZeSGeiRnPSDx49++NGXh+PkU0aHK9nKgE46z4Y+z8BmK3kSY8/jaT08LrPW1gI3Vf3hzz5FtBWAzF3diHDI+x/+fOovaKalZO35mkndVVjG+TjOp89fviizpiSr7doHnS1jka6TUnLXCxRmuoxTmJSVsulNWD/54mev95vNZrtd9ytszJBV04svXr3z+NGhnN57spkKHl1trJh0j4IHG9JyfyfG1sl2MrMlX+x2j5h3m+FzOcBkOi2P3r0YOpmO09PLyzEvN0ekgd99uhv1kGdmwWrT2cKn6fT0nSd3d7ff/eD9j169SsxXu83xkI27+XTcXfTzpE8utxdXw+df3F1ebfqu/9r7qx9/9qZkPYHfebIC+PHl9otX98Olffjo4ntf387jaGXz4xefGg+XV5xILreX718Uuxzx5vrPfvT583e+ud2lj39w0w12/Wx4ffP6yeUz9JoWjPNM6K4v3PPG7vr7+bi48CSPQVPHnESnOR/tI7oZ891mO8jQzVP+4Mnj3fW8P+HJlr64OW2NhwWlIPV6P2K9ebOfL2SlYmnRaBqc18LWyzTNcCpFu5Wseqw7KmNfbOascC+aP/38xbN3LrfXsl/ENcvAlADKc8mGQmWdUnn0ZG3L+ng13rzcQO7zXFPhu8Pp/adP5qPO0345TXZ5NXaZVY7Hif7T/+Q/mt2nMmoalxH9xjynaQKA73/9ez/59EdjKZ98dvutD553IkxQwXtXF/vDKB1NOunCtFlEcPsl1tKnJEjqRVZDN9H9StbH2da8u360OdmXdho0aTdkdfhhMy/j88dPf/bly+lk23V3se5IMRtO8wRZPb/qFzq+/Hg/eXpytd1tutM4DusueUqXw8VF6deUF5bT9mi3x5z7lb+7+f6ru4+YwMmFbeg2Br893h1PuOi6TBDaXMha1vYXP/tiw5Dd9Gj9TH1ME5beDqNlA6vOJavxqusvdilryXPOGb/xS9/847/4cbfa0K5b5c3p7tVqtxrHZbWigsGWedE8dN00+9XqSvX07Okld+vDm9urq2FRmvI0TnrccxpOKTEYZDK7DgMfb3somEn5+O2vPf/JT18RmxG6PpVcJCr18iTnW0h2GBJ++M9/etofs5Z5AlCef+2D737/a6BgtRWgru/W/VZtpv/xv/zPptPRWZ1cNbOIO6wQEz158u793UuDM6lQFy3izt7zWjVzik2P5kQpUZmX7fbJcdwnSe5G5CI9MdSUWXoaMrK7q3kSBySlnsFRiS1q5OrqYFIHk5nL1ebiNN+rC4sIshqbaQceVptxPqW+Y4Ipmap6NlfQ2Mujw/hlEEfkPKw3xFjmaR6dJJsnYnr66P394VMXs5I1x4ZkZ1BWNkOiAVL6oTPLbEP2Wcvc9WsGJK1ctdiUuh4+6SROltWFTiUrURoGKSU9ff7Nu9cfufSwUVJHDitlWRYZZJ5mQXYMDpCo6ZSNhf2P/vRlVvuNX35nLl2i3CdLaTDK88kWE7W5LAdyV08gFCuA/eEf/PD2xZtckEtZyvL973743d/8K0yZuM9QAF00s5On3e5yu7sMas0BuNFDIxFWq69X1osZpiCOySBEsUXTuJXRg5vd7K5jwynzW21QVJsJorRyLrXUZgg6d1q1VmuuDasX9ORMsb+15RWXrZ5Xf6LtzhyOx/gg2Nlz83lUSd3r9ix3v7p61CipKExZKwW+tbMWZGpuBQBxqtT5mQyuFSdul0Qs0loE6OLquhaNz72uoDblxOs9xD5BLarlB3/6dzsZvvO931mt1rWiHxdj5g8dGk5ghxugZb55+fd+cPPPUSYAgv7R0w9++zd/NyVyULRAuNfid2KGECnOtLhEV1O9QhCaXJAS3KjWsNkdKSVyQ0qgh9YyJjYrRJRSV0qJDUvRlhotplaKw1LX1V3PKHVLcoiVmdzNQW6ogm7bfRxEpBbFMjq3TeHMC9adQAKvuwvP0iKuZB7QqgetZ4+D5q0f91ZzNTPQR1eWNFIQcElJcwl/GMr6lRElrXAcuhs9HzGB47z/N5YzurmEOze+Pxxq21h7CgDYidpolqaz7M6JU+qhUMR/CxGnrhPu3tLR2jqbLtbRzubCEiXM/f1hu9u17W/e1JBiTkbfpaKWUmemTESUiFm1SOobT2egjgBOQiBzWLGs7nA15LIAgJHmEpdgiB3TrSPQ3OqXthsNxxLNc06IDcwEgOt0iyaaSte61c43eFsWgp8dTW1OMq3dFl47CGIvxrldI6jjaBe11hoQjT8qQmYGeCcMUJLYgSawDE5mRsRUpz8ZwyiJmauF3Zh7bMVygqt6EkzjvmcTFAcbWKAAqRVzmFURuLmaM6MUVS0syQp0WvpVr17KPGu0MEX7ddyFlXSY7+d57PqhZ+n6lRcoz/OSiMi1dMPAgEhiZkkd4ExIRCmJO2LbAJGYqWkZ1uvGv9Iyz9EVKWRm02azi4Lp/XFelJ2iS4vIzxrqaAX8sxesBhG9N5Xtq4Ruaz2K/dEP+yAfaqZvq3H75cGv1gtt+/pqF/ZDA6016wSsDY8FE4aE1A+hNGbFHbEUpguxMG8cZGUuqkl6nPtsANXidUMUOVxzkS6ZWimZYCjz0Mlm1YGiu17gVvtxEffnZgZiM815WaW6QUABnZZVwvXF0PVDG+dRd2XOM9I//ez/BRmTCFo3kZNwApAodc6X3Xrodt98/sspiQPuUZSyknPqE0xLmdSIGXk6df1K3YgpCamZ0EIg4qSlGGGedVrgrohquLGrmscQBJRiZjrNqma77apLUcYhr4ZVR7sSNaq7Se7sxihmvIbpnk3baz9e7ZuFBkPsDopBGlT7Umvnc2xPcDJVSdSLEXESZ+ZzoI1WdhEy1Wh9Wua57wc1dVOAmNitTeBwDXhRlsk1S+pVM7GYFma4qggA0zJrjr28bHnmNIBBkgjxLUYO1QwHmyYRaGFAEgSAF4EytPpnMjcH8TB0yVGYUvQWdkgWuzAYAC76y/c37z/aPO7Xu0SJJbkZKAY0k6qnaFslGYbePRpVcyKDuQgn4XEinQ9p/WjKPs5FmM3rrC0zuBUiWrIBOI1LMd+suq6nZH4ac9Flt+2XRe+OU62iwz589xFFYwQ1U0SUapvZo4W4t4z4ocTyELoZbSAICDFrpoaJGC/FWPU8L+aCTqRfDQQyU0BqYCUyVXOgZADDsCJhmLkkArurm86n4+Hlx15GnfbzorVcS17mmSXIYFez+89/dvvppy/+1T9dD4OZuUNdU+oB79c70wAkZmamC6Rn0tPN56ZFAAEUWG4+vf3kT5hTJ7DlPq0u8zxqyd1ql5i6AYOwPN++86h/lFK/GbYxt6mXfugGB2JTZymLUIx8hlsZhp5MmT2xEY6SkkFMizOcuryoWTktZLgsh/m8X4apjumK0XrH0xjbY3fbjplVvRSlJLvtCmbEtO7T5bZ3uBmScG0LjTDNbbu0m3vsvbeizm1HQzjhZcl936XEMQe9RYDYKVgHKTBzSklLcTV326w7Irx5dXN7f/rWN57BSsnS9tRoDM0JdVEtSZKbauxhVTNTkeSwMs9vfv6n490LN8BVY9QqE7O4Wp6PHjNfVMs0WVnKdJhtcnXA1LC4E9NyfOPO7uZ11Ko7oG6vX90AiVNZoT9Oh/1h+vLjn/WdsHASMN+ausNw9zL9W9/8W0SI8Wxd6imaeusNEODCyd1YmEFwBRy6ELNwZmJ3dcBl48SlFEM3zzBz1bqV2BzCqW4FAMzIXLmaIO92OybkYnMpPUBE282aiFiohcxoQD6Dppp+hLK0+huA2FTAiYw5jhKgWEFOXUoJrh6jGQzH07RZ9wSvqZbBJZll10LMTG5Wcrbb0zJm/fLVraR1L4cuddSvBslMHTERy7wU6HJYTtvt2k1NUy8kkqJtl5OBO3dy1xhkFT1aqD6GHZaYpJM+wQAzJUpgxCwaM7i5OkCKlqUAgJVSshY1Lbkgl0VSX3KJQhyyxSSyWBJ3T+IizFFjyiULcRv849FZ65L7TnLRuzevnjx9kpIYkYGM1uqqhc10KrMaHBTEgYaytWqouZv5POf1upe6E90BLMtSTAkQkSHFeAyOkRSmbdoOI7YevDXVwmMCFcxqM2kYrBsBSbjOU0DbWwBXjZlXGh8QBko1xSQSISYrhYDjcdps+mkur28O81KmeXr55f673/56ku7+7r7Lp9Xl5c2rF9vLR12fhiRv9vNpf3zz6vXQy7DexTRzN5uXLLApPSn0iWEuM+alpE6ILJe6rSbwx1LycQGAaZqTkAibmRYHMM5zTD4rjsRsll1tNQyH+/00zwYACwoUyzz1ecneNW3Xh/whkbuVEsNxRKRjE84gaR1mLuwwS0Sy2hWlOWtsKciuqp6SEA3FSjGj6FeGwWGOJRdmMvMuSUqp6/oQUSk+5UygrpN1tyKi1NUR1M1EvwKG356JB4BQqYl2jkFEY4u9S62Jmdw0zqC4uR+naQZQrKVSrcdFhJhwudus1uu8qKoCUPXNwKukB9W+Sx9//Pk42be/8e7Tp49YUlG9fvKEELgsXV9tLy+3x8NhGk+SZJXEVKfCRGXJBln17/428jjdfYHjay9jLrao25LNreSsjnmex1nvDvjZ5zeb7coNXZf6JLf7sZjNS9iKEXieZ7LJXU8nffnmkIFcopIHVeQ8MYNTat3cDJirJ2FNDGISJuYiqQN6dwUwZ42QWdxLKYumbKoGd/RDUiuqmOaFzuDB3WLiXLG+FyYW8tQxE9x0znMp5m7DqusTi3DdH9Z4jUootbbAGEJSHfUZPtUud2pTkWN0S+10BHPb9hCm7QR/fLX2y3VM7FDVQFFFNRRFzQ+HE6dhnObjaRZhOpwYuh647+Q06ZNnz1++ePHkqn98vSGy6JN0M2KozgRKzEMn+wO/+vzNaZodlCQBEEbjoeDpSdlcaZ5vvvykzPs8TVaWeZxIUEoe52nBcn+cj4uxpJRKYouvYEJWuOUl52lelmlWg6FcbtKiZUA/l2UqIMHxdChqwiwppdTXGdBuadULYt8WUVYs6llzJJzmmAvM2eHuIiktajXRmnPbJMNFzQ1LKURYrfqOaBhY6vgOX7IuS2ZG16V11zHXQRbnVJTattwYYV1BrQSh8cBQVvxLiMlWpk6xZT52HlYylKqJvtVkSjUbZY/DHs6fFnHdAaBfDY+uVqfj8Ry8NwM9s/LizeH2nvXx4z//8efH0+l73/nmMAyQlLoEU5LkcHdabbbPu2G1Ory8kdOc5yWziIGZAq0y0iA8uPRPv/Er83Sap7G8+Uk/3E7TAdw9ur48jdNxzr1pDBrrpOsHZuKlmCOOK+BqlgADF1crAHd3h+cXm9vbftblp18cU8qbXoah6/puu0qVJv79v/d3gl2Zsi2FHFBV1JMfuLJR5nCLXtEwKTMUU1UXYRFm4pREUiIyN6jDVEtxwLtOmDm1cRV1DBu8DYGqMq62C5NEV1d5nrtpFjeKFLn2fcclu4M54HAQXo3wjsOCauc6Aef9HtVtP2w0CpRmVfrAerN+8vydl198Nk9T8LRJsBmQs33y4s3N3XiapjevXvZd99d+7RvPnj+HG0siYtdCwu5gSXlZ7vfj/WG83Y9zNhBpKUEpk4gVDVSoReEw1+l4P92/Ouxvp/3t6bSHKx4IGRk6jlEWqtkBNXW3eVoALMvMnEJ3mWVZZlNIV6cSdCnFxBFKIlD6P/+X/w51WFDM2GR3mCm1LlA3b9svKWctqrmoSOqS9L1IEuHwAeSwnC1nJaYk0nXCTBKuqkbKhzw15F078AnE6DsQWS7MBNV6dk/cb3Dg1nad1b0G54jd6Pl62kRURN6mlSu5EwWRwG5c40Hl8endDz883N8d7u+97Shedb7q6DhOn3x2e3s8Hg6H2zdvUpK/+v1vvPfuM+kGZgE5kRCza0zvQDHb78fb/XSasipO0xgKaKYcs69j7q95zllNzaws03i4u33xUT7dM4xZ3doQlAA1rmqmqlrzKjBjWhYGYBg2vRvMNHazaEy/Qx1pkBaNykwMvZQ6Arkypg43VS9qSy4iPHRdJzT0A7WMFLBl0bzkOSszJZbUSd+n2AEQ7w9hmlvbExCsFLfyla+2dnVVVOmw77S4Ouo8HTpvdA2OublUplqaqTKsphmJEJHFoNbmpFE12JViB0rbpR3jqePktMPdrXSJqM4shdtpRsmWSJ9dD7B5f2ebzXacp9//w7/83rdP3/7as/VuK9IROZRqFzJBiHbboU/8+u54GMt6NYyn07zkvOTdbmtBjrid/Ym7SzdcPH53d/10GcfbFz8vy72XSXNxwKBocYtIGBkszgpGl8RMOUlIFAAlASAJWlRY3BQA/W//w3/LTI4YUEUAmVkuSqBpKcQkQkOXRISZJcYMAWDWokV1mjIzd8Jdn1KS2P5MVPm+sxlVEHTeWEk1pPY9pZSZKecuZ7iBpR5hETKtVcWvWuvZWYc91+IXnfnJGqybd3DUmmANiM1Rh35YBU1EF1dX/TC8efnKrB2b5t6xkY3jaf7xzz49FV5yORzutWiX+Pvf+fDp46vdbg2QdD04AdA8uxmnpMXvD8fDcVmMDmM+Ho5DnxzIWc0VBhZxt2WeiSl1vWph4rwsXZ/uXr+cj7dlvF3GfcwfyZrdrKi6WcyXsQI1BZRY3CAJzFLHPZXYYQQYkllxkJtPavNSSrEkPAwdQOuh9vXX/bVm6maGXMo05xgatuq7rotDKCQyLmZuG9AdtaYJIamQhj02WHbJHz+ZV2u9v+33+1TUAour1gJDuGRvAqsW2woGYb7eDlMKcTKxUyWwovwSzGgtL5K7W4xTozoW2RBjSInYiQhd37GQxqBLB9wyeDNsrler73X9l6/vXrzeAxfHw+E4Hv/kh5/8zd/cqiqR2Dz36wS31A1RVOh7WW82T80Ox/H2fjwO3bQspWgpmZyMTK0wcep7AGomIiUXFlHz7dWj7dVjLTnP43z3xXH/utzNRbObAuIxaQqLGmCQBANQoAwri6ME+c9IhpJOc8lZJTERDX1/sU3tcLYHKYFghlx0yWrmInyx3aQ4mkCqKcQ+vDjvwd1josC5nR9co7sDInj2PKdkp1P3+tW6lIp0qrUymQYpyGcnHPl0GKGfS4MB2SIlYiJvlQhqDCYZP8xgpbO5o9WUWlmtGvVhf0h93/V9XjK1UxMAnGbaDnR1vRMmOL28FSIuZtM8/z//9E+//91vfPPD56thCGodbjER0s1JSJgvtutV3+0Pp/ujnMaFJGnJy7LkrEbOSdw8zoFJfWdqIKg5EVjS5uJ6e/noYpnncTq8+WQ6vJ5Oe1M2y5J6N1UGJenDURs4CbEwRFIQ1X2C22bdJWGpo/LIXeGkFCUBn5ZlXhRASrLbDEkEREnq7CfTGgCMOHpkw2FqG4dZfbG5QpkpCeB6dwvVNE0A1YHXHAUcENQdzlYHXrqrO5mRWTnP6mSWELl5JFJUK61aiY/KmngcgxgA2unsk/1ciarXaOaqaqbH+727MUHV2hkeDsdMGBJfXO7MkVUBZ3m83x8Oh/2f//iTT1/c/Ju/9YsiVNSkS0Qwje2HKfB7Svzoerfdbu7uD7f3x/0oIgmgZcl5zCCklFrBGlGdjGxU1dydJK22F93qF/L8tWWe9m8+nfevNWfhuRQFoyyLGqwoAEmiWABhVi2atpv1uSMhBv1r8SkvICpFY70ud9uUmNPDVLYo4FS4eY6JrdknPGqjimvE3ax1u7PDPYHS6QT3WgmMVxCoDsk658fBTDqBnJgTd+cdc1HRCpRSv53ayQdEaH0gTPU0tfNVoyXEeKCwa7WJyACep6kf+mGzGU8n8WCEycnmgrH4dt1dXe1IZHh5d7M/wSHM4zje3N7+X//oj//Gr3376ZNHpoVqBbvmIdQn02xmq1Xfpcur3eruON/eHQ+nueu7vOR5yfv9Yei71HXMklgKlODmxpLqCEkilhVz1w2r9e5CS17GI46fHY/H4/1tNhC01PP6NIZ4q6kakpkyzJmXpcxLzsWzFiFhpt12lVLdlkgEmFrlmGB2HuxTF6vOuntrtqm5u1tszhtWizvd3iS32MgCt7bFlqNnysysgewGyoIdc3fL1DbmqllUt8J+6xC2qKQzR9yOEecxZ9/ViVvpAq2PxikOfvCiFaxHwdWNVkOdgm/aeDEQcDxlM1t1tF33z59eEqEUZyZhHA4+jqd//Mc/+s3vf/P9d57E2F4zj14YSWSqMa88wvzjlHbrdLefXt0cjmroQbRd5mWelqK2GjoRdidm0aJxmFlKHRGKqmkhIk7dantl651cL+tn0/7LT8f9az/tzbQUoG7RngCkojaPZclq7l0nm/VANIjU0X4xRfOtVrTq1xo4RZ1ow21WAUsz5pAypwRm5KUz5xiSIjFxmzxiFfzcd9dK93U7e/NWqMkwASBpJ2MEUFa0HoR6TN5bxHVs8iQiJkHtjfAwrmC/LDx3SwxCUcw8JVlvNqfjkVkIrqZR4zhNzoShS7sdL8uSc34T6bWk+7v74+HwB3/y4+/e3v/i977Z971Z8bkM65WW7O7QQpJqQgddDUOXut1muN2P94dxnLulXzkwL8s0jYErEiURjp2e7jAzIvR9Z+ZBt3dd1/XDar3b7B6VMh/ubg83L6f9a51OBmVsiSXd3B5YuEt8sV51XQrLiIypzh+vQwLJTIli/KJTbX5q3HCrwMb5FMw8dKZGAFR9nqMVs42rbOSyqxJz1NjpPPmSQE6FSpuvTa3+ZGpOXAdD17GqteYU+XIhjznrqB13DQIEzKaYSl1JLG/T8TxgXQ01ZtPpWDTXPN7U3FXt3BO5P5FcJCG/ulynriO+vTmIARcXDsBc/9XPX7y4nX/r1799dX2py5znkViYmSVZWWqMMCfxlNKaeRj6i82wP05v7g/jpH3fidA0zsucF87R1yCSAI+B3dZOKzAzLRqNl+QgSpvLx5uL65K/voz75fZz8mOZZ/pf//v/ilhivCJiZK97Y5fOKWZtfYhUg5klJdMWBrlSFsTEjOsrffbuOKxOn/78yd2d5AI6z9c990OhunqgnqNwjt61ou+oM4nwIMozZGsxlQwG9zrts17MGbZHMlTHQXtDy+5GD4NpYzQmm+o5wQ4on7oEQllKNNfVCVvu0Sl8vUvCKGp394fXt/Pr28NpHEvJ42ncH+67LiWW3/6NX3j32WO4GYhZpOsIIEok4oEgiJjZVM0tL8s4leM43eyn02kpauZeipacp3kmRpKUOgHIzdU0IKQGUeNeW4JU4dZ1vZnBvSxTme5SUP9atFQyyOpATodrPdMLcWgps1DtYCp5eTix0txhzNR1/vVvHHaX+7z0n/zs6tUruGtDPdEBGaYItEE1aJWf8NJ1/ZxaOVkfeKzQOZzP6qCWqqJ4qXEBMXnciQjMbmbxhwftWYuk1eMQwRUOp1LRYiybEzPcLGYhQduENPc4k8vcDqe86U2ELzdrNzqNx2nmru/ibLppOp7G8ff+4F/+6ne//u1vftAnBqEsM3NylIQh7jQ8h1kBqEuStrxepe063dxNd4fxNGUiSJIevWk5HI9913VdByI3JQrkbykl1aJa1Iwj6JS6Gs4im8dJNQ7yELNagDNTkJ5bnmpZ2N09huhzGyvXxssQtmu8/+FptRnN5POPn798JXkJJ/8wt7l2xCGqRhxgOV4QB044eZtGFzYd3kxrFx0RR7UDgZadY4zxW1C8HpBq1vish7NmEG0+iNBb/6Jmr9xwf/P95ObMvNnuDvd3psW9zVwRYqdiNhcZXAFs1vLO491xMncrRNstCcve7kouf/gvf/Lyfvnrv/z17cUmuGVX15JZukptBioIDCicHLvNer1aPbra3B3mu/3pcJyYCei61BUt4zgT0zD0TGSwGi6ZO+6lWbPVD1ZJHRxJVYni4Bx3dQMHTdFm4AbGrLfuRsKNtycCOZF98MH47N1XRP76y2cvvljNc+2YoXN9D0BbNmuTKyrrXgOzmUc5uZ7oSdyGkocs4hiYcE2BlrSOnavERX1VnSUMxMe3xKnZbWzCpJo5qVdunGszSuixGUDFlJjGwx5mak7kBKnPEoEwzqrJNyvpWS42+vXn289en9xdxFbrAbjc39/nPL148eU/zuWvfO+9Z8+esMiyZKh2NVKIhzoaEZMVq5/vvu5Td82Xm3R7l272p3EuJjykFTPP0zyepqLad0lEatumFQczcZwhHCPJY2J4rWi2EMsUwx2JKM6/CyhbDa6xyGHbTCL83nvLk+d3b14+/eLzdc4ccVZIgveFe+1sr/yDcJAOsNhmEFyFNtqh8dXExAY/d75XWrvaUWhLNHH6maluQLiB4siEpdkxxcAzASIsVuasumsGvDLQXl/PbtYNg3TJpwXuJGTBfpgyC4iXYn3xruNhPTwRGVarj764dbeUGHCWR29ev8x5efXy5T8+Hn/526fvfOuDru8Cs7rDXEWYJblr5IKNQ3AR6VlSktVqtdut7w/TacqncRGmlBLccy7TsqhazIYR6UPXJSWOAxjODeH/83/zX9CZ0Wltig94BwCRiNTG8zPrxG3INaHvbZ65iieGQ3EihPAeELbVY96jdcMaMsI5JkbXceNFak3iIUOLxIziJO7zuNVzARgEEqkN0u1cu+qoqW17iR0L3trWKcazI6J1uHuPqk11Be6cEuC1R6z5GKoN205MFysiMiLOeXn1Zv/lzXF/GHPOSy4Our99k/OSJHFK33rv+le+/931amVaKmwnZpC51k0rAQEIxAlmcSRnydkMh3G+P5xu7+dFdclx3Lct87w/HIlZmLu+U42Wb29LB1NLzFzLted1BJ0HmZ+TmgYxQcwsKXKN6OUcRybAYCz1BIRGYNdPQ8v+2r9EzhZzgL9yfDn8Qb5cKZN6ACe16zAw1VPtyN25Audqow4Epo86B5rlx+VE+zs4DnIkjliLOsywHabpNS7EZZW8dF0nSdzO253iehmmcOxH322EXVPfP3/2qO+7jx3HkZl5WcrV1ePbmzdFC3n+8UcvX9ycfvs3vvvsyWMW11JKKZRS60tAzUhixZi9ZLikvidQ33ebdX+xmY7jcpjy/X7MRWm1Sl2fc76/35dSRKTvB7C7G1NSyw7Q//Rf/+fE7GYs0WcjOCf/kVvEyWaV7oHUM4MiEsbRbvwWXKmcEj20T9WI63EEYVhYHasGjnJVS41ayR7U7tXMH1Ss1hkib4pkvWpRI29rwFdzqXNFqx8mCnJWozevtum3L6wHVVas3NjYdk/r7eby+tGLzz+Napq7xckL9bRjgpCzjZvtFvCc9c3N4ZMv7/bHkYjMbJ7n0+k4Hk+RZKYu/Rt/7Zc+eP9duOWSmZPDtahIsmjFcDJXOESiPONC7IC7aSlLKfOid/eH+/18mMs4ze5QVXe/v99rKdKllDhJRwwzry6bJdVJWkywQE/1VPBzhKuRmULRGIgz0s6iDN9yPpgOqEkNtWdDul7f3jAYcJ6vThW1+xkoNSYbZEFmVI9S1z6oKzePTWlnPyQP5y/h4XNBMU6eCHAx1VopRqViKTZeeN0IGN0eq1U/jydcP9ruLu5v79yNGstuMALBkZUSRQ8UdwkXF+t3zXMpquZRSGcG7HQc4ZiX+R/9wZ//6nf23/2Frw19p+6atagBCuZA70HXoPYm1dKmqrFI5+CBV0+vnj7y++N8OE73x3GcSy52fX1l5vM83d/dS5LddgtCMrMYquoWJRkmODlHlhm8cdySMLd5fmiiYWY39VrXQT0s2L3u1fTaxVG5o4Zx67j0SmiznvWHQcYEB0OilBueNGZBe9OcenpK7Da1mhqh1oNjm5Y1qMRWCXQ1PY/ajS0qwQcx6q7ISKI9sIIHUjAdTyeRdPv61e7y8s5vzql0aEwUPhxYTE6z9ckIGLr0+GpXlvnNIR/HKRzVarVV9WWa2Xme5z/+85998vLur37/m08fXxF5EqqUWynGpeZpSVBATKYq0llZXLqgESNVf3S52q7Sxba720+H07w/Wnbr+u76+uo0nu72eyJOwkwcZ4J69J8+2AfV03S5HV/RJFHjpTuYIvk/H30NrwAuUPT5vCeJCdotMNeE00zNWhyOuBqnCxPIuFoRgeIkFFgd9N0qWMS12h+YItJzgEDcjoVEZWkcDpNIx93M65G1Z5QXuTG1c2sbnUdmzmTjaRzHic5Az8+BIo4AhJsvhYhkSEZEfZ+ePblivlPV0zQTkUjabXcj835/CHbj1aubf/YD+xu/9u3Hj6/CGDTOKDif4djQgEgyU5ZETLG3zd0JTpI2m9R3slkN8zzfH6fb/ThOMiWRxObIWZO7uyk8qH93P++crLi1sRzOXI+ZMVUYuTkLxz5FUzu7YRBg7TSdBt0cSkxmhta8fOYUIjkHObG4W+hOs+/mqCNOxDPtzZHJPCRGVA/XqUKoW6/PD6G6krpsb+HzFoXUgj9pWVbVQ5hZ1/elZCKG5xZA2rOq0UNPRFM2U3NdAGjJfZI1683pVJyWnAGYI0ImEZeSb97c/P3f+6O//svvf+sXvs2cmExNS9HY5+dlYUlMZMrEZG6WSwOtZABKCXawE5LNquvkYrPaH8e7/XF/wGwuLAlEMTMhtuzFQsZNVpqJqCaY1X7PZ5rHSUGVEWzAiiq34G5EHaegi888snmdnOVUt49FETo2Z3Lr6XILL+S1VN0QX7Wct/ipCB9M5KA4xR7N/8Q1GbSFf+CMB71uIq0fYxFTnYLnqreJOKMiSK+u783qGRcheqZ6iIU7naH9XPzFzz/Oy+KEeSyn0/E0+as3t1a3mpmpgoi2ALNbcfg//4tP9wv91V/7HlMiECi5KThFgYUksYREErwQSdFcj0Kro1AdLGQlSZKVdEkutsP+MB3G+TDp/w/K0qZxNa3VzwAAAABJRU5ErkJggg==;strokeWidth=2;" parent="1" vertex="1">
                    <mxGeometry x="10" y="100" width="160" height="80" as="geometry"/>
                </mxCell>
                <mxCell id="tvCu5DKCvv_bB73sExrc-14" value="" style="shape=image;verticalLabelPosition=bottom;labelBackgroundColor=default;verticalAlign=top;aspect=fixed;imageAspect=0;image=data:image/png,iVBORw0KGgoAAAANSUhEUgAAAKAAAABQCAIAAAARP+ljAAA+60lEQVR4nGW925JkOY4kqKrgMXOPyKqunmmR/bR9mP9/65npqsxwMzskoPsAHvNoWU+JDA+/2IUEAYVCAfL//V//6/VKj+IcK4iFEpSgQIoCDAgsUgBJkABAwCAA2wAJ91cJggQpGhyQRRomRMIWscohVBlAGZCREDxh2SZgFEAChoACiDJcLhsAbNAAYZqwDZcN21VVsGv/k+xXSldZxZKRRFBFHKBhMkALNCEKokgCpkj3G2aIpERRe2UCgCSYZFAMhajQKOkjDgNBnPBBOksRZ+FTmsbQWMatH5JYxiDLIJhGKAZjjDA1CLiyMr1WzspznvNcay0ILI1BOXQwBEYMBA4SReBRp161hsY8/1q+x2SRLFklkoLVa4MQTUB7bw0YItw7aVs0ABMGob2/BijCNFCWRAIkDVHqn00QQQIspY0QUYTLRAAGQFgUAAiVxDYlcpsVARimIdMoG2QV0Nsu2AZVLkLpomWapFW02nYNwv0OifeeEnZ/1q8dBAhdn5FsIy+SQhAgDVhE0f2Uo2ASJlCRSBGusgcCHnb1kxWI5bJJwcMKmIIKrnKVy6jkPLEWMlFVy2QtUMNjQUewQkw5YC7xh0beEQtDx40viceSCLtEy7K+TyoFg+wdpwHvN9jvte0AgN7vvH8NEGww0AagXqBeQ1MjZRbA9+6QrOvnze0RYBMsUb4cBWDQbVekZRZog+R2AaS8z7ltGUWTgKAsW6RAyWWCNiG6DYY2de0i2i7R51bfdg72+wDh3ljSEEgniiYIt3kVqQKNWq62pzKKGSZIt1X2mYEg7EPoRFY5qzL7HKPKMFi9OnbSdkkWbNRRcNyCQQFSaPIcwAhJHKFeiyJElNDnpQ2YIkj22r1N2/DeY/ZT9rvXNgGY/dEbShnmflQAolgmRRdBKwAwABf6/L7dMdGWgR0OAAPuY7zNqB8ZIqsjBxhtkAaIIMwQCEUUeHmUAC/bJeneWV2GqzYEUGRcTrrfoq5zvv957TxJ06D6jZssG7QV7EMgqMgApRCIwDYlD/QDbQuudLqybFdHnTINQuq3bqBs2lkGskpkWbLNGHKFMGCHBoVhFW0YvZoAJALqzSAYJGD368EV3cC9YazLDgAaEOT2023PJtmf9lGuEmihXS5KkGEYHex7WQoQYBgFdkjeDqNjPlEmkB3828pACmVqPydAIGBbQpGBwl5GXrYGS2G3d2EDhn470hV2SV323nu+dxna32pUwF4FCfvAF0EXOACSCoagwYAiYEoy4VAEAoLLpKvaSdTlD90Hqs+R4EQ7Q1fbuauKUq2kicFgQcExIpbDggodPWxLNCCqnG9vvEHVXt4+lLj+7JAECi6KfNuBN1bpyAiY+9e5t7b2y3YZFywiImES6qBf+83smLujZu98GxkacO2XYqlNMUqObTcsMwKG+qFkej8M94sCLagfpiMEzX1sG9Ntt7QtQTsSxTf+tFUlmo5+w1LABVdbywFRCEtDQ0on4QjdMKACWQDNrFVOwG312ZZEVKGyrqh4AYd+017lI6QwnIm42a8xz6cPWYNgWWA2pLrOT1utRPf+bne4wXQD65J22KQLhPaPFBiiqwiDYZnLG2mRYJJARbFUyUY7JAsAigTdcbS/ZZkGgMI78NMo08gdFwq8zMkkXRbVkI/GEcxKxUg7wNqPDIp2Y79GdBfSknaQ6Ygs+jqvCsns1yYGEQ6zzKAhFllZEQF6wItxFHFIUAGHhmVYcA3RDBupkmGjsgrV6UmWthcurMSqWpUIVMLmZBEhA5Wl+PQBK2dCIUVVKmPc7n+ca7DAsG0qosoSnAgBLPTbv6If2237CjjeRkcQVnCHxZ1J2Z1aEC640SZIF0PcHlW0Hdx4mBBgGoXOhNotC7TLgC3UdkoEIdlFe/svgqjqZzLlAoJKQnYR0kHwUC0z3H4KeaECCEUQlBv2bExnAQI7IG9v5UbOICwA5SIJFCGnLXC08a2QLByQzUhi2KmSmfCwSiyXXE4BrKRRKKe1879cNTNXrawsdkQGuBpcGUpTy/Oowx9teGJaSnFUZvvnlaENQo1MAKjaGU2Q1QvfOdBGQL1D32lL4yMCjQKrXdb35y7rOvuVHT5Iljc83mGAfRTh/O/pdm/hDhM7Oa7ebJa3e/HGdHClJYC2yNxPDe6wTtpBpNuv64o74huBbUdNY8PJ3/DXb/APNiiqEQl2GkYTZYQ4aKhQYnR+4jcSLZhFjAuQ2bKAShWtzsLK2QuMBlnVRldVauxJAVWIQYZpr6ijSgpUuAYkmGUpOmfot2Jca9g5YjHwDoFXMPUGTXg7731u4e2w2yqulQC3W8RFP2D7PgH9NnDF5s1S+Ho5O8nZr2AbhEiz+oWqF6Ef3CSyridFe2GUuFNwo0GQWTAurH8dT+x0Gxsod263UfwFcneEuN63sd/qTo/BjhdkUydGicF+DS5AcoEsF0uAA+JeQqjz6eaH9D4+fXhzY+HGIjSuTShbdmmFgytL98E17ATULq12TMLel/16N3h449YG0lcC4gtTdz640dW1VXsxeH0Rv335gjgX/WV2Gtjvq4kIW95ofaOp/UvRv97pAh1Ge2/YFMowxjaTC4e+15sbK9kXzUZs8/EV3LG3/fqFnYXt8P8+3v1Pd769Pdy1zfuXAQFSB3xaYAEqJxCZCbtQrGOvTu19277M78NWBZcLLttV2ERB41CadJnhwjswo4IDOR2DSnvwAovonb6OGLafusBRvylA3r7mWpP3xrFRTVtE/5LVjvSd5FypVuft5jad/gyKTgCsJoI28Uig/7FNrcqMhtpG0erUCXUhY19hBLoYljalTYUZajvYiBcbTrxzn7ZN7fz3isKxk4i2ywZ+O7HZK99YpI+/C4GA0la5qsKqMg2XmchJLxSpwbc7ah6OLm46K/ep/V4CodwJ4M6eOpkvwhqqVeDg7YPzEJaGyykFCqaTm8wyXKh2aYR82bY6+uo61aRBIa6XcHmzRrGkNixp1ojVBuDL17UV1HWeQQCBzdGg9D4hAMJXJPIg6sJknfjaMDHoulApQbNsVu+ytR+tfYbR1FbHwM1Jd3ACHe7kd6OPy9FcQVn7PejyRJtJu/wYKzvpLJ3DcCIp1EqQXgmVCzSyFiLoFE2riWIBVXZWVa0qp2vBtY3JWd6BnwJR5ADHoUQcFFPSWAP5IhuGHJJQixKWh5oOdqfinS8AUOny0gLNRlIkHY2X/D60nXq6wSncWUa7XgUSscm7ADY72OvFiw/dTwEgNl1iwC5sOGHTHVXffqH6XEepEg5CjvYApFlNFxQCnKgA68ppxXIxHHVRzwK5cylccYJsO6JBlXYGfcWB9mMqUjaIZbioJbNQMemEkAsMVVoR9hKdNNT5GqodTVHMpM018Tp9rrXWnOnKTFnFHcAj78UFHhyhEeLAh0HHGMsHOXTcMCOLxy2zxDFg864q0MGoDg1W00+NMN7h6fK/MIiqi9DpihBphFQ72cQF3uQCI1y2GLYvWhRm86jUFXy29+nyAfpcBGGUC9+k+G9QrPOAAjEUhrcjyMzcgRQRBUdDGWBDS0ND5ebMDZZ/q7FUR9R2qkXJYCE3BSTqQl07ykK2C3RVdKI0KwXZJ0Eg+/2XVZVN45IirU4S2SSEqyqxpEku1kK6bC5Uw6BwFBARGACDOuIYB0O3EKYiowaRR0SN5k93pJWvDKcABi/b3K5z+9D3Pm/k3d7Um1O7cJjk2j5051YSs6oLEW+wIF3rRCAaX72fF3K5mmF8AyuAaieMC4F1nQsA5OiIqM7hrNiwLcvYnrixTLAJ3gKoK8UnSIqSdKGtjTzUTD42quQgI+TLZV3GHP2iik0+lgt2mpBTEdkBx7kJayDoEAd3jk8RLsBNgw0qFaHcz1u0ySCkvRMaHGMEpYMBR0SCwDiOMdcQVRcKvHDFm+DvavB3in8lPrt4duFF+HcYCqApqU6fv6MysQvB3j51A9iN199g+0Ju/ZDbYV8c+2VkF011JQw73HZYvMhM7iRpmAZibJu6/D/VgEvfkGJXEqCG0F1J2EZ0vUpsF9aAhBc2bw4Azc9uAr0xVwoso+tcgs3qExM0pSFIGtrYNEQaSQuD++QAZdjFJodAhiiJgV3H1GZNRSLDLIxjHMXBQl40AS5YvBe2vAuB2yPiAprbpjcaZsfmXnJvK9ipY6OTvc/lamjS1SRte9o1WV2+fG80NqfFCxE0V7pN0KAuhqGNwQarF9loAAVBTjAKyV3ykOHN61Cbj3u/r402tJM97gr2haN2nvTeexibJWgeZYOSXqf9tgUkyUBRYe9quyQBQ1TvFSPagwix2YFaGlJQJ02nnbVDF0EgiJCClNHccKCg6IIgjBH0cQMWXAEXmcYGUVcCX52keoeYHX03w4t3AQbX1rpRWFUj6HLDKO5yY6s01JlTMw5VpBoO833Yr1NdzW13VXfnYH5Dmi09AFuXYLQXdW+tS9X7LgaOPt3gTgdEVdcWrOpTuePFZbFdP9Q7k29T3j/QTP8GlP0/wc1UfVfFBFcLMBAQgkRgMDhMBgMjji4eUlTDSAqHRgShDKRNr0rWiKOwUOlydpqtDpy9RQXYIUVROgzDQ8dxy1uiGF5OSe4soBJQMz29ks0p095vr+Gyek+EaiCifeBERYAsk0Z0KbBoaVShtQ5u5Qu6rhFdpu/Yv8mPDtxFdQZTF4AHbXYR5DIJ6kqHd6U4qtxBuP3vOxU2wCooaI9NQGDEhQLdiOAiKnZZ8LL4BhcbM4C76K+43IpiUzjRywE0EOrqbwEHJVEcoRyKQ2MMUYqrLmou0cH2cAArUFRBycqwq7wa0xCjyEGIFMJWGrc6OFTM4Ovm4Tk5iLu1GEUwXWu4UuVSpcOkJFXBY6eEvbchBoKkUQSGAbhseSfcQDGETKNVDqJKHmQ6FDXLsJMAw+Vb7KNYVaS6itIJbhkgGHTtwpa9IUZbQtXOCJvnJNssUGTB6rOZGEJCwY2lYmzUrcLmMqAqS7qy/Z0XdEVko2YjdrBuInJrAvYp78qUAQ7YigEgxqjkLSIdjJsKojwUPoIjIgh5bfgEWyxWeVVWnXOer/k685WJyrIJryba5wJHdaYjxgfuITH7scu3GgOBMrq8JrhQhqeS5XakZkCtvNhFbWkX/7m9M6HGdaCVtQ3fcA0yLfXJJpt9d4GRmpaIWVNmpQbSksCCiaoWynnjuqaNBFLeGrEd/XZJVuAl2UPXPAiAsT26SCjK1NjZgrZLbnym9gFdbghHF49oaKsdNtWxIxVEVtcN24WTG+EZlrzXxRyAQwOKgZukoREh1GAQGJJuODAIS4JLZtlwJFZmF/MXuIgSkrVgugyLK4sBpilzlZRZ8KRuigoQMeAYqETMrWdSCi6YtbaiycmiISoIGkGQFi0hOmttNk4hw2lrFQhEZxKAGLDQOhKVq1DwYpXzXFyNuYwCxBrQkLP45hDeKp03AKKwEf6V6WyYd8VlSASLSaAqdj0Iki5K0lt7wpYEsi5L3QexS8OdFbW64ypJ7EwRghRqULg3uAvaCWiDaJUYOIIUbhxxxD0iAoFbEKJDDPHo+IUyg7WiU0PH9tLkmUC5MQpgqmg3nVKsrewURoMau2ZxBNYE1oBzp24EVLGx58qG5K0MMQpD1qZ0LFWYg0h6EIN0NL6vggoX50CEZMMDSkBZVUWcM5fKK18GsiYZqCQPkPI79WypnBuGN9/0Foh5Z50NrK46FslWVmojpU1L7uj65iMaJNAduUDEBR33QzYOIwBd1YqLCO8XAkJqOc+FyRoA+KLkCCkgxYiijiNwjON2YCgaywiI4GguvQqA8023U2AxrBxUqDW5UDE6cAm12fLWdumQRlCWOtlwyzRzgEbVFgYCpCOqVMyFlnt1/lkd0wgAFUBAiRKdZkpypdGFsITBLf4Zbf3teAtZTvi1cqnWXCeBzEkeAIYCqhFmjEBQSqxc9nfRiQx1yc+4SP5djd57t4XUjZOj2aQG42zGuKpakNS5m8hWq15J8PYB4Pd/bwKAV8HiGz4TZMvproLSTpdAcAgRGqERx234HmMcHl2oaI6tn167HN3aF7dWq1RgDd+OlaksVXFlkx8QrALFAYoaY4xxjBhitFOFs6yEB51M+FDNZHQObKESiSy4OrMOloUWW5oyWA5UIIYhJMnRZG9W0QGCIXjVuLkMupYXq3JVnVjzuWbO17JVVfKNCh8S9HEccQSGwHScyHTzQKCGIqRNjdqA00hQLF6SgHqrVgXk+zAKbEGuW0t4FT31Zl6xIfo70b/Yq53QYnMfIrRj00WCEJCjK5uby6ADBx2HbqExcB/jNo4RHDTYtudwKTDKIaHWGnRvWwgYVR5DA2atWrmQN1WpEqX2qC0YkyMYh45QjCELzlK0PxlULTBWYSQX65CQhYVaBYCVKi8nrRSDBNOQKSkYq6IsQQZcXaTd6sWICB5moVhrLcv5ylVLq1ZNfK2VVRNLcYAR90pCnxhjDFlFeVmqWi5TQAiD0narroKtahQVZipjZ79XJY9b/OSSWmIX0XxMIBZS0dhoS1Zog9pUYee57Rm+gy+D2LmhpY3SLiBG+apWyIIG6qYYh44Ytzs/OOLGQBArEMYa0HEsLVKFjDYfA8Ror3xmPscBcBnLSNeZ1ZQAnE2WkQwgylINApHCIVQKszRWZtBpVlnKkVwis1WAW/XVeutCMre5N2+b/cjZht8EPDaJIWXGEaEcVQa05lqyz7nKOV9zLZ+vV/kgkFnlWceBo3BnFuPIyVln1iw3dB1wWctjKEIkq1aVHNiqSbM18BGqS6TbQeUgLQXgKkLWQlV0vA2CAZYgoFrVQkR3YGxcdxGe3aHBN7XQ9S8Lra5t0ieIGlQZoXsED8Vt8NAREYfI0PBNcPAzaOGIw2JyNCktjmAc5LBzzDUW8bkyH5kj65ZlI9e5XqiwR+rGPLCGHPDgEkbVcw0xc+AczpqRTiBcrgU5ASRUlWm61syy6ze2dytmmuyRzbIahifdlbIRIQU8pDQ8V3l5uSrnyrlenufpmssua5URY7yez+ARUbhzvdaya9rNKUdLzwOkVzTRrp1OkV0kKZV5oEwCBaGmjYTVpw3SFnljgK1WDIWtoS4nVxlNYYqdCn4LBP4bijaDF423kTc3qITFYHAUj4GgghIZJlliSK3BGkMxIg8QQLDERAodAcYgRlkLjvt5nLzHxxn59DyEwywpskSMqCDEDDiaf6eHQoklZHlUppE2sAzCTANg5qpatSpzuip91e9aqGN7KywoQG32nafUxeAI9EgUVxUyszKXK2fmqpkryzkBma5krXNN6axXMPMZbBnDzr/BQadwFy1KzO402IASSIAoqLVYCHk5mZgtdSkjChbEgNTcumhzDBkaOyFqhVC7J3KnQZsooy6Rw6ZjdkdPO/h2a9ImUSAqEPIQLw2S5ZIUNIkhhzK4pKBxiAHVlni0HitRxUqxQhjCIIfiBs2gC4hBOwIRjNAYliSJClZVQJOKGFXuBqrWJxbKJpgr01VrVWav9NW/14V3u6ou1kNX3nHlhZ3qo3ZpoLIlJ6jM6uy9cOFzGHQhZ6bW6VOeM4aiCgYSCA1FQDepGAc4qBAyGAiV126Uc3lvhcmKKhARaCaNrfd0MESPaLm0NEiL2vTnZrjcMVWMPvPeWXDzZrhojLZk7k4GygyRYlwxO1RD0UiOsijJooMQ1tYhVaqrEURLKIu2ApCznEaV4IAjeBwxnwpg0GaAGIERusc4xhHHESMiRmkNHi4uYGSVUSw5Cm5eg2a3PWWVy1XZPZmuqt3AWaiqna9FbQAiVNOUMNrfWMXqo4tsT1C1m+rcNQED4SrXqsnTTy5ySHL1d6mICNVY4DJv4QM4xAHluw8qOlffnQfVpx8utURCCKe734oJWtKBwYFd6MhqnTA6Z2nRzhumXpha8eZCd2GxCwTNa0oKkIKuwnmIQ2IwjLGTopK3/NKeq60fLkFULddapqmbdBdbaZeoArqu0EWUrN41DVoDODSO4/g4bsdQRKRp3xc8qsaaWSi1/LttvjmjmYXwSpecbqV9pZC161WIpgJqIUy3gUfXHWqBVZQgIc9MmFW5aGeVgKSo1AQCLKKy5pnVvbRcV3R3hFYqJdQaXMQ0B3TDvHEXDMVEAl2ngOXKrO0lIq0Q5cCBErVMhbKc4zboNXSsXFBW5nVwgyY1QlBAzdFCEYzoyhRpv8WloqJlKAw4RoBwi/KPoZsgBaoGHU4lsDKN4mSmz7P4jMojGMWzMnMxjmPcx3GPOITB6apMnLme63zN+XjmV575bOWS7ndHDR1Dnx8xdIPEc8279dTAGmVk1SpEmDQXKGE3Uq9iU4GWc+0yZHXILlp1BalOIlEoZKOT6o7tg5WJMmsagUxDa6UCyCJUKz3oRMbIqogyA0EtimS5DkX7K1YGfGDBmhbKoSXDHl0fkp1SkiV7JkLWzqwQ948B4/aJWXWXCkIYRZrpXCsKgMUAkoQAQXcEtT9CiiZqq7Bbavpke2yiGjEyKBQRQfh2xK17JgfkzFw5HVqV067518N46HWWxcq40RPAOI70nbWOEQVloc6s14m5vHKeyFqxqlALR4OzccNBfJr3IDwQ44byinNZY83XKovJJXf3GVygVy3Lqwx6cRUTZUtmuoGIIVpxyRzUNLF2ISIKAlDFmlxMrnVWICs5vFZZqlwYwspUhCcG0su6qcocRVA1POxD5CAHMaxh6oDlgoe63a015KMppRiUo1BVIfEWH8dt3H5+3uI2ArwllsuZsBPJGpUH51G16KruDemIvVhx+WxvyrmMAqtJtNa4JiIYlwDEHAAyJEaAiFCVVVhMOufrrHys5znP1zq/1mn5dSD0QOkYeJV/iNDwZMGozKqTWDAU8TEO3+oFnxUYx/g44n7DEcdQHIMhxoHM4gkMVI60a04woLRoVlYYlZmusrsFarkziD7HZZjWhkoUES5Ypkx38u9N6mfVqt3mWjVduZEccrmYO/FKo1sR7JoWhcXqOnr3j40tUdUueIBlOg3Oro90ObGppSDjkMsRHMf9x/Hx8fPjFrcGIUVXrXOVs+MZVkawFmcWcjnLiVlVrpUjlCMY2sVJ24kqdjpmSwNjIG5BG2F3nlR0V/GGWW8xQ2XNqlrlquXKqqrpglFDg0UowCM1InfhoApzYi0XZAzjMAsDSitCRZuezhISHOokwAt9IEdlrqqw8yCXS8Tq9LeShXT7cG+JxKW72eKZ3bvRpTy7PVX6ravplGr1aalOsEutAKeXi2BeLZJybJEPuTskYLPAdOs6ZNOJQoH21nB4F/EkB2IMiggGFEIwhm5Dt4DkMAYr4qgwHSZtzFw0XlhiFOH0ypWzEsbkUHSbZ3CXLKsqUdlVCAIRRx7328iKI80IUErWkMIodXcYClmZlSsXXGAFHXJXkpqnC+Ego4qVWHRX16tqzZqrXnO95nytfK55znm6IteqgiBB9yNukoY1Vuaqudas9RqXPtNM0nZ1uydslMmeZlKu6hrFpvA2VY9OP9ETFKzs4mIUkrv1Tdw9YqirztaS5oKN3Dk19jNiy+s6qnfJqAprYQ5Hgd3qkQI6fvrSj5niEYxRY6cKDnVxpR4488tkxhgBjQFYu6+UznQtZFWWc9Z5zud5Zk1XA+GICLGLeFVeWemqxtYSj/FR6RortNAxjBiy4sZVa0imy+puk8yZOUoFCDcNFg8MhH0cgqPstUzMXEwoq5w5cz7P+Xw+H8+vr+f5dT5e53y6hLjd1uk5uTDo0MqBcax52nXOeZ6PESMi01RXCViZUqspVLSkzOxSB69Ky9WE1vvcOq1e6exK7vZSXW1iYVMpKpgIYx3CmRawymwdHpVwgG6xMhhXHTCrmGvxnGG7h9nY6qBR2IUDAmc0PzRuHIyuPJ3iGTcM3bo7ulwfOiriMz44FjnS5YXEmjPP8/V8Pp7z6Uq79YoUxwYWzvIqV3VHjaiITKK8YoRmeQm2fQvGGDjuCspaXsfSCo6ljPmRw1HCwUPS0VUTxFirls8617nKOBeQq5yYuc5zvs7z6/X6ej0f5+tVuWZBKHp1eh+PxXg9AxpZ6VwLZ9UaH3dmHeT6ym5VVrSgy727mPQm4DMBMLo2C0ObrzXB6n5cFlC1yCE0xVWyXGVq5VLcyCXdcj2OiMy68Vg+pU0R2DUYYcEDMKFgROsmIC4SKGU5uarAnsUkdO14JtbiEXNFCINDRMmBhXXjyFwRY3J+xmeWPz7+KOA+WqOhlYv1es45X/k6C92YJldRsfXRttHSFTd4iLh5PTGTJEM1ZxQtz3sMY94+VDniOM+FMeox7z9HnPx1H+NV435DrSO0XnUPTtX0OR+Pmd03hkyvhSoXkGud5/m1fK6aQKaXFMxFpes28+v1lzEfcYjyK8+7j/Wad4yP+895nrP04RlhJomMQg1qwfJIVBCVuYPYzvuBbOrKcJd7d028Wz+CAGIrI1u44sPgoJYz+Llch2KKY6rpYHMMkGYwrAgD0FCQIR+RgzEkSd2LJVYXYZttQLc72fSwTSUKYMyaHsNfM0Wcyg/Vr/lfFR+vmQfHlMFDpFReZ82cM+nWLUZLAHNmUgxRdclGWw5cTGA8cxpyLrb8S3qtGtLx/NO4R3rK8XLd73/95z9DOv6KAvkXDdxP+3P4fGjQX2uamXhPAFl2mk5n5qvWc56Zy9NJoNap41jWyF+rMnG+atxTyDPr86nH8E/exh+ft4NadZuroEqzapW5qqoqa1UlkFnR3UEDoZBll4keFOOspBnRG2qheZ0heVgWXTU9dbICSFSkFxPTpcRBD9IaQVa3oan7TSgFhkYcvFHHMW7HYIRNVBWquHvNIQ6i6EhZkMKE0HIGvGAco+wBLYC3YxIfdFKD6Bdo1EAl0weifHWnXq3EW2tYx3vySpFwRGvNKrG4w5HsGgAqZyn565aRyOTwnCqsVa9UYgHItaoYr4ru/chIl3gcjCbGIMKRwFn5zPMxX2vNNIxadNhT4zCR4RUFlGfa6fxzxDH5HBj/8T/+w7hH4snqgW+oPF0rvWrWOpPVqoOwwZBD4xI9oHuELuEHddF1ohFHkI64Nf9Ra+7ZHxJcE8FaSWCejoOu1lu4m95kJqgRLIVCPMY4IsYYEUGGje5CudQexdEjNMKVVrgABfLMivRqlEMerJURPgsjlRxHT95p/Ig1z4nMTJbsvETsgZaIi814yLvIgUa6u4RM9NgUMAYxvRt6VEdxoQW0hbNe9fLMWVWvtbwGFCF5bHmfbkf/YkiCENN+zlc8HhAeLyKzSk3FHIzjiI9xux9H3GOwMurI2xo5Cg6O//E//+fH7R8DowLkXVqwls9l1HpWVo9HahENIXBw91ywKi/aF+6gTYqjxXI90GaMgRbHdspsHRHZ/Y+2cSIbLQOw01AXldfmDba2izFiRJAMRZd1ag8QalszpKB6skkBWW0DuXanDG3LB5QQcxnMYLQcOXZWVrlWVrZAapdXAFm9hRxSP713pdBVW9jUvZMsIKEjaGf3kt6AcyBgL9zomVlr/povn+c8z9P1Io+bYoxbiNQROrT1KUFSYDof5+vX4/HnX//88+vX1+t1nl1pi9vQ+Dj+9vHx8Xk77hFAKb2QetVURo4/fv7xj5//ztu44eb7MVwZQ7UWkisLDqKrLowRYFHac5acWa60Udxq5W5WQ1Wiwk7GICwO2wHV4aibb2tA5dOOWg3aT2DYSYa9WpwcVLXap/tLsOWULUj197mh7S2B09bdFxbKuWyW040IjHCs4cNYpDIxRk9VGj3aD5kFZ3oLeQrFzfW08k/RkqeWy1YXA7r0QowiouvSEbaDnCgJuRiM5JIinWPh1+u51vl4nfXyOaG46Xb/PAYOHOPAwEBmZy8kUJnP1+uvx+PXn//455//979+fT1eq9ZiaAzd7h//+OPzxx+fn7fRAv+5zlmv81XP/Gvc43a//eDIW3x4VODTkfJn8uQxwKm4EdmemTo6FW5lQ1ZVpjAwCBBuNVbZyFwoOnocWg0dYAbvhUkfHyMzFevF+sNxCkOeowaYUqQXPBi7QtFV16s5oX0mLoJly2VtKwbB3UXXHJBZWd30OI7hTKrbcy7izYjQf0vsW7xiUC2I64E2tvdgyavDpIdNbPPasuoIubqdshREOiWsCQ6mM6i0g5Hrnj/X+ThfyHM9HUTcf3x83KQYQ9RgIM+VK9sPVfn29YzbPcYB2j7ux2vlKWHcjo/bx7///e8//7h//vwM5HJkPn4953P8a51j2DrrSzMy/4sv4hgq8GBVURwYqCUrR1YiXELUljxA2HxzXGJRiy2BFoajVZhJjoSHR/KUlTr9wskXs15cx1SOp5ZWrGEWFoDiisXavZRFb35rz0nYOL71brth22gp1O4kyhyCFcGWaIC8iUTVAArRGklUNzEIV3cr9uxCUZ0jdOm7WoSPa4YhGJeymhSBnv7WivmKaOGnjKZbSjlAitMLOA5P6KN0Toy74hifZNwU9xCGJLe5JGLSWWedvCNWWk9z3Y/iqucg7R/Ezw/9+ByfP+LHPRi3qvn40sft9MSP8xxzPv716wXTZpVvVIm3ERZvY0ToOG4I3TwiglFmMKMYjC0yVCsaWuX+lhxHKyEXemAI8PJLGScmS4Xl9JkZjBfmyLE4wzFhVaSLQMLR1AiduxUY+8i2aLXrruhif08YysieiUVszIj+LKyEVbKW3IPpbCCMdKkHodiGlXTsB+ae0TJAENlylUu3jT1jqGu/rRnYD7SIaHUnubCUWlVwzZrlWGvmfD3OXzPzr8pgYI77j/gc+alD4p2C05Urc1bVOtd8vF5ff73++vP59a/X43E6Kx0yBeOFlURlJnFmuvia83zVr0fmyLVcZ6Je5xL1QoyBimAcvH3ipiEED0iooJpMJICq2N7q4rl2az02b23bzWzVlnWvbikF3JLN5aUknFEup4qFUrqqS47JqxVsO+WOhFcP4jU/Ys/qLANYLcJWtyShOwBoTycWqoXxes9OQiLdpY5+kXC2sDK630JXuw5gNupp2V2z4O7yUmfLdM9qcy6ws9Xps6DkC2u8fE7Tddasr3w8nnPO5ytzhryOn/W46X4cId0+Q4eNWqtQlTmf+fr1fP755+Ovf56//nmerx48qkCVc3nW/52/PvzjJlcNzcdfNZ81H+VzdLmGK9u36uARPI6bNMYxbrdxO24Rh8axndbuxGkW2nwzmI1VewhKhyzvaQoXIJJ3kaI7VCm5Wp/ekmO7hVFSgN0X2M51H9Pvz7smgd2s2nXqy4NsYYbBnXptvbT3z5S3apDm6nHYzYL3+DiXsyF3mH1GtB3T1Ta+xZUt7wcay7cEgGWjamU615znzPOZPPGqQqEeZ6Vn1XzN83XOeZ6nVx7CeXy9jkPH7Qbz9hFxEAOurLXs9crHn49//Xr8+fXX1+NfrzldDmncoh5VfsHPnJ/3+UElx3idX/VaOV+sGsdxaIhx3IRwHPcYPEbj9jGOcYzjJg62Ool87xNx1ZaaD8a1596CD9fWp4G66oe7qtDTPnbh+Jr80a3m2nqnLWQErl6Btzr50hc0Hf7OhHn9D7s7tz/3hrp7UEBr41vLh93vTtDY4KpNs3qvKDOwHRV1Tf4kfwP1re8obM29nek5Z875ejy+Huv5mDh9vlxhf73WqtcrZ53rsRZzvWANeAweh0Ycg47jo7vUAMzKrMozv77Ov76ej6+vr+efj7lcCMVYGsHXjPM8zvP+4/UJFRUzn5lcNadrfNzv96MhhxW3W1A6QuKIphS6f/wKsr0KvbzVzc7e+hWiC0BX/bDP0G6J2d0rGx8BBN/ixaubwPGWpnI3/l+q841/eid5GcQ+r+xkqesg2F1+743eG7j7DrejaE67/7pe1b4xoLd5lVFQajC7F3iERoxtNftdGLarspYzjYILueqcMx/z16/X81/n4zkx/fwytObzrHz966+zaq1nemBODCp9jzHoGNTQcXwcVATcddKV61yPM5/P5/l8nI/HIycSokZAg+caM6PWMfOLBQRznq9jKNeDGLfbcfv4Y1TxGFQcQxBkqXnChjDoSnttySwB095jFPsM71iJLVfaJcE+zuy60Cbrm6XZLTw9wahH3fT0r5YA6dvv76O6LUd7269vYbdU8friu/nk+mtjM4PtVHqCwY7N7KlMbEfLqzOiWvBAcgFEKFRH+NjRoV+Zm8vNrJy1pquKiUSt1/l6vXKe2Uu0qjzxWmt+vR6v8zzPX+lD+XW6eBatE48QAY3guH8dvO3R73RlnWc9z/U1z8frfK5VawFCrVWts6pQvITzkWOVP5An5/lkVY77UNxvOnSEW1NaMEeBdGa1p9TlvPbQDOw24i6sNKIiAHT7Wc/Wa1XXNfWmwG5Mg7Hn+vU0pKtEIVSVsFsScC3/rkBfvrmfbvf77R3le739HjOxj9cOv+r+5j6pZle75Q0YwIYhAVXZUXn2SczpVQU0mIyRo1DibUB09NmttWrmnM+ar0LmqQUjT1XWRPjwqEEmjvxaicfKufiaPDKrMM56sZjIAXpNq470sYJ+AbHHylV3gdfzNR/nfOVZwPA0xvI6OKI7u9LHWMVcT66yKE8/eA6ROiAbGRA9bBSrslWNJCq7ZOvv6SotLqweZ7MpgG5tqB1jsWv62NNb91xINroRx0ZZPRIYm6JoV0lyt4HvSFoNysDfDmhvd4s+LgCArQH5jiMkCtnzxCF3o9LV1uJd36StvLIDF+RCFe2sPBfSswI+1qh118eHaByNPapchSw7hTnL60xmlVuyghqHCP1YdWo8JjSWVyIQEbVymao8s1TzTCTPfFIVpSOYJ1IGkpWr5ulZXpWZhfIC5UXyuWCEsMzwecSIETxuzDPrI27AAAdxQ0uY6TJZXgZQs6ob7kG0uLz2oJMNXJvCgxtO8sI1VxemW/FNtKR1j0XYE3e+4zS2RnHrCHpfvCnKHSDfmPn7oXemus8q37HgHa7fNHUL9c2+mmVLgfp7vlz5hSC3R+jXWXSxVtWateaJeTztF5RARhw9dCXI3Q4BLDJLzsyqnLUsrpoDsY664677QlCfyH/xlY/68lOTVOa5mJUdAMuMWe7Mzd5DKtmDDFmMdCHLMmep/Fr5NfmR+RG324fJMQ5CISbBYdLlBFCQkLMp9PbAxT32cnM774iIxsnvWOiNr/ymEfn+6E6Wa/v5/oG9XXta9AXL3+fzt0C7N+9CTG+wtHeI/N59Ykf7C0/t6bUbM2/s2yqU/XLc3WRgENUjehQD5ijSUTwL81wzV70mvdpgbvfP0AgqgsRNYmqEllbOrHMSQjE9sVbOQviuqNs4cJ/yffGJ/Fh8aA3NWaKfma4qZw/Trr7ioCsq+0S07Xebxv6G1wkyc+XtFXmbVoSCOkYMrzqGi6uqbC+QXO55WXU5v04eSfY4yd+84bX8fMe7N0DGb0lpL/rmJy7c8949vx+uqcbLOeA3GLwzHPz2Qfy+oRv78kqYcXnz987vLzRp0aM0ru+w0+32GhJsUVFk3FEVVaXsiOuc5/M54YcWMn273W+3W0SEDo2IAR9rzBXZdxmE9ZoJrLXQEkZm3QxH/OHb+KwfM55RH3lOzX+9cF/rlTML3dezCuibVjoP8fXepD1ms3YshI1zedU60xGrwDjOCJU8KrnSrnrNVKGYLiS74UN76kvLNCqvZHPnMO8jgDciBq4YvWOj37t03eTQqGe3maCBFS5MdZ3W39Lmt2FcVgCgq0zARaXgnVA1RsOO4puC6DuUaHaJyp338mJWjU167pKnFeoX45EuTTOTuV65Zvr1eNS5zswfn5P8CX6EGNFN24oYWisw8lDE/YWH59R8/WXWo5btudYYBwePIG43fnAsPT9GnDlfa56rXp6vtRbyrJV7TLQBVjGMshiorp9vKigOG2BOu1Z3iVqp/PDo0mE652mgKPUNJ+Ylaeihsn3hBKA9wbLL+u2qW+Tfh7TRDbdwC+pvSoC1EZSMHp0h7VGGdg+l2OMFiJ4cuR1tO9ft+C+Ut0kO7JH0RLPGF74u+LpHhO5GrS1aKF2W+Q7H1yUzrUWIQlEIYFQVPYEx6oi6hVee5/P1ms/nei3/XK74/ImP41YjjnGnC3Lc1nEg84Nax3G7Px9nfvrXY3746/mYWDx9cg79Yb8ORB3xI3gYWrOqKl9rvs7ztc6v53w858o106hkN+KjoqJWFYZUdOhQZQMohLP6hoYZjDNGzrWG8pUTFrlm7RpN7FVrfwaDSFDX9EUCqM0eXszDFr7uEK16DybsGTotAC4UtiYRzSrC6EYW7HEae+86LntTUPsItz8wwKv+48tEGvdvnLYdcNOPm1UF8lIU7fy+cKV9exI2RAvX/S6UWRoaHqNuN+TCnJX+6/EsPD7PPz/8+h/+R/3t3z4l+2DEgM1jxMq0Rpxn+PP2mPP+cf/n6zEex9d5vp7mGovz9cIKIZNxk2Pc/w62RtAzn2ue5/nrMZ+vc+Z6vp6PBx4nVs6ksw5zZhIHV1EGE4QXjDWXRx2Tc9RI5FXyUWuVi6W+8ONCSXtxxXcA/B1zdoaETTf0n3fY64XeR53arARgcI/EtY1rPC5A6kqcdqT122Fjx9vLW+/z3Wf3Cu1NTu3H6t3fpcZ9wHmBbAObqs6Ovdxgq0HllmsrRN0lCSNwgGOmOc/z+fLXfFmxKkD++Dt8jJsZA6J4Y4DhuM31uuv2ekb+++34NX58zPP58TzP9ThnWc6VJF6EUuimphuB0D0+5jh+jFU/6lXr8Xx+fTx/vZ7Pcz5y5VmVemG3LZBRkQBHHWv4QBUHBsdw1lbJVN+ShO703QD4Aje/g+C9drgw0t7ya4YBrnD2BkSdr7Jax8Tfmx78LjAZbu/N75+48NqW3F8/i++Y3CntPo98R/7Lv/dT4BtUX6zq++v9RHXFl9/wenvwdyPxuF0mkwtVYT7PXM/1Zz2MP89z/fy3uuXH8fFxx4GQGEL29T7Kw4XQDYh108fBrzGPgFDPs/yqVcCsxyhlrdF6qwiOuMXHQfvD+XG///z48ffX67XOZ53nc75e5zPX+Vor62kXQh4r6ki/pRG7ZLEnOZJ4T3uTOo7+xix8J58bDH8jLWx8ur/6/sb14eY28d6lPe+kasfIfVj9hse/249//+cFqP7bs1+v89vu+P/7a1vE266uIP72ALS/TWc3qrTDMehoxUiHmhIcFa/X63ye5/mvf87z8Zrr5x9//Kh/8z0/7gdU6PvkZBpjyIgbEelDRCDCRndrMiudzly1uTYO9Yh+kQwPiKHbET/v95mvs9br83w9zucrn8freebIlahFnuWcZ06qSY1RKFZTji2NuGbAfdOB7Vcvh3gtym8n9X1W+f3X/vkNw7wfo+9F2eu8r/fydqXAb0d7d6RcHuQ7J357hf0UeGfWPXRls4/elOf7QF5RY2fdO5d/4/PNkr9fOfafbuhovbND4hBu/PhwWjX+grCe6/X6ms/n1+s857MW8o8P8eeIIw45aS9kdRs4yGCk6Dh4wZzAZLxOllelrbqsjqsczp4PYoBUBKTbkePg8cn7ecvHvD9e85bnLD657idegWkv5iqN4bwOa2VfXPZdlHsjG28Kylel5qro8NqIDX32en+bRP/yzlP7DH/nsN8JcqdTdo9XfRd+cG302w+8qY93pr1HN3SkvaJ0E1HXz74rEXyDs/Ycjev68lNc4+N6amfr+mqX8HG5KElxxP3jBjEGbzr+4mP+9a9f5/NPf535OhP/nn8A/vz8eS8Zh5TO0r43ww5TJO83+hAPxRHPY+ihI+dctfbdVw0dPWciTTWipVAWRQ4e44j7J27n7cft9TPHI/Gr1hrra2JGPWuOOWJAMt0DRPq+ZvLtxWqDmHeuAuJ74vemMnjxWNzfqJ3U8BoJuifMgai+HjjBgAvibzSlrkk+UBCuviqOv+1w42t7X5i971PbkK7JTey57fvuwp7xX0bsO7kM9IT3d4ZXdY2S33Bvm0N48+2r3YC2NE+MMY4P4CPG/Taekl6ey/PP8/HXmYVZr7/N1/r7/3zV/Q8rP0KWOxzTAeSwjoG84UjdxrjfPv48nj8+Xq/nOeeaK9ecdhm1KrO7S52rXD6ia9NcwgFF4Advecfnun3m65O3rx/r52I9X3/ONR98jICOcTM9p7l7cJuy6ATjYivwvkEZ9DXMv5eZfEMhXoUcYic9Brj7d5uUbMTcN/1Vlz28a1LcMNvVjER7CPsN9XpATDcVeo917wFOnTZfNxRXEWouo4WMrurcWYz2IoU9loTyN+KDUe7ZzbWZPO4CRe1rw5IwIwY57CMoeZj/W8fx5/g6X399Pb6e9cw453n+e/7x8XN9Sj6AFPeV8HQwUMUcFCN0jvh8Tn7GeJyvOXMGX2uuBcFEZrm2PqmcPWySGbI9gdH9t1O8/bz5qHvl5O0HP17jo/5rcMhkd4GwJ1zq7cJ8jQXcGpj2vd7B94IgzWvwzQOij/s7fNb2yhc5vJNlV3vwumDrzqSwDctv6vECwm9I8EZIb1/yNqgrRr+Nryf8qwP0PuwwudXsV6nT6KpV5+TqYeM99Z9bpuLywr7sShKNmzhMZPLT9TzPY9Zjnsbz/+A/6/mHV+bfz1o/xq2GIlBjHEFWcKurzWMMUIoaR7xiao71mus4jpVnns/59LM418xEqicUVpWknFk0ExNSloLy4G0EchB3/Me6nfAaTeZtgPsmFvcq9gnqWsHvpO47hALvmhHfGOydsr6TjislQSep77ju63SKVxTfrOXe0uuuhN9K0W+wdb2k3770my+/MP/7dH5rAvYXNtN+3RlSV8Yt0wXFHl6XYVTPrq4mf/v64c3iaMRx3NfP8z4/fjBT9PP5eD6e/3pUms/H69c/Xn//uN9//PFRwoeoYPcISSpUYDS7LFMcB9eIdVu3XK8Vt1OvGK9zvtb5OnOt7cjWytkyx/b+rigqUK5hV8+RjBG4j12yKFut/DbQC+7vzepV8zvo4sqJ97m8ztp7ufmmJN5j8fZ2bWrM3+nxlbFdH1f1BFcui9+Q7TeG31aCK2ndkOwtlHoTYb29PQPyO+m+yHv+xp3s8pj57VO+8z/7XYPZxiUSQjhux60+PmuZ5OCAY55fa+Y/f/15/vq61zNv95//WP78pAP320H2ZZ+4vIwEIG5AhEeMdcyR41j1cdzOYz3P+Txfr+M8z1p2nTnnMhOFRO52+hqMbjUtMDiSGYPHwC7NF6x3gnI5yF5qv3UP7YN/Pxrfe7NFMe8ivPdO7cPztovff3u70ivZNv6brfD7J76t7F1VeRNZ3777SoR+f8RdiIGrWojeIvq+xnI/3nca1htc5WJeVu3rY8snq9iilK01CQ3fbj9gh48ghHHDL0ycr/n4tWLhrDim7ZmA7iro3py8obdsAgK7n6sjnjyi6sjbvW6veT9v55znmXPVOZ7nFF8zY71WMrdqpm+RK5B9TzODGj0yjQd0po0qjGtpq5WH7RS0R5+8Rd+/Rd1vi9+L1QLja9AdhctB9tWb1nV69/qX1XfGvflE7D3S5qLx2wZcB/d60p2wd0HZF6Gyawmd5dCuHrGq3QO3S1CVGxPocvR7ZIX7erAL5++JEw1tUXKJw81zuRgcHPwbMXnI+opR+It/8qv+muv89XzU+RTX6/Xi/Jv/bXr9vGHcAhiuRLlaZ6RiuYs9Pdhb3OPAx23cVpxn5Xqdr9vjxWMc5/klxkSP9j5XHeX14dvpJcSgiDU42LPIIqTivl0G9R65CPm6XWbnLdg29l737cHwfTZ7NTYd8kbf4Bs+ceexmy6pazLPu57fRPj3pm7n4m8H7W8f4t/cvPnNTXfg9ndtDDb2TIKLtDawxybtNLuPaW7u3LsCBnbXctVODmoZoxVeQ2ZEcAAaP8LdLfjgf1p/xPN/v158+p//9X/y198fs+a/f/3H/H/i3/CBO3ep1EY3rBpbhtq58jBMJ3EEIlSKrMmh+/hYz5X3xw/9eq6P5/P59IxTRRynp2zYiygdw4Ux5FFeRqcHVLfJafu8typj49Y29+tyJ15X7/Ab016I6BvSVF/c4c6xrri3awy9v1tfjm0TvVlvCLVd5f7qtatNnmxXrH7oy5TqPY7OgKrwhoH7FdtXwtUO57cSNOxUD3WkgiJDdiHrerUN7msHOAZhlmgNfXyMwQ+j/mfW//3r/B/149f5nK/86/zXX/x61b348Y+qn39bt3GPMYK09iQoq8LBPdKoJ1ErAbBuUJSmyPAoHitekbfDz5mfQ1+vM+aa+QrE13pM42OcseZwB51rso72dQPYM716n/a9QRcy2Z0ftS8Qw5ar/fet/f1g8R0JTbpqK+E3N3ZNwd3X3F2/25CP79/87TDvB26ec1d/rufmDvzf3mU7kw64F9HG7yYcst7EyeX/ieu2OFJqJLJvut0GZVwB9AIbHWCkEQcGb7dVo358LE+tD7zyPGfl8zFWiv+Z51znz4/PH7f7rSdMkmZclyZcfzUeFQkehq2MEEiXgkXFgiJ0anGM87leM+Y872PAZSQYoxeM18RVkNY1AHlnP76yR1xncuPf/oF3DnSlpL8h799ctnejx/6HXZtaJK8C7beJ7Frdfw/u2098gy5+o7r//iP+Dcddedbey3cg4fU2gCsz8+UjN4i6nnCjDe+K1bsIdsEjmuiBf2+ytu8UPGLU/fMTRWTNh5ZrPc6FP/9rztfj+eOPv/38+fnH58fncRsjDg2qOw2ut7m9ySVYU4NvGgJDZWiob5UlKsCgJ/NchxpwRI3OCjaccm2iYTPE31DlTSF7p7NXYDWurGc7Sm7W/hLX4gp1GybjcovvS5G+g/m3BYHv1OftEK6D/X2Kv7d1Fw82XnoXpfjeJH/nWu+PHXvsdyjYudDugtLbnrewgVcu0LWJd3DYT8wLG3byo7jFqGP82Dpz6Auvda766/XX63x+nf96zT/mz3P++Nvn5/12+zj61oXxnXboUspcT9TPv9ONIXPDgPAI0aHjY+CxIkbl9Iqz50WD112MpabH2j/sbev75fD2lT1b9SrJ4J1s4Iqa35TCtXJXBfZ9/nfJrnu/thXshbngWRvWdWJ/g2UX13LFz7dbu3yF3wnWPp7XE+Id59FB5oKLzbxtALgTA3pztXabbkcqw+xr6d9+hOhBb9wECmkodI/DN5eQhv1KzfKdfD3Wes1Vdiyobobpv9kAPvuCBIXAfd0846ISbaPbXPtVluICRKzjFkzoINdt1CBrnfWixyvz7oh2nzH2vcjX+673Sdqpz37rxE4D8R1I+V7MDh7cIZVoJM5dLtzRD3Q0LhKbNdgk8dU9fwHvN3D7TRR5HdvtVXjtLvydi4Hew763niPIdIk0UgxwX74eZKbJZmp7WXtYRN8TZb75cFJSm3z7wItpS4Lcihi7OIwqHTGowZyuz/Sp4x95/jXuH6/XrwMqrTEz/PLrEz+i5qgbBw1kGwtlXo0adKFcq0tcBCRUWoJHHVzpDLoy73eWfZ/znx/4eL3+P0HXjbfqZlKOAAAAAElFTkSuQmCC;strokeWidth=2;" parent="1" vertex="1">
                    <mxGeometry x="685" y="100" width="160" height="80" as="geometry"/>
                </mxCell>
                <mxCell id="tvCu5DKCvv_bB73sExrc-17" style="edgeStyle=orthogonalEdgeStyle;rounded=0;orthogonalLoop=1;jettySize=auto;html=1;entryX=0.999;entryY=0.534;entryDx=0;entryDy=0;entryPerimeter=0;exitX=1.014;exitY=0.54;exitDx=0;exitDy=0;exitPerimeter=0;endArrow=none;startFill=0;strokeWidth=2;" parent="1" source="suplfYX3frFjkZ8Oar6K-3" target="ziZ8K_oR1JvcJGJ8FtnZ-37" edge="1">
                    <mxGeometry relative="1" as="geometry">
                        <Array as="points">
                            <mxPoint x="880" y="246"/>
                            <mxPoint x="880" y="620"/>
                        </Array>
                    </mxGeometry>
                </mxCell>
                <mxCell id="tvCu5DKCvv_bB73sExrc-18" value="&lt;b&gt;CE_Prediction&lt;/b&gt;" style="text;html=1;align=center;verticalAlign=middle;resizable=0;points=[];autosize=1;strokeColor=none;fillColor=none;strokeWidth=2;" parent="1" vertex="1">
                    <mxGeometry x="625" y="635" width="110" height="30" as="geometry"/>
                </mxCell>
                <mxCell id="tvCu5DKCvv_bB73sExrc-21" value="&lt;b&gt;Masked Image&lt;/b&gt;" style="text;html=1;align=center;verticalAlign=middle;resizable=0;points=[];autosize=1;strokeColor=none;fillColor=none;" parent="1" vertex="1">
                    <mxGeometry x="50" y="460" width="110" height="30" as="geometry"/>
                </mxCell>
                <mxCell id="tvCu5DKCvv_bB73sExrc-22" value="&lt;b&gt;Original Image&lt;/b&gt;" style="text;html=1;align=center;verticalAlign=middle;resizable=0;points=[];autosize=1;strokeColor=none;fillColor=none;" parent="1" vertex="1">
                    <mxGeometry x="35" y="70" width="110" height="30" as="geometry"/>
                </mxCell>
                <mxCell id="tvCu5DKCvv_bB73sExrc-48" style="edgeStyle=orthogonalEdgeStyle;rounded=0;orthogonalLoop=1;jettySize=auto;html=1;entryX=0.5;entryY=0;entryDx=0;entryDy=0;" parent="1" source="tvCu5DKCvv_bB73sExrc-41" target="tvCu5DKCvv_bB73sExrc-46" edge="1">
                    <mxGeometry relative="1" as="geometry"/>
                </mxCell>
                <mxCell id="tvCu5DKCvv_bB73sExrc-41" value="&lt;b&gt;Apply LIME on the Image&lt;/b&gt;" style="rounded=0;whiteSpace=wrap;html=1;fillColor=#fff2cc;strokeColor=#d6b656;" parent="1" vertex="1">
                    <mxGeometry x="30" y="230" width="120" height="50" as="geometry"/>
                </mxCell>
                <mxCell id="tvCu5DKCvv_bB73sExrc-46" value="&lt;b style=&quot;text-wrap-mode: nowrap;&quot;&gt;set the pixel values to zero&amp;nbsp;&lt;/b&gt;&lt;div&gt;&lt;b style=&quot;text-wrap-mode: nowrap;&quot;&gt;in the bounding box&lt;/b&gt;&lt;/div&gt;" style="rounded=0;whiteSpace=wrap;html=1;fillColor=#fff2cc;strokeColor=#d6b656;" parent="1" vertex="1">
                    <mxGeometry y="300" width="180" height="30" as="geometry"/>
                </mxCell>
                <mxCell id="tvCu5DKCvv_bB73sExrc-49" style="edgeStyle=orthogonalEdgeStyle;rounded=0;orthogonalLoop=1;jettySize=auto;html=1;entryX=0.406;entryY=-0.012;entryDx=0;entryDy=0;entryPerimeter=0;" parent="1" source="tvCu5DKCvv_bB73sExrc-46" edge="1">
                    <mxGeometry relative="1" as="geometry">
                        <mxPoint x="89.96000000000004" y="379.03999999999996" as="targetPoint"/>
                    </mxGeometry>
                </mxCell>
                <mxCell id="tvCu5DKCvv_bB73sExrc-50" value="&lt;b&gt;reconstructed maked image is re-encoded and re-classified&lt;/b&gt;" style="text;html=1;align=center;verticalAlign=middle;resizable=0;points=[];autosize=1;strokeColor=none;fillColor=none;" parent="1" vertex="1">
                    <mxGeometry x="311.22" y="490" width="360" height="30" as="geometry"/>
                </mxCell>
                <mxCell id="7" value="" style="shape=image;verticalLabelPosition=bottom;labelBackgroundColor=default;verticalAlign=top;aspect=fixed;imageAspect=0;image=data:image/png,iVBORw0KGgoAAAANSUhEUgAAAKAAAABQCAIAAAARP+ljAAAAAXNSR0IArs4c6QAAIABJREFUeAHtfFtPG9m2Ln9gvfbTetoP+2E/9ENLLUWKWmq1FEVRFEVRRIRACAQC2ci2bCOu4p6EhIRwNWBjwGWX7bLLLpddLpfLZVe5XL5iY8AQoJN091p7nbN1fgZHY05DZ6119u7e3ek+6nOwRs+edfGF+uobl2+OSsutu62377Xeugfj7XtPbt2FOdr5BO18cvse2NUczvnR4L3NzcvLlsvLlpvX73AFLi9b9HrDADKDwWgYMBrRaDDABJtBP9D26OE3X37Rco3Q1QQw++o+2O37bV/db7t9/yNEr+CE/TBvQ3aD8e8Aa/MrLi9bBgaMAwMGg8FkGDACwACqCdmPABsHDE8e3n94904LArKJaBNODB4ADPZVE+a22xjsqz14/8fjDYN/a5yxmwRom4agNZqMRlOTuIjNRoMBGHzvm7a7t1u+etD2d3a/7esH7V89uBoftuNNvAfm99u+ghPQfjy/DztvXPRvjW5LCwTBy8sWg8GMEDUZjWhiNJkQxj3dvT1d3T1d3b09PW2tra13v35y51bL14AlwAn2EFlz3tHcRBhfzTvwmRjgrx82N79+2H5D398aYIyu0Wg2GEwmoxnMhMxoMpnMZpPZDDtNJqPRaDAM6HRt974BgL/BoP44dnzz6No6v3nU8fVDvNn5zcOObx52fvOoE+2BCToTNm/o+7uhazSZjUaLyQRmNlvMJrPFbGmaBb3MZqvZbDYaW+9+9fjrL1s+grP9ag7I3XncdedxF6D4uPN63tzzCO3HIzrnBuDfB2CEq9UM0FrNZqsFm8VitVixDVqtg1bLoMVqMZsefXPrwe0vWu4Afh3IrrHsvNPadbcVAAbDk9buu63daE/3ncdoApvdd1q7v3nc9c3jrhsX/ZtijClkMlktFgStxWqxAJQAKJh10DqIDG9bLCbTg69v3b31ecudR50I4+ux624rml8BfIVrF5oAomCAcRNgjPcNiX9rgJFPHgTiWgaxIYCHrACtdXBwcAgMJoNWi8WMAP7yc2DwXcRXNHbffQJM/dHw5pOeu9jgUM/d1p47VxO0CeffMPi3A/jyssVsboIKxAWWIlwB0+ZrCL2Gh4aGBgeHh4asFvODr2/du/V5y90nXfeedN970nPvCaB7D4DsxnDeawNc0aFemLT14vm9J733nsAedBTmN/T9TdG9vGwByiJcm0QdGsaT4aFhZEMwov9GhodGhocGrebHd24//OqLFkC3red+W8+9H633arMXQL2y+2196EzYg+a992APjPfb+m4Y/JtibB0cHhwCGxoaGQJQ0Tg8Mjw8PDIyPAKv4dGRkVGYD48ihB99c/v+rc9b7rf3Nq2t90F737Xdb++73973oKP/fnv/gw6Yo03Yg+xqT3s/OgSn3WD8G2GMHSSCdmR4ZHS4ievoCCA6MjY6MjY6Oj42OjY6OjY6Mj4Ge4YHrY++uQUAP+jofdDe+7Cj72FHP6CLJ00U+x926B52Nu1BRz/MO3QPO/rhZBh1DzthJ4Jc9+AG498GYQww4ikCdXQM0ARoRyfGxibGxsbBAOPxsbGJ8dHxsZHRkaGmi37Y2YdA6n/UhdHqx5g96tI96tLj8WHnx/Pmzkdd+oed+iv49Y86B9CmHv+aGzZ/QqwvL1sQiIArvEbhf+PjGFeAdmJ8bGJibHJ8fGJ8bHICMB4dHnx85/ajr79sedQF0F7b4y7d4249soHH3QMfTQYe91zv0aNDeHPgcRdMHnXBzkddMHnUNXCTdn0qgPGVnJqYmJqYnByfmBiH18Q4zGBEk8mJ8anJcRgnmuPosPXJva8A4Mc9AGcrjABna88AMkNz7DW09hhae5HBIZgA0j1of48BTx7jQ2jz8dV4g/EnwRhfxtmpyZmpyenJyamJiUkAuzlOTU5MT05Mw6GJ6SmwmamJ6cnxidHh9vtft37zZcuTXkD0Sa/hSe8AtrY+4xMwQ1ufEc/RxIQ32/phZ1uf6cqM7f2mdtiEnU96jdhae02tvcYbjD8VxnNTk3NTU7NTk9hmEN4zU1PTzQnAPzM1MTs9OTsNk7Fha+eDbwDgtisg0QSB2o8w6zd16Ezt/aaOfhjb0AhY9pva8X6dub3f3KEzderMXTpzl97SrYdJp87coTO39Zvb0LtuMP6VGOMLyDhWGfsaY1/zb608m5l+OjM9Oz01NzM9Nz01Oz01OzM1h+zpzPTcDGA8YjW13fsKAG7vN7brANEOGI0dOsC1Q2fu1Fs69YAWjHpLh97cobe068ztOph0NEdLlx6se8DaPWDtNVh7Biw9MB/sgrdb8dEuvfUm5/o1MGOMr8caT72Ym3k2Ow1Iz04/m515Njf9bBbN0eTZ7NTokKnt7lewXNihM3boAd1OvalDb0JwmrsGLJ0Dli5kPSZTj8mE510DVrTf2jkw2IWs2zDYYxjsNQ72Ggb7jIP9xqF+41AfGOzBO3sNgzc8/jUA/8N7Ly9bCmFi4ensi6ez809n5+fQ+HR2/hmezDyfmx4ftgDA33zZ0mvs7zYM9Jn6ewz6Lr2xa8DSbbA2zWjttRj7hkCJ7DUNdPbr2nq6uw2D3cbBbuNQj3Go2zjcgya9xqF+07DONKw3Dw+YhwcsI3rziN6EdwLkNwD/A0i/cvPysiUX2Hn1fG7h+dzC/NMXz2dfPJ9D4yyMz2bHh83tGOBr4uNJZ19vj9HaY7L0ma39VpNupLkOiI929T7sHjD2moZ7TUNg5pFeE1iPaaTPPKKzjOrMIwbrqME6arSOGK0jBuvIgGXEYAXIbzD+laD+w9svL1sUyrn48unrl8+QweTVi6evXz59/eLpxLCp7c5tYPA/vC4vW/otA7rRXv0oyMv/EDsvL1s6e1r7jGadqa/P0Km3mvosI/2W0T5keKKzjumsY3rr2IB11Dg4ZrCaB4b6jYPgpW9en/YKXF62yPTe8uv55dfzS2hcWXy+uji//Prp9Kil7c4tSLL++YVx/c/wgDtA97hX/6TP2NpvfTIwYtUNjekGx3SD42BD4wNDg7rB8f7BsX7rSL9F919/2j9/+82e/9YVuLxsoXZttuWX60sv15derL0BW118PjNufXLnVuvX/yeAf/ILLi9b+vQP+62P9GOthrE+w4hFZzH2m826wbEeI9S+PQMG3dBgvwmC983rN70CmD+2lQXb8kvbCmAMk6UXM2P/OYN/8gfhD9WPPNaPPB6wPtYZ2/p0Dz9m6sfzn/y0mxN+zRXAl3pzdWFj9dXG6sLGysLm6oJt+cXUiKn1P3PRP/l9+ENNo61600PdwMNe3YMbpv7kRfuNTsBYONZfO2yv7euv7euvttYXNlZejluND29/8eirL37h915zFE9+4afcvO1XXwF8/Xc23jg3Frdtr7dti9sbi/b1hVGz7v6tzx/c/vxXf8PNB/xfvQIYYJdjec++tGdf3t1a2rMv7Wwujph0D25/8fD2L2Xw/9U/6ubLf7wCGGCPc9XjXINxZ9Wzs0ZsL41ZgMEPbxj846X6Y84wwBRh839k3t3VCSsADC07N68/9BW4vGzh/NthcisEtkmTG7THFiBsk9b++7c+v/flv/2h/7r/33/85WVLknKyPnvE52D9dtZvj/i3In57mNyYsvY//OqLGwb/gW+Ry8sWMeCM+u0xyhGjnDFqm4PJNkdts76tmUHdo6+++IVK1h/4qvy/8tMvL1vozedh93rEuxGl7Ahaezy4zQUc8aCDo+zm3ic3AP/B0Mb5FB6354efzernp0xWfefsuOH188GId8O5Prez/pQP2jlqS9/58NHXn//5T3/6g/2R/3/+XAyqur0s2xaknfW1KatZ1z4x3GPWd+i7nwz0tRl17ab+dstAx9hQX4S0saSt98n9B7f+7QbgP8ANg9GdHzPPjZqmLPrpoYGBnie6rlbLQKeuq1XX1arvaxu2dFsNnca+9unR/jCxwhDL3Y/vfPanP90A/IcBeNI6MGEdmBwcGLPodN2t/R2PjX3t/Z2tfe2Ph4zdw8begb42fdeTqWHd7vrM7trswztf/vlPf/qXzz6Dv/DnLxX8/DP/AFfuD/ITMYMHDT3jVv2QoXfE1Gfo7+jtfKzv6dB1tem62gZ620fMff09j/XdbUOGzpkJ/fS47uGdL//1z5/9258/a/7DLT8HOfxNP+fM3+3SXf+kn/+r8Ft+t1/4678I/2D9QKtR327o7Rgb6Rkz942a+3Q9T/TdbfqeNkNfh763bdjco+960tN2z2x4YjG23bn1+Z8/Qwz++Br95HxjzvST5/yeJ7ye7JudbjcaHxiM93/m9y4+7XUs/9q/4r+G7eNf8l+f+XOO4k8btjwx6loNPR2GvrYRS5dJ16rveWTUtZp0j0dN7bru1mFDm6GnfdDQNj7YZTU8vnv783/57LN//fNnLZuvJ2wLk1uLk1tLk7ZX08Ta872V586VOefqU+fKs521+b31+d31eefqvGtllnHZvPYX7o3nbtuca+0pYXvm317YW5sP7ayR6y/ctmce23Ny87Vva9G/9cq3+cJrf8ORW5RzJeh8Qzlf+bYXyK2XpP2Ve3PBu7VAO99Qewu0e5mmFoPEKrW77HG8CuwsBFzLUbct6FomnYv+3dfU7oLftRR0rwRdy7zPzvrWeHozEXbw1BZPbbJeW2B3KUS8Ycn1qM/GeGwR7yrrX4+Qayxpi1MbUXJNYYmI72WEWmbIVSG0EyVXI+6lMLEa9r4Ou19LEW/ItUTvvvI6n/vs837nPOmY9TvmI55VZneFsI07lwxbb4zO5SHnktXxxup1PvsYwn+eB3eekxvT9ldm2wvzPx/9ZXueT+ieThjXnultL4dW581L0z2Lk70LYz0vxjuX5vQbCwPE6vCraf3zCcP8RO/sSNeDr7/AX9QS9e1GfTsx307U62RJZ8Rtj3jsjHsr4tmCuXsLzGNnyW2WdETJ7Zh3m/M5OZ8z7t+J+3d4apennAlqTwi6BJoQaCJJe0SaEENuifGlWb/CBdUEkxMimsDmkhFNiOQERhOYfJLVkhEtyeQERuVD2TitxIMKRylcIBun1TidjQdVnlb5EDo/UkxFi1K8lI6X0nw5w5flBIzYZKGUSRQlvpjmS2m+IMUKEldIxYoSV5Q4eIvElTJwqJjm0Yfw1ydXlGQ5kyhdGexvWlxLRrEpCSabCCt8OMuH1QQDBn8F/CHwdyXZvMji7ypKMWTRYipakjj08+KlNFdKc2U5XkSTUjpezsSLUgz2w8/jSlK0nI6WM3DOvsLDTilWktiCyPyyu+H6XeAh+CDJB4l4gOBpkqfJJsweB0s6WXI74rFHPI6IB9CNkc6YF6Dl/Lucfy/u3+UpF0/tIXQJIUgkabcY8ohhMhUmpYgXoUurCUZD6GoimxdjeTGqCXBF8mIUj1qSBYwT4SxPgwG0YAhdGtAV2YKI0eXLGQFMFspysiwnK3hUxIqSQnvEcgb2/4h3RiilhWJGKMG7khU4U9zPpqqqVFWlWi5dy6WrYBIY2onH/WxqH52M3gKfCV/a/Bz4AfjOwL8EPlMRq2rzY9EnwHwf9ohVVdzPXhk+EzaTFUXYV5L7ilDNCvtZYR82waoKX1ESFRj5a6h+fpJx/Q/iNd9STFAaR6YYr0gTBd6rcW4tRoBx7gJPFniymPBHPRtyxL2foiupUCUVKovBihQuJ6kc6yrw1KHCwiEpUpEi+2mmJDLlVEQDmoY1IVwU8f3O5gQWCAHoRvGNj/awGlAZ4x3VRBbdB1G4DwDXWF6MFVLcxwYsvLJSOlFKJ8oyULCMrPQjBfmCFC+k4nmRy4sccFqKF+F8HsODkatmU/sIgCa62VQ1KwI2GBJACEDaz8KdUVGECkAr7ANOSTTHI+BdU8WqkqxmAbCamkTWnFRVtB/AE/ZlvgKGPFA6XkYOBjkA5HLgj40VUtGCyKpC6BMAXJPookCpMaLAk2XRr7JEiXcXeF9R8JcFqiqF6nLoUGYOZeZIiYBl2Vo6VJPooyzb0LjTYuK8LJyVhLdF/m0x8a6WPq+kzorCqRY9LfDnZfGsJB7nePDPQlRLxgoSX1HEkiwUUnDdrywGGDQ3Ya5hVOCvjRckgAo51UQR4MQMRoxEpCzLcPXLivjxIcwtzDxE3ybvEU6p/SxmsFRT0zUtXdMyBx9ZTcvUcukDLVPT0gd5+UCTD+AcqZaT6vn0cTHTKGYaJfm8qrwtSxc15bSYOtb480r6Qz37/kD5UFe/O8x9d6R9OMy9P1De1eSLqvy+ln5Xlb/dT13sSxf76fd19XRfPavIDXijdFJIVOTESUk6LYrHavRIjR/n+KPcL2Tw35W+gZ0XYeJlhHxFEwuMd01lt8uCt56m6xm6lg7W0jQArIRrUrCeoaspqiJSFTFwqLCHCnOSjzdy0bdF4TQfPy3wZyUBwC5w9TR9lPGdFbnzIn9WTByrUQ2cMKMi+pYyfFHiwDODcwbK5gRWFdhsAkZE6Gbw08SYJsYQ8MBjdJtDEP0/GVeUIMpeRWig2hXeOFonKjI4wIqSrIBjTO5nxWo2ifgKXhQzFXvUqirVC3ItJx0W5HperqniUSFV18Tz/cyHuvzdofrdYfb7Q/XDofLdkfr9sfqhrnw4yLyrpi8q4vua/OEA7H0t892h+qEuf6gr72qZd1XpYj/1bUX8dl+6qIjvqtK3++J5Ga7YeTl5UUm9q0rvatJ5BXaelROnBe5tIf7LGPx3yfnT1bZXq+2ra717m4YwOaew9ppEHSoMmByuin4McFUCaMuCr5ry1+VwPcMcZ9nTAnda4E/z3InGnhfjJ1r0JBt4qwZPtNixEjwri418oirHC6mYBm6Z1ZIxgFDksomIegWqyNIpNhTykozPJ8fZXJLLJWOaGNcQjzWRz4uQ+ABaGaEiY5o2eQzEhT3N4IrYCSEWrOldJXCngCU43lpOQnzFrIURsTNzxWD5IC/XC/JhUQErKEcFuVGST8uZ8/30dwCt8kND++E49/1x7i8nhe8b2g+N/A+N3PdH6vsD+aKSOi8nAeB65n0tDTBjaGuZ92j+vi5/qEnvquJ5STjJho8ywWOZPs2xDSV0VuTPi8IZcodvC/ETjTsr8o1s5BMAvLLRS7tnRHpF45z7SW9NCu4nfdVUsCbR9TR9kA7WpEBNovaTAPAB4jHid+hYYU5U5rzAnmmRs1zwTAufquFjhT7MBA7kSEFkCkDNiJqIICICwGoikuUZmaMlLiwyQZGlWR8ZIt1ihBZZOuT1MT4f5XYTzl1ie8flcO7anTubTpdjlyIIKRrSBCC0JoLfRiTGlAVqImsGRYiOmKbZJEqUMF+TV+zEYRVibU1N1TDqOcD+QEuf7GuNilrTpKoqHuZTJ4XkUU4oiMxFRfz+SPlrI/dDI/fDsfr9YRaQbmh/OSn85aTw/iBzURExLxFlwSG/PwC6f6hlPhxkvq2IZ4VYMbhY9D3/GLOfM/87f/t33Px5G3mOKHDusuCvSXQlCWM1FaxKGGCIvnWZOZLp42zkWGGOlXAjGzrNUqdq8CwXuCiELgqhUzXckMkjhalKoXKKzSUYlBiz2MHmoNiI5YSoKrAyx6Q5RokzAgOszXCMluRUIarwbCoGh+Q4U0hdc5eTeVZJsAoPpM+n4tdhuyjxGOOCJCg8B4EZMixejLEZns0KnJrk1GQ8E48piVhBEirZVEURIWfW0j+SuMlmqZ7PYNYel7KHBaVeyBxo6eOi/L6mHKq8wFBckHx3kPnhWEWI5hFrtb+cFn84Kfxwkv/LSfHDYfZiX/pwmH1fVz4cKsiNZ9/V0u+BuxngcUUsM+sYzp8Hy6c7q5ggK4J/X6SqKaoKZAXKHmTogzRdl6gjGbkRhTqR/Rda8Fz1nmuBc406lgMnWfoY3DhdStIqqlkVjpbBQqrAZPmwwsMoc6E0R2e4kMgEMlwom4gofBidEEnHQgJDiZGgFAupiWb0hbQZMiwYixB3Ib2CErYZYgFLiK+oFMbcBXTlRD4FN4TMs5k4K8dhFFkmGQkrCU5gwwmGTsdZ5MxT+NM0MV5RkpoIwbuqioi7GlRQiNnn+9L7A0WKBliKDLqd5RTTyCcgA9L4RkE4KSZPy+J5RbqoZr4DRJWjbBTF0dT7uvyuJr2vSu+q0vua9B7cNYTb/djWf6vU+WQI76cCB2m6lgKMUVTwH2fI47TvOONvpMm3MvlW8Z6p1KlKAaJy4EgG110Q6EIypAkhlWcAMMCSQYgyCEJG5sJpLiQwQYEJZgDyaE6IFkROFWJpLiww4JOlGJMDrwuX+EdDdIT6B5e8uOoFl4sKFVSuIMcr4OpzH5c0zTL0yv3iMhePWgbXuPtqClEZKmagtSJqIq8KfFkW91WxmJXlBM8zoawQ11J8UWKrcowPUZGAl9x1iCGiUeAPsxxCWqjJXDnNHWmJw5xQSUMKKbFBNUHLsYCWCJZSTCXNVOVoTeGqGbgzGnm+ocUUcuHaJ38y/H7yg2pJ4lDyNtJu0fPqWCJOMsRpxtNIuxtpT12i6mmqnvJWRW856c/H/dmYV2Z9EutLRymZC8ocnYkF09FgOkano4EUGxBCvmTYHw/6UiwtsQE5Hs7yjJqIyPGwyAZ5mkqEKClKy/EwxOZkVBMhYS4gvhZQpQTExXlyKl66SoxRbixcqVfIIac/Cr24PMVJMpA7UUjBnYQJfT1mIYePl9JC89MgZRMqMsTpmgYJczUnoUoXQnhV4erZGBf00iSxt2VbX5hTWeJQZhoqe1aMvy3yp/l4Q42carGzknCS5xs5rpHjigKlcW45vMeRmwUhuC+FyhKT4wPZmLeQDAmB3fD2K3J5Znvqd/zXPY/TnkbGcyJ7Ut6lquCuCu79JFlOkGXBW0z4VM4vxygp4stEA1qSTUcpiQ1ILJWOBqQolY4FJTYohCkh7OcCXi7oFRgAVeEhmVL4iBJnUiydCAd4mpJitMLjSgkpD1DgNu2Kvk2HfOWNcc0DgIE0AakykpNQ/YNqHtCPrpNkSJVVSJ7LsqAmuUycTbJMPBwK+yi/m/QTJLlHeommUR4fRfpokgqSPoaieIYpKpl0nJP5qJLg8iJ/lOMaajQTIb07dnLHsf56fmlugiHWqxJTlZiGxp9okOueFvgLKGzA3leh/mmo0Ry7V+LR3ZDj6jJbEWkQgpIBNbJTTlJlgVJ8y5xtKPzqd/lH4woxZwHyrD2F2UmFXCKNzS1iVTlMiow3GSIF2p0MkzAJeQWajAfcHOVhfQTrd3MUyJypCGCfgXAL3BXC/hhFRimPEKLESEBpUhmJt6BSRfOQDzcFLKxbgYyVBA2rGYCRktzUkyUeSVSQPAP/0okyKNIgDuAwjApcrDHBiPbDUdCZkdRVlHgVEr2ozLNpjuHDNFiI5uhAhKLCPp+YEGgf5dkl3DsuwkmQuwTrJfiAhyFdFLHn3t5cnp9bnJtUmN0TlXmrRVGJz58XOVB48tx5Ofm2yF+UhUaey/M+eneD2t0kHTZqbztIOGlylyac/l07teeg9uzUrp1y2ry2Rc/avOOpZWWo8zfMvxKUk6f2BJpI0B4+QIiMLxki+QCRoN0J2iPQpECTScYnAMZeLuCJeAmGdEW8bi5AplhKigYRqJBJpVg6CTmnL0p5+ZA/xQblOIRkNYEFDcAVkRXyJkRfrpjm8ilYG4BVgcy1lHGtZgCKTQPiXpW/oEJjyeLvRGAob0BSRoUvqoOx4gh6JJYeIVSLFTSvNlVJOFSRhaoqHpXVMkhscVSLc8VUrK5Ea3JUCPl8LifhsC3MTizPz6gscVaMf1tJgmoBY/J9NfVuX/y2Ip5XkheV5GmRL0thgSa9zs29Ddvuxjrp3KIIJ+nc9u44PM4tEtvOFrm96bbbnKuLy7Nj84O/zb/YG/Pt8AGCo1xR707Mv8eBuWCk9jjKxVEE690LuXcolyPkcXKUOx7wCCGvyPhSEX+K9adYKhn28bQv4iVCpIsLkELYn44FM7FmRq3E6Sysw8CCTC4JKweYqaBYIQZrSbYiRw7z7GGBLUrRYgo0SxSVY9dZNFoUwlVvvAQrSAh1wBsYXEXafRXrU9eKcVM0RupVs1AGTmNBH6taaC6CsCULhwX5XaN6WJRRfg5acUUWQIAs8odKhA8SxJZt17by5unUi8nR0O7KoRwGEhe4i0ryvBh/VxHeVYRvkYEUVeTrckQKuwOE07294VxfcdrWdjdsLruNsNsIxwbh2HBt2fY213c3bbu2te21N5tLr5afTn16Kkd9uwhXF4aTo1wMuRtyOxlyL+ByBomdILET9RMJ2ptkKIltxmCRpQSGSoT9DEkwpJsLwNF0DLInmaMVPgQZtfDjMgPSrSI5gQXwUlwzvRJj+0r0uBj6/pSp5WBZDRQrtKKHqyPkYGFNEJxtU3pMYBEDReUrfQNABdER0xSfgPXIqiJWkZKFGN9cJICVH0TfpmaJAnlNS//t/dtvD8so0jedf1VpYnwgR3hqz7O96VxbejU3PTc+tDg3URZ8DSV8qkXOSzySqABjoHJVfFdNva9KJxqXF2ie9gDMzi3CaSccm3ubNpjDZH13Y42wb3icDmLL5rStOteXHatLawtNMeQnE+SfdUIEFnqdIcIRcNndW+vE5rrHsRFw2YOEg/Xu8rSHpz3IP5MiQybD3njAw/pclMtJEXATcJQnBeu+wUw0mIkFM9FAJhaU47QcDylxgFkFF41XA6EshpXUJKMKTFkOVWR6Pxuqa0xBiuLlWyw458GTc6haxUsrzWVdhD0H0Rc0ZwjGRQltIpUD18c4JKPlGhyJYekGzpfi8EZYxsFLcrBOB9H6KgOvKuJf3538jw9va6rYXGZOIx5n+BONe1vgKmKQJR27thX7ypsX0+MzI9bF2XE57DzLs2cF9tuKcFbkLso8kHg/+a6aeldNfVsRLirJwyyrxHysb8e36/Bsb+7YVncQlk7bimNteRuBur2+bF95s738N8rTAAATkElEQVS+Yl99Y19d2lp588moHCS2PQ4bsWUjnVs04Yz6wC3zQU8ChV4Ufb1CyMdRZMRLUHtOyrXDkAQf9IpA6IAUDeIwLHMhUDnikCpfG+jPID5HsVqpouXxmsqcH9AX9eCBxlZkWMhrLv9JcSxfFPGSfobHq3uQZ8EiOVrkR3kTXhXGy/s4x8a59I/CpCIAm680SxBG0DIUXoK91ixraA0Y3gXFUvJAS79r7J/V8k3sm45dqMrxt3nurMAVeIohgMQrL54+nxybGbHOTwyyxNqxHDzVmNN89KIMXhqghagMsvOHugw+vCwcyNFM1B+liIB7h3LvEdtA4u31ld2Nte315W3w4avb66uOtWX76tInQ7elpYXa2aQJR4R0sl5o7Yj6djjKxQfcfNATD3pYr8u/s+VxbLodG5TLwfpcfNCTDHtFxi8yFERixp+K+FHhFExHoXwCBoOeBaMC9W6z7UFNMEUpfFYLnNeo42KoKDGaGEXqY7QgxfIptACM2jAgAMNiIhyFMIyWSFE8BipDw0YzTmOpC4qrMqxGgF+9XlC6ojJaVkJch9PA2wv7yJ8DzCCboOoLd4ak+be1wr+/Pz0qKthP4C8tSVxNjp6okcMMrUYIn31lfeHZ0vO5+anxyUHT7KjVY3uxL5JvNea8GLuoCBdl/qKcaKZg+yIUzQXurJg4LSTKEhOnXJTL4d1zuOw2p23F9ubV+uKCffXNxvLixtIr25uXnxLdlpYW1rcb9e/FUD4V87tifleE3A0QjiCxTTrt7u1N0mlnvUQ8gDgd9iFo/bgaRmNAigbSCNQ0Ej1QDIasCgtbqsDkkmwhxVSzdKNElzNMMQ2qZEGE9e1rjFHyBTVSEXpu0Pp8U6eExSgUkrkSCCCAcRkadEDOxKEaFU6AHHKtkBxhd40YjOM0KNVwGiRZgChgfLWMX1VT8BbwDUK9IL87rlzUS+j+SKDPhy8tiLFqmq1LwXo6KDOEb3Nx9eXz1YX5hdmpmRHr9Ihl/dWcErIfpqkTLVqVgm8LXCMXa6hMPUOXBU9NClbToOfX5bAc2mYIG7GxvPHmxfL83MrC/OtnT9+8eG5bfLW++HL11YtPrGgy5DbQl9xhSKfHbnNtrDvXV1yb68SWjSYcnN8VB4/t5gMEHyAEXDWFyCTUxz5k3hRk1JB/pRi/FKHSLCXHggpPy1xA5oKaSJ9W/I0i2Sj6D/OBgggdPFkeWrG0ZESFES86QWBGeTVsQsuHGC2AobshBUEabUJ4rshCQYyBwxdYxGZ8Jro/UFQupTncMgGxHMdptFRcSvP7SrKUBsyuyugE6oGCCF0QY+VM4m1N++u3jbqWLoOAinwGCG1sMRU7VGOnGnuqRbW4N7hrc6y+3lpZXHk5Pzs2NDM2OGHR087FmkSVBe9+0tfIsccqWxV9Rd5dgZGoCN6aRKHVuWBZ8CsxMkJCfNzbXLevLdve/DZCZpBwkM5NYgvCMLFpCxAOhnRyFBEPEFzAnQhCKcwH3ZBngXkF8M+oTGIpMUIlAWYolqQoaJY4zc6gRDrLhxol6t/fuf72jjgqBLQkdteAKwRmVCbhBf+m0JH8KGBDE08sDzVVFDX0xApiDPEeXXHktLHGCfSCHhesgiEZBLWLYNIjHxsv4648aPThynKz9a4ig3iCEzeYyOAVyplEo6z+z+/O3x1V4BNSXFNgabbwxY5zsbMSf1bii0IwQm67Nle3Vt6svV6YHh3s72ibHrH4HYsVkTpWQqf56AmslMdOtOgZeOn4GZRP8Qu0yH9WFk4L8ZrM5hKhGOXy7znI3W1ie8OxtvyJXfTG0uvt1Tdep40m7IzHyfp2Yv4djtrFdTBUUBCSCRSVm1ROhkDeQmyGBDsZ9uIwLLEUgM34MlGqqvjfHxM/vN1tFMmCiOMxrfBQQYHTFoC7KKkGQkPTHWwyKjAbsFcTsIaB8vAwOhka81BrZqQA1TO6P9CZedTUiB0+zr3LGR7i95XhnRVFAGghKEB0aPY9peCmQa2TrCaAbyhK3L4ifH928O6oXFPFPIQS+Ch8RxZE6H18W+S/rSRP81xBoFivc3sN8t7Vhfkxi2nMapwYNC3Pz2qx3QYsjVPHWUi+3kJnRAzGfPQtdLnE34Jxp2htvyhQiaArQNjd2xufGF1Isva2GMiwdkDfoFxxMAIYjDxzHE2wyMVRe1Ay0YBoMuyDNBsmXuyfJTYosYEUSymc73Sf/NDYPS54NYFCCRfolwofws2nOJdGnadss+ES9e6oqKbSoC+AvUrIYc3xqlMV8RvBCS23Ant19QEt3LiKGYkr6eulC9gJGTiMzcoKNtGSA0Aeb56ZiqEQDrG8nk+f1QqnVa0kwb2CbxcU9eHmKEncOepGOs1zGk+FPU6nbXVzeXHpxbOnE6OjZsPEkGl+aiQVtDdUpqEyJzn2DKCNoe6cxHmRf1uIQUdOiT8HHnMNFdrcVM7LU3vUnuMTY8yQkEJHyO0YdEfvcj4n64MGaZbcQXqWi6N2Y/7dmH+H9e7EMZtpN0+7+SCB0mkfisdeiaUynFeJezSBrGVJNeFNMWQq4oPYjNPsWEDmaQX6nwFsDLwSDwF+kJGF5RitcLSKWj7SLJWJYi0Mzs8JEezGc6ikVnGHF+osAG4BlSPQWpuKFSFUAwYlyMIgzUaqdTM7Q+lStJzh9xUBNSdjcRsCNlA8HQdCC2xRih9oUl2Tyhm+yeAk3E/N5EBg9tPsRQmE6GOFUTmSdG5AGrz0aunF02dTY5PDljGLYWLQwLhWjpXwiUo3oNclhPxz4rzMn5dAAnuL3DXOsU/yXCPHVqWQzBCMG1aOPxnMUd8OJNLIWO9O1LfblLQCBFAZVEwYMZXBUdOeBBgp0DjP8ooRv8z5y2myIoOpgh8tOjVlrxRLQYRG6xBY4VLiYRn0S8D1ip0MHAKWh5HPBBeNGjHhBA3QxTSFvh/UB49cNHbOEI+bJMO+N58EvRP7WyRx8NfaJ0qvoFhCmRpSOhVQoauqWMtBVywiK6RaNVU8LCoY46IURwkBavdESGtJ9jDLfbsPyvOJFlViXo9j3bm+vLWyaFtcWJibHh80jZoHxq1G9/r8ftLbyIaOlNBhhjrJRaDfVIu+LcTO0OIE6J0lHgfpkzwHeZkUklkPQzpJh+0TZNQRlEWH3fYQYQ+7cb+7k/WiYOzbjQHw8NxDDDe7Ix8OITlICEjhSjFERXZV1d2cQJQkt8Si/IvxSSzUx8kwpGYig/gdC2RidCYWyHCgeV0xOIxwDclxWFrOxIJqIqwlIYu+agvBFRckaFk+hBpF4AmDLA+x+SoqA8CYfFoyglw36rBvhudoPskWEa0LaKkqL8ZUHmI5FGApeJ4AOXCosHEaj1gbq6niWS1/UlGRPI6iNfYWKGnQBOa0KFyUExcV/khhRNq1t2VzbqzZ3iysvZp/Pjk2ZjGMmgcmBs0LM2MZevtIDtbTVFUk65nASY45K/GnGrjus1L8rJR4WwAhpaFGoDUqyx4pTClJpUJE0PWrozLr3WFJJ0M6w26ol6I+qJciADBgjNjsgoyagjEBTz/AohNPu4WwJ815CiJREPfyIilzgGIK8ixfM82+0kAyV60BeII0rxBq3AEVEwVm8NiwuhwNIHJDi8iPbhzgxB0jIZkLIQcAkyx6ikRLwmMjKPNCCxWIzSi15pAPaOZQiNOQbOOYilWUphoqNpezcAoGtTgIKdHzehFq4sNSVU3iz8feJd/syIdcr5GLXZT5syJ3KDNKhCAcG07QMhe3lhcXZqcwxiMm/cywmfOsHcmBQzlQh1oZugYaOQZiM7THQoQ+K0DmdZqHkIx6ocIH0DlDJWmXf+dXUJkmthiPg3Zt0q7NsMfBeOw0sRX22BnSzpLOmB+0LRYUrl2O2o1TkIglaFeScUnsjsi45DghMh6RAZqi1NqToKGmSoZJCXo//JlYQAYBBCIx0rkCeA/SQ+DBFgAyTkvQSgA1dAY1duFQDZo23BxQVStA8QD+hHQUpG+Zg3WqZhKO+ryAlCjHLqSA0CCiQa81LHLgWAAZHKq8cWQto4IYP0EDvb3wrFQE8jVUc5fS8Q8n1ZNyFsI5is3oHJQYwiY8YZUTwg0tdlaMnxf5hhpJh3eI7U3oDngxBzY/NzFkHjL0Dxv7xy0D3s2XVdF/LAeP5OBJNnScDZ2oDPLY7KnGIpi5Ey3aUCOHMuqJy9CH0MoY1HjfLw/JYTcsNoTdDiiTgMrgpfESE0qkIQA3H16iiATtEkJEQdrVRJcSJ4SwO8mQSQQtZFLQteMXUWKFCmJ/KkIh1uL6mAInzEG53EQRuVzMYJR5Neso5IpD8JwS8Bu4i9pvGSSeILk7DoxHXhpCNcgd4HuBUpheRSmmQccuHAWPncJshkffsHJSTMXK6XgFFU5YxCin46jUBoyh6AISx9439r97Wz+tajiiV2ShBFk3iggiIK3y4YLInKiR81ICOv4Vlqecu7YVx+ri9jpoF0vzTyeHzIMDfYMDfeMWw9rC0zxHQM4lBw8z1KESPsmxJznmNA9UPtVip1A3Q+l8nIWGxmOFqUNLKzyF9gtfIWIrRGwGdm3Bvc0wYWfcDry+xHqdUAr7gbV8kOCovQTtkiLOdHQvG99JMnAU3wGYsojEzfYPkfFJEb8U8cME+nuuEmmgKQjXqYgvxUIulomh3q5YACIxyq5hBPAg3KpCWE2E4dlDqIkBWny7yBDF4S2QpqG8rJiCUhVybOA04lYiovLwDONVTQzYqwno1i6kUL4NTwLCbYF4D31hKIpH0DeGCyiZKkrcYTFzXFbOagW4JzJ8EQV7SOPhBgpnYWGULouh8xLoz2elxH6KFmiXa2N1e+3N1sri+usXKwvPZ8YGBw39I+aBUfPA84nhJLV5mKbqGaouU/CYQSZ4rNAnWuw0D/lXIxs+zjJHMoxAZSn4y+nb0tKCcitwyyHEYCxb4qQa1cRQGYsMkWT2NHFX5gghDI+JoooZNYEEoV4SaDJBe5KMN8l4UVaFqiMWAG4uOkEijSxKSRHIv1IAfBBJGUDcZlMANNuGcfRV4iHItJsduJBkXe2Hy4oNd3NiBoPkiZYmcaTMCQyGFkBFOlSTu6BmxDDRmwoG6J2gg2JGNrN04DrqBkzFimmuUc6WgOLg+ZHMDr8T5X1o/TtOV9PMeQlFU8RjMUS47bbt9eXN5de2xYWll89mxoYGDf1Wfe/gQO+41RDeW4Umc5U5Vuh6JliFDmW6kWUaWeYkFzmCfuRQXaYP5dBBOniQoX85g4N7NgZS6M0QCsasFzx21IueEaV2VH77or7814t5TXBIrJOj4BDk1X6oplArCDjwBFTGgDdOrXHyzKOmHyx7QWNXGMri9DXSqHkPZ84oHgMVUEYNNIU4jbQRHH2bIZmjQeuOYu6iR4phgRLARpUxtFurPH5aFT+FDOxEEhjy1SJbQKE0j55LRjoorm5BD0cAQ6KOtRf8XDKWyYpSvIoWiXMQLwBXuNsgPwCDzCAWUOKBWppuKhsaWxEp3u9wba1vrSyuvX6xvvhycf7p9OiQWddj1fdZ9H2jlgFi7VlF9ANflVBd8ldF37ESOlYA5hONRWGYqqdheeNACvxyEofdjpDbTkONZGfgOWBIrDJRh8o7L+pL//O7mb+9mz8p2/jgTsyPBC/w20i8BO6CgWbZVKpJIQwhGSzswyI2VMwM1MpNRTNKpa+gxXEXVz4ZDoQwKQptezIXRMtTkDCDgRuErBvEkGYK1uzHRkfRFUc+HFdNgFAS/DNaigChEeVNkBhjyuJQjeIxjrVQR4GLhic20f2RZFVo9g4jCYWtqkJVFfaz0OmHVjjgoe+cELn6bfAwjhIPyhxVkYCUp1rkOMuUU7QQ2CE2VxxrS7al18sLz7HUZdH3mXW9I+aBEZP+5fSIFNg8UZlGNlRP+erpQD0dPFZCjWz4AJYlKHzHHGbomvRLSUwTW4FdG7WzThMbNLEpMrZGafFv7yb/9n7yP74feXe0oCZsLGlnvduMBzSvpuAFcuYefyWAoOfHr/r0QiBQY6krQUMWhukLNwGk1iB64PtAYv1plBg3vTeWRKKwBnVdKAPeKDZLuAE7Col0GuppOgNnNmmEJyoUx0Ay/EQFUrYBaayWYJcLsgni61W2DCRGeyBZQ/gBxsj5Q7WmJdlSJl5Mx8oyV9MkHOBxIAddHYJ6FIdtNRFSebouh0+Q4z1Swlqc5CknsbW69vrFm/m5xedzr+amn09NjJgNI2bDsFE/bNSNmQfipO1QBkddh2fAfCWerKcDBxJVlwKH4KXhSc+q6D9IN3n832Mz7dqiCXvAtRVyb9Vzb/72fuZ//dX0H98P/ccPwwVpkwugvNoLJXKE3GG9uyixcoOkFSCEEJmgSZC6KMRmJH3gMCyEEXFZSopRaY6WogHcI5BGThWKomhAijUbQkDniqE6mAXtGl24iIpWFTFxVQF3iYRklD+jZ2FoiN/QAgY1MboPQrBQgQohvBqNKiK8GIXXHmIfidigaBahdwAmqFEXtBGklMGH4IRLax4CXayi8PW8VJQ4pKXDPymREyJQcEuxptNGDibLQ20DhRCEUrosBnnK6bRBRr288Hx9ceH105lXT2cnhkzDRt2wUW/V904OGgLOFRR36UNYP/bCQ50SsPlACtbS8ODugQQwHynhuhyqo5D8M6Py/waFApIJSFC1QQAAAABJRU5ErkJggg==;" vertex="1" parent="1">
                    <mxGeometry x="20" y="380" width="160" height="80" as="geometry"/>
                </mxCell>
                <mxCell id="8" value="" style="shape=image;verticalLabelPosition=bottom;labelBackgroundColor=default;verticalAlign=top;aspect=fixed;imageAspect=0;image=data:image/png,iVBORw0KGgoAAAANSUhEUgAAAKAAAABQCAIAAAARP+ljAAAAAXNSR0IArs4c6QAAIABJREFUeAFcu4dzI9eZ7j1iTgAIMOc4zJxhAhNyzrFzo4EGGjkngjnn4UTODCcHTdRkxZFsWVqltSzLXofr9dprr9f2Omltb7rfP/BVU763vvqqnjp1qolukP07z/O+p0EcEavUE0LlqFw2KdKMyrRcgXZIrBmZ1HB5qlG+mitUcYXqMYmWLzYIFSaxGpBpIYUWVugwlRFTWwidhTBYCT3kMAB2o9VuMjuMAGkEHSaYBAAngLtAmLKipMlC6i0OlRGVGxCZ2irWWkVKQKA0CZVmgcLEk5kmFXqe1DwpNfJkFoHSIlLAYjUq1iAiHSJWI2INLNLAQhUkUIB8OTgpB8ZllnGpeVxsHpNYDmUel1gnpJZJuYWnAoUKSKiBRWr6LHpUIwIlwFNaeDLrpMw0KbNOyk18GcCnfwdAoAVESkiohoRqWKCChEqQfiMVxKfnkFAFiTWIXI8qDbjK6NBYHDrIoYdIE+g0IpQeIDUWQmW0KQy4SAPylKZxsWFUpB8R6bki9YhAO8BX9o/Ju8d4HQMTrf3cpt6hhs6+mqOtVY0NnLpqdnU5q5rDKmMxy1nMMgarksmuYJbSYpRWMdiVxZyKorKKQk5lIbuygM3OZ7Lyipm5hczcgqLs/KLsgqLsgpKcosLDSUF2fnFOfkF2bmE2PRZlF+Rlc9isIzzROFconRTIJ4TKcbFuTKQeFai5PNUIXz0iVI8I1OMizYRUx5caREqLXGNV6KxyHajQQxojorcQeoAwgjYTZDMDmAk4nEA2K2Q3ww4L7ARQpxUmTaBDDzm0ZkxtxOQ6RKoBpWqrSGkVyM18heVwNPFler7UxJeZhHKTSAmINbBEC0tpIVItJtFiYhowzFchAhXMV4ITNGNgXAaOy63jcmBcAU4owEkFRDNTw/SaoM9ChBpUokMlWligBvkKM08BCBRWvtLKVwB8FShQQSI1INQcvl6DSjQ048OVAYnUoFBFgxepYZkOVhhQpdmmsRIGwG5CnEbUbYEpE0LqAJvaTChNuEIPCdXWSaluTKIdE6i4Qg1XpBoSagYmpH1jkt6hiaND3Nbegebu/oaOjurWpsq6GnZNVWklm0bLYTBoFTPLaLHosaiUViGLU8Bi57M4+Sx2HoOVV8zILSzOLiim6eYXZucVZn095hVm5+Vn5RZk5eZn5dB6JSefnhcU5x8RqUSjQqlApJuQ6Sck2jGxZlSoHRZoRnhqLl8zItSOi3WTUr1QbpQorXItoNRBSi2k1MMaI2qw2EwAYQFtFshmBXErQFghuwVyAJADgB0ARIKwwwyTFtBhsBBas01ttCl0sJgGDArVoEhpESmtIpVFqLQIVCahwixUWMRKi0wNKzSwQocqdJhCh8p0qFyLSXWIRI2KlYhIhQhVCF8B8+QwTw7xlSBPCQuUCF8FC+kf0YaTalCZDpPqMCl9Iio/ZCxWA0IVKFJb+SpApIJEKkiigSRaWKJHpFpEpkWkBlSqpTFLtIhUA0nUkFQNy7SwQo9ojLjebDdYHWbICaCUFaWssMuMkHqI/rtUJlSuh4VqYFKuHZVoR4XqYZGKK1AO8RWDfHH/hKRrhNs2ONLSO1Df01Xb1lrZ3FReV1taXcGsZDHKWAwOo7i0uLi0qIRdVMIuZNAqYLALmLTymaX5NGN2HoP5NeCcwkPAeYVZtApoHaJ9heaaRys3/5XsvKzsvFdyC7KPiFUynlgpkhp5cvOk1EAvQImeK9JyhdpRoXZMYpiUGvkys1RlletBpRFRG1G1AVGbUL0ZN1ptFsgOYg7Y5kRtLhhzIbgLslEQ7oJxF4JTEOYCMMoCu4wAqbfa1WaCBqyDpBpIpAUkKistLSBRQyKNVaqxyrSAQg+pDLjagKmNuNpoUxsw5aEUekyuwaRqVKJFJFpUpEZpnGpEdCiJBpVoMYnOJtFiMj2u0GNKo01BJyehMOC09NhhHsASHSyiUwGVaxG5HpPrMZkBPUxgRGnCFHpUrkcURkRhQOU6RKGHVSZEY8H1VofZSppBpwVxg5gbxCgr5rSgpAFxaC02lRlRmBGJDhKoDBNy3bhEMypRj4pUw0L5kEB0fELaNTzafnyopedYY1dXbVtLVXNTRX0tu6qcVVHKLC9lcJjFpcUlrCJGaRGDVVjCKmCw8r8Wk5XPYuWXluazSvOZzLySkpyi4pzCw3DOP0RL082niebm/X8AH2LOoY9nHRHJpCKpVig3CKVmntQ0LtFNSPU8qfZwYuDLDUKlWaiwyrWgygRrLJjGhKnNqNZCB7IFIgCMREk3QflcVNDuCtgpH075cJcPd3ptrgDm8KF2nxX3mDC3AXBoLIRMj4j1qEQDijWAWANINKBED8m0qIRGSy8grRnXWux6q11ndegsdo3JpjHZVCZcpceVOkxO88OkOlyixaW6Q6I6nLa4DlcYCbmRlBvtChOhsdg1FofWYldbSLWFVJnsKhMh19MIZUab3GiTm2wqs01pJJUmQmHCVCZcbcK0FlxpQun3smBqM64yohoLqrXiBtBugpwW2GlBKQvqAXAPQLhBggJwpxkldRChgXA1gClMmERnEWpMfIWeL9OPyzWjMtWwQDI4Lu8enOg4NtTW29d8tKu+vbW6qbGyvoZTVVFazmZxWAw2o4RVzGDRdJnMQgajgMHIZzDzmcx8JiOfxcyjxcpjMvJKinOKirILC7MLCrMKvvZuftbXrqXHXNq+2Ycj7eOCV3Lzso6IFVKhRMtT6EQSE0+qnRDpeBK9UKaflOkEMpNApqMBKy0yjVWlh7QmRG2CNSZEa0GNAA7ABII5bHa3yxX0e8JeT4jyhEgq4PIEnVSIpEJOZ8DuCKAOrxX3GEC6H5EaYDo5NaBIgwi0VqkBFesgujDrAZkWVekwvcluMNvNVtIAOI2A02AldGablrayXanHlXpcobXJtTaZDpfrCIXWodA7lAaHymBXGkiFwak20UR1Fqfe4jJYXTrQaQBcGrNTZyEPsZFKk0NtJlVWu9bqVJqcGjOpttq0AKGxEHTGWDCthdBYbFoLobXgerqFdFhApxVyAYjLgrhpB9s8kN0DEx4I9wAoZUIJI0ZqQbvGSsjNkFgHi9VWkdo4qdJNKnXDYvUwT97LnTh6fKSt73hjV2dde0tlQ21FXTWnuoJVVspglZSwSkqYhSWsQ7TMAiaD5vp/xWLQgJnMPBYj92vANF1ar+TRCA+Ve0j3/6D9G/LcQweP8cbGxLIxmYYvU49L1aNi9ZhII5ZpJ2U6vkQ/IdaJZAaJ0qLUWTVGSG+GNRZQY4Z1FtQMQACMgriLsHtcbq/HG6DcQRcVclFeivKTzoDTE3RRAdLlRQgP7HCbYdJgtckNuNIIKgyY3ACJNZDMYJXpAJUBl+hhpQ5S6VA9fVvtRsBlAp0W2G60kkarXQ/Y9FZCYyY0JkJjwlUmm9JkV5pJjdWpAUid1am2uLRWhwZw6KwOLeg0Q04jTJkhlxZ0GiG3DiT0AKkykVorobaSBsiusboMVlIN0oVDCziNsEOPkAbYprbYdCabFsC+fkcjQJgguxV1mhGXCaLMsMuKkhBGwbgXI7yIzQ1gTj1MGmGHDsL1oE1hQeRGq1xnlerMkyrzuFw3ylOM8KXHB3mdAwNtHf1NnZ11bS01LQ0VtZXsyorSMjaLzWAyixisImZpEYtVyDzEzGQUlrIKS2nYhaySglJGQSkzv5SZx2DmFjNyikuyD32clV+QlX/ImPbr15YtoOM6r+CVvMNKnFeQdYQnlnKFyjGhekKm5ApVYxLVqFA9KdOOS1WTCtWEXCeg21qTzGhRmiGNGdBYrDoraAQhEwJbUQzBCJuddJBul9NDuXwet89FeZ3uAOkKuFw+B+kmHF6M9KIOH4B7zRCpAQilBZeb7TITJtUDcjMsNwFqE6wwwgojpDRgOjNusBJmkDSBLjNE0SNImSCXEXbqAafO6tRanRqzU2N2aS2UDqD0EGWC3XrQbQDcesCtB10GmDLCLjNMmWHKCFJm1G2EnSbQrQVceojSgKQecepAtwGmNBClQ90G2G3AXDrEqUccGsCuBQktaNeBdj1gN4CEASJMsN0Ek2aYsiCUGXEDqAfGfIjNBxNuM+bSw6QOdmitmM6KqSyo3IxKDHTdEajNEyrjiEQ3ypcf4453DQ639Qy29HTWH22pbamrqK8tq+aUclilpSXM0hImq4jFPIRaWsRmFbKZhRxGIZtVxGIUHQLOL2XQYpfkMktyGSU5xcXZRYcpnZ9/2Gfl0UTz8mnR1PNp9rk0/qwjY3weVyQfFyhGRcoxkZIrVEwIlJMS9ZhQNSFS8mQqvkQnVhhVOpPaCGhNVq3ZrLdYjABghkArgsK4w+YgHaTLSVIO0k26KIfT5SQ9DofbbnfZ7U4bQeEEhdq9iN1lgR16kFDRpQ6QGkCpwaQ0QEqjVWGC1UZIZYTVRkRnwc00YHqXRXMFnUbQbYQoI+QyQC4D6DL8H8x60KWHPEaYMsGUCaIXgRl2mejmljJBbjNIm9gE0hcxQw49QBkAUgeSesChB0j6OiBphOlrmugFQdELCHTpAfoFBpDUg04TSBogUg86jJDDDJHmwzIMIE4Qd4G4F7L5YJvbilFGyG4A7XoLrjbjanqjj8kMoEQHCzWgUGHli1Rjk8qB4Yme48PdvX3tnd1N7a2NzY01tZXlVWXsMmYph1laWlLKLmKzitilRWxmIZtZUMosLGUWsRlFpSW0g2nGJfmlJXmsktzS4lxWcQ6jKKe4KLuoIKvwbzhfyc9/paCQHvMLXin4WoWv5BdmHRkVCrgiOZevGhPKuQIZVygfE8rHRfJRoXJcqBiXyibESoFcJ9fqlSaz2mzWGE06s9lotZhB0IogkA3DHHaCdDocTrvdSZBOwulyOFyE3YE57JjdgdtI3ObC7R6MdME2yggTOhBXmgG5CZYZTUozpDSDavruwCozqrFiesBuAuwmiDQfAjaApA5w6gGXHqD0IEUzAF06wEUfpG3tsaBeM+oxIx4L6rGiHgvqtmJuC+KxQLRHjTBpRFwmGh6lB+xaiDyER2PTQ3Y97DAApBEmDbDThDgN9PVJPUga6Su7jDRdpx4iDYfrxgQ7zQgFYG7I5oUJH2IPoHY/QHhNmNMAO/SAXW22qU2o0ogqTYjUhIr1sERjESr1PIFqZJw3wB3qO9bf2d3R0tHc0lxbV19ZWcFhcxgcdgkNmEUDLmMVcliFbMZhJpcUsEsKS4sLSovzWcX5pUV5rKI8ZlEuq/hvjJlF2cUFWcUFWUX5WYX5tGsLCg4x03TpOa3CrCNcwSRXIBkWKMaEshGelCuUcQXScYF0TCgbE8nGJLIJsUKg0Mi1OqXRpLGYtGajzmLWWy1mALDCMIgjCGHD7CRhJwmCdjMtuxO32TG7HSUI3GbHCQfmcKMOJ0yb2G5EbBqAbtNUZkgNIBoA0QOEFqA7HT1IGOgwdFoQlxVzm9Gv77LL8DfA7kOruQ2H8Eyox4r5AJsPsAUAmx8iApDND9p8ID33gdjX4F0m1G2EXDqQottyyGk89KXu8NkL/UwKoB/CGGCnEXUaIUoPOQ2gy0jHPmWCXXQGoC4TRpkxjxXzALgPIvyII4g5I4QraqMiiDME2n1mnC4KWqtDbSUOFysqNyMyA6zQAWK1SSJRT/CE3LGRvv7+rp729s6mluaa2rqKqnI2h8PgsIpZrKJS2riFZcwCDjO/tIQm+jcV5ZcW5bOL8thFeaW0ctnFuZySXDZt5WxGYXYJzTi7sIBmXJD/Cq3/H+CRSe4wX8QViLh8KZcn4QrEozzxhEAyIRSOiSXjYgVfopSoNUqNTqM3GcwWg9Wks5q1FrPRYjaDVisCQxiO4jbcZsMIG0bYcZzAbA4MpyeojcBsBGrHEZJECAIkHABit2AOI4IbAVQH2gygTQ/TjYyZrppOGi3qsuJuEPfCdh9AuOmyB3voYkzfdI8FObQp5jHjPoAIwo4g7AwgZAh1hm2uMO4MYc4A4qAn9Om41wq7zajHCDppx1voQm6C7LQ1aSs79ZBDB9jpOR3Uh8aFXCbIbYQ8ZthtQbxW1AviHpDwQHY/ag9idvrKNips96ScvhTpi9vdUZyMwPagFfcaQEoHudRWu8aIKYywTAupNYhcZZDJVZMTwjHuSF9vX3dXe/vRxpam2pqa8ooydjmnhMMqPgzkfA4zn8MoYJfkHQLOK6XR5pUW55cVF1QxCqqZBdWMgmpGflVJfgUjr5yRW0ZbOaekKIdRlF1cmF1cQO+dCmnvZhXSk0PSRVlHxiR8Ll82xpOMCkUjfN6YQMQViiaEYq5YMC6RT8qUfLlSrFbJdTqV0WSwWvQWk9Zk1JoMWrNeZ9aZQKMVAUAUgjEIwWHMhqF054XBOIbYUMiGoQRGW5x04KQddzhhBwESlAkjTQhpRB0m1GW2UQDmtdjcEO4DMR906EWEDKBOP+rwgwS9jQZQjxWhrKjbinsB3AfavqYbwckI4YoQ7qjdHXN44053zO6J2KgYRkYwRwBweK2ox4jS9dUAklrQQYc2aNfDdjpUUaee7n4d+sMW2ggd9sPIoWsRjxl1mzGvFfPBqB8hAigZwskwQUbtVNTuizt9ScqfoHwJ0pMgXAnEHoftITPqNsFuDeBUmwi5CZPoAYXOItcaRDLJ6Pj4yPDx3v6evo7m1vb61obKmrqKmgpmBaekrLSQU1pUxswvYxRUMArKSgrKSmioFSU011pmUWMpo6Oc1VtZ2l3J6qpktJaX1JcV1rMLa5j5FYx8DoN2c1lJbmlJbklxFl2YC7OKCw9bsEKa9JGRCS5XKOYKJFyhhCsUjvL5YyLRuFA0LpRNSmV8uVysVEmVGqVOr9EbDCaT3mBU63VqnUar02mNBj3tY4sFAkAEhVEbhOIAjEKoDUYRCEdQ+hhCZ7XDhtkcqINECQp1OiGSAggvQPgsDg9op2AiCNmDsD2AkbRFcJK2I+EK4c4Q4vBDdg9EeOi+BveCNi9g80I2OicJd4j0halgzBOKuUMJTyDh8cdd3ijhjdA+s7vpuEbpym2io9hlsDoMgMMEO3Sg3QoQBsRx2B47zQhdXM2IwwCRFshpgikzStGBbPODuI9upgj6cQ1uD9ocYbszTHoiLl/M7UtQ/iTpThJUDHPGMTIA24Mg6jVBdC1QGm0yNaBUWZVCOU8oHx043t/Xd6yzpaOzrb25oaGltrmuvKqOU1dZWlVVUl1WXM0pqS4truUU17CLqzjFtZyiRk5Ra1lJXxXzeG0Zr7laebRW2VGt6qycbCkbrGX1VrFaKovqywrqOAU1rPxKTl4lK6+Mlc0qyS4pzmYWZzOKs0qKs4oY2Ue4ookh3uTAOJ8r4o9M8sZFvFERf1IqGhdJBFKlSKGQqJVSjVZh0CkNGq1Bo9Zp1Tqt1qDRGbUGs8EEms2wxQoDIAYDOAziGIgfYkYgAEVAHMQwGCNthIvESZeD9KCU2+bxo5QfdgZAhx92BiHSh5B+2BFCHUHMHrG7Yg4q7vTEHJ6EnYrhriDmDCFkEHQEALvfSgQAW4AuhGTIRkUpX8IfSgWj6VBsKhzPBCMZXzjhDEQJKmwjghARsOJuC0532ka6c3YYELpDNqKUGbHTj6UwlwVzmzCXGXOaUacJpYyoy4y66U4NdQOY7xAwTQ5xBFAyiDrCuD1sd4Vd3ijtYH/C5YuR7ridSjpcadwZQ21RC+Y1Q261FVcaQJlGJRSp+JOjxwa6+jqa2tvq25rrGxqqW2urGmsr66vLays5zRWlLZXs1ip2eyW7vZzZXs5srWAdrWB0VTGO1bJGGjmClkpjRz3S24wda8KHGi0DtcrOCl47u7uOcbS6qKGsoL4sr5qdX83Oq2LnlpfmlLJyykpzShnZLEY2g5VzZIQ3MDzBHZwYG5wY506MjgonuEIeTyycFIv4YolIKpHIlXKtRmPS6ExarUGr0WvUBo1WrzUYdEaz0QxZrQgEoRhqs+GEzUbYURuJYATtZxyy4bCDRHB6o+TAXQ7C4bZTlN0TsJN+1BlAbB7UEUBwL0L4MFvA5gwflrcE6Um5/EmXP+n0Rgl3mHBHcCqMOEOwI4DY/Yg9gDiCuCtMepPe0FQgPhNJL0Qzi/HMUjw9F45Pe8JTLl+aIEOQPQRgPgD3GBG3EXLThRZxGukQdlnoDzEpC05nvsXmsdro0YR4zagXQN2Wv3VqAcgRRMjQocIYGcKcYdwVcXgjVCDpCaRdAfr3dPuT7sCUK5h2upMOKoqQXgj3mBCX1oxolDqJRDoxxh063t7b3tjZVtPSVH20sby9tqytvqyltry1pry7htNdxxluLBO2VAiaK0XNFfzWCl5zmbS5XNJaruqotPbUEP313qGW2GTHrKQjKWi0jVSpe8v4zcz+2qLmyoLG8rwaTl4NJ7emLLeak1PBplXOyuGws1mcnCNc4eDw5MjI5OjQxCh3cpgrGBsT8ifFgkmJkC8RiKRimUyh0qh1Rq3RbDSYjDqjXmvU6416k0lnMhusAAihGI47nA7KRXmclJtwugnCQRCYnYSdTpiiEKcHt7twgiLsdpfT5Xa4g3ZnECP9COGlhbsxwk84Ag53hPTS2Ch/2hNMe8JTVDDu9McdvoTDF7W5w5grjLlCmCuM021O1B1IB6LTkdRccno5PbM6Nbs6NbeUSM8Ho/NUMENSMYiMAHjQYvOacLpvMiJuE/o3WVG6vloJ/99koydm3G/B/Fbca7UHQEcQJsMIXTLCmCuCu2I2V5Sg4nZvggwkPcGMNzjlDk65A2lPKO0NT/uiMz5/xudL2z0xu4uOHAB1AiZQr9ZKBXw+t2+4u+14R1N3W92xlppjrVXDrTWD7TUjrdW8tmrh0WpzfwM5dNQ31hsY6/VN9HgmusJjneHJrpigJyXom5ce21IPnjSNnQVGN7XdYV4jMlyp7GRzmxhdtYWtVflNFXl15XkN5bl1ZTnVh6pg55RxstmcnCPjkqFhwcgob2xEMDbKGx0VjE8IhDypgCcRCqQCsUysUMg1GpXeoDWbjWaz2WQ2mcwmi8VksRosViMEQhhuJ0m33xPyByOBYMgbCLrdFEURLi/qCWA+H+r14S434aLd66Y8XtITsLv9NtKLObyIzYXanYTDR1IBJ11Qo77AlC8yHYxOB+KzvuiUO5ymgilXMObwRwhvhPBE7e6o3RMhvTFvMB1OTCenFmZmVmfm12eXNmaW1tKzK5HEEhXOOD1xxBkG8YAR95psbgPkNeFeE+o1YT6rzQfifqstCNrDVkcQdISt9iBABA/HgJWgj4BkGHFFMWfU5ozaqDjhThDupOOweXYFpzzBaW8w4wtNe0PTvsiMPzoXSSxEovPR6Lw3NBeIZDyhKWcg7iZ9BEIiRrNFJtJNjsq4I7KRPvlAn3a0R8/tM4x0mge60aEux2j3lHR4yyC5ABkuoKYLiP48YryCGm6QhltOwy3CfMcJPA4ATyPWhyH9gU24pOwJCxqAoUpZVym3uaS3oaizNr+pKq+lOq+xPLe2MreuIre6LKeiLJvDyTkyKTw2KhoZE4yOCvnjQt6EkMcTSUUSsVgsFklEMhndYxn0aotJB1iMIGABrRYIsKAQgCBWBLFiGGx3Ojy+QDgSS8STmVgilYhHov5QmAqGiEjMGY85ghEiFKT8QWcg4veHAt6A1+V1O51eh53CCRfhsJOki/IE3P6gNx6PxeZiqYV4eiGeWYimZoOJaX8k7Ykk3KGY2x91+6KUL+ryRty+qC+ciiZnMtPLC/ObCyub8+tbs+tbmaWtSGbZHZ0ivWHEEQJxnxH1mnCPHvab8YAZ9VvxAEj4YVsYsAdhMgbRIGMgGQXJMEiGIEcIdIRhMoY4o5g7jlNJnEravAnCm7B7k6SP3h1RobQnlPEEM77wjDcyG4jNheML8fTyVHplanY1MbWSmVvPzG8k59bnkyuJyEzKE0vgeBSCPRZLwKKPGLVpiz5i0aW1smmVckkj2zAqrhLA84j73Uzq3YXZdzKJdzKz31xY/LuN2b/fzHy+MvvJyvxHGzOfbEc+XCEfRSynobElVZeXXwcOlss6WGPtjL6WgqN1+W11eS1VuY3VuQ3VufXlOTUV2WXluUd40mG+ZHRCNDkpHJ8QT4hlfJ5CKZPKJDKxQilTqKRqjdxs1KKgmcBhuw0jcNSOIU47SjlQyo66SdTvtYfC/ngsnkmk5hLx2enUXCo+kw4tZ7zzs4H5hUAm48oknPG0JxrzRGORRNDvj4Qoj4+iSKeDcjhJyuXyeALhYDSezmSmZmdmlmanlmZmV6ZnFxOZ+UhyOpLMBGNpXzjhDcU94bg3FPcHEqFIOpWcnZlbWVxeW1lZX1nbWN7cm1vZikwve6JJhy8J2ENWwmvE/SbMq4c9RsxnQv2QPQI6IogjCDkjqDOGuqIIFYecEcQdRZxRxBmGyCjqjOHuGO5J2NwJwpO0eVIOb9LhTzq8KdKbcgZSrlDaHUp5w1OeyFQwNhtLLqWnN6bnNpaWd1c2T29vnt05eXn35MVTm6d21nb3Zrb2phdOpjJbyfCJdGo/7N0PxC6GowfhyN2w+07E+zjqe38u88XGxnfPnfvizJnP9858ceHsl5cu/fj6lZ/cvvaTaxf+18Hul/trn25lvrXseZw2n0VFy/pen6ABHalSd5byukoGmgt7Ggo6avNaqnPba3Iba3LrK3JqKnMqK3KP8IT9AtkQTzrCl4xOCseFUiEdyzKpUilWqqVajcJoUENWvd0OeVy2kM/hd+NeF+pzowEPFvAQQb89FnUlE75UPJhJRmen4vOp8PR0dH42srWa2NtM7Gz4VpZ8i7OBuWl3OhWcioSjCV8s6PD6XZTdZrfjdpvN7cECPlcoHk3PT80src7Nrc0tbszML2fmZxLpmcjUVDiZCEXjvmDc4496/FGvP+oLJELRucT0cmZxdW5xbX5pc3ZlZ355PT2rVDSNAAAgAElEQVS/EowvUtE06Y9AzhBk85sJrwkPmjG/xRYC7BGIjELuOOxKwK444kljVBylUogniXkTmC+BeFOYJ476UjZvkvCmCP+UI5h2hNL2UIYMTTsjs67IjCcy5Y1N+xIZbzzji0+HU4vxqdWpxc2l9d2NE6dPnbl4/vylixcvn71w8/Lpy+dOnT6/emJ/Yf3q+trV+eXbqwuvrm0+Xlh5urL49urKu1vbf7e5/sn25vdP7/3s0vmf3Lz2jzfO/fTahZ9dv/4vD+/+69O7v37y6q/uXf/59ZP/a3/5O9tT78+Sz3yyy+jwnPgoOV5r6ikVdjG4LYV9zQXtVXkN1Tn15dl1nJzasuzqclrsipwjk5J+nuQ4XzrIFw/zBSNC8ShfzJNIeEoZ36gWm3VyyKTGQCOFgwGnLexxBjwOvxv103TxkBcN+OGAHw6F0XDUloy5puLuZMSdSXpmp6jNRd/upv/Eamhzzbu65Fta9s5kvOm0N+glvHYb/eAStThtVhwHXU7M76EiYX86E5mdm59bWJ6bW0jPzMQzyVAiFoxGfeGQOxxyBcKUL0x5Q05vxB1IBGNTianZ9MzCzPzK7PzK9Pxyan4plpkPJKapaNIRiCLuCEQGAXsQtActtiDgCEP2MOaMYp4E7kvR/Lwpmy+Oe1K4O2n3Jgl/2ubPHKKdInxph2+K9KapQModnqIiM1Rk1hOZ9cZn/YnZQHw+HJ8JJ2eC6dno1GJ6emV2cX11bWd358yZMwcXDy5cOH/x3OVLF85eOL176vzc1qmFletzG5fXVh8t7Tw4uf3e7oWX5y59evryF1de/fLg5o+u3/rp3dd++ejZvzx++5ePX/vXZ89/+857v3//gz9+85u/e/vN37zx2r88ufzTmye+d2b6wyXyWUR3gRiZVx4lRivVPSx+W9FQU0FPTW4T3WFlV5VnV3Gyq9jZlaVZZazs8tKcIxP8zglh9wS/d1LQP8nv5/OHhIIRiXhUKZ8waPlGvQQ0y3BQ7bJb/U7ET2FeJ+ImrR6XNegGgh6rz2PxUGaP2+z3g9EQEouikQAUjkLRODw7TSwvkqur7o0V58aqZ2WRWsg4Y0Hc5bQQsB5G9RioxDANgupIwuR2Y8GQK5X0LsynluYz8zNTU1PxWDzoD7rdfrfL7STddJQ7KMpOuZ1ur9sf8ocT0cRUMj2bml5MTy8mZpaimcVgas4bn3aGkmQwilMR1BmAXPSeGyJD0GEI4564zZuy+VN235TDl3EEEkQwTXjSZCBNBjOO8Iw9OO0IzJChDBmZdgSnXaFpT3TWHZtzR+e9sXl/Yi6QmgsmFyLJ+VhmITa9EJtZSmVWZxbWFlfXN7ZObJ04dfLU6b3TZ/ZOnj6xsbe9uLaZXtiaTp1NzB/ML91dXXu0u/7uqUvfvHz1uzfu/vjB0588fPaLZ6//+s23fvfOe79/9/3fvXzvD++//9UnH//588/+/NnHX3303h/ee/6bp7d+ce/Uj68tfueE/5sZ011qbEff7Zms0XWXTrQV9dUXtFbn1nNyqkqzK0uzy0uzy5nZbGYWm5nFYmUf4Y61cSdbRybaxiY7xngdfH6fSHBcJh5QKbh67ZhWyzOb+Agotdt1LsJEEQYHrnXgKopQeR0ar1PjJjWkTU0SKo9LG/AaAwGD16Ny+VSUTxuJGFJJYHYWXJhDVuaJ2QyajljdpAZGpBYTz2wWWYx8ABBarUIUkRJ2nccPxSL2+Rn/8lxocSY0PeWNRUifB3VRsMMOEgRssyG4HcPpzzLsTvfXVTsRTaRjyel4ei6WWYikF/yJGXds2hVOkqG43RuxUQGcCuHuIO6O2XxJwpew+1OkP0UGp8jAlCsw6wqkneEpR2DKGZwmg9OuyCwZnqFCc1R4lorNuqI0V09s3pNY8CYW/fGlYGIxlJ6PpBfiU4up6eXU3FJ6fnlqdnV2YW1hdW11Y2d9e2t7e2dzb2tra3tjeW1jZnk1k9mZnT6Tmr22uHxnc+nZiY13z1788NqVL28//MmzN37+4uW/vvvuv7333h//7sM/ffzJnz796KtPP/7z53//1y8///N3P/vqk/d+/43Hv3l285cPzvzj7ZUfnEt/ump/HpSfsx4PCxtM/ZyJ1qKe+vymqtz6spxqdk4lK7uMmcVhZjMZWaySLCYr+8gQt2lopH5gtGFkrJk73sLjdwgEPXJRr0pyTKccVCmHDDqu1SrAUAmBKghYioBCDOTbYQGBiAhUiCNCGBAg4CSBCZ12mdMuxW0CFOdjmNDpFLk98lBAGQppY2G9z68iCRGAjOm1I1r1cbVqSKUa0KsHtdpBo4ELwgKnUxkKANMp2+IsuTLjmJuyxcKgx2kgbVoc0aKQAQKNEGKGMSuKQYTD7nS7PcFgMBqNJFKx9EwsMxeeWvAnpt2xaSqacoYTpD9CeMIEFSPcEboHDqap8JQzmKFCaSo87QpNuYOz7nCGootrxhWaJUMzVGTOFZlzhxdpqPFFb2LRl1jyJ5b8qeVAejmUWo1Mrcaml+IzK+nZ1em5temltfmVzcXVzeXV7bWt7a2tk7u72ydO7O6c2N7a2dpdX99ZXD+1tHywvn1tbfXu7s6TEztv7e++f+ng4+tXvnPz0Y+evfHT19/95cv3fvuND/7w6Ud//PvP/vTdj7/6zmd/+eLzv3z/i3//4rM/fvTub9+99y9PL/3s3umfXF/70YX5b++E3khaLuNj0/J2bKhS0lYy1FB4tDq/sSK3oYw2cQXNOJtVQgNmsXKODA7VDRyvOT5UOzRUP8JtHB9v408eFQk6JfxOpahHIerVKI4ZtCOgeRwBJkDrpNnANRuGrcZhs2nEqB/UawfVugGN5rheP2I1cs3mUb1pRKcfNhiGLfAoAI+ZUD5omQThMbNpWG0YVKh7pNI+tbRLJOgUC9okwg6JpFMl6TIZBwmcHwqoM2nL0gy0MYMtp4CEX+/CpTAsBcxi0CgzG+Qmk8JsUYGAHsUAm8NGetzecDCYSIanZiJTi6GpRX9yzh2ZdR0+JCG9MZwKY+4Q7o45AnFXZMobmaUi0+7otCsy7QpPO8MzVDzjisy4orOu2IwzOusML7iii674ije96JtaDaTXg5m18PRaeGYjPL0Rmd2ILWykFjamlnZmlnfm13aWNk+u7JzZ3Dm9tXf65Mkzp8+cO3f2zP6Z/f3TF0/u7V3aPn1hZ+f27vlH584+vnzm6YVL3zi4+uHV8x/fvvbJlWt/f+/RPzx69OM3X//nN9/57ft/98ePPvjTtz/46osP/vy9z/7jh9/+jx/9/Z+/88kfPvnGb99+8MuHZ39yY/1Hl1Z/dHHui233u/PWhx75KfNAjFtn7uWIm5l9jYXtlfmN5bk1tIlzyunnlFksRhajNPvIscGa/v6KYwO1x4aqRwbruGONE2Mtk2NNPG6LYLRFOHZUONkmE3YqFN1Kea9K3qNSdMulnQrJUYWsTSFtkwqPCgXtfH4rX9guFnaJJJ0iWZdQ2smXdPEVXTJFD1/fIZR2SCQtfEEbX9QiELSOS1r5k22Tk4280ebRifqx8WaxoEWjGIDRcS8lm0sYN2bglRnrYsoSdCoIkA+a+AatwKgV6DV8vVps1MvMVg0AW1Ab7PCSVCjgi8aD8aloaiY2Mx9MznqjGVd0igxGyUCc8Idwf9Thi5PhNBWb9sZnvNFZd2LWk1hwRzKe6JwrMesOz1HxaU982p2c9SQX/In5YGoxkFkIZdai6dXYzGpidiM5v5Oa256a25ha3pxZ2VlY2Vte31vfOrWxe3prZ3/3xNnTJ8+eObN/cP78pYP9KxcvXbq4f/X8/u29Cw8unH146fLL25devnrnw/u3P31478vH9z6/++C7d1777O5rP3z96c9fvv3rD977w8cf/fl7n/71h9//zx9/+Z8/+e5//+wH//OPP/ivH3/51Xc+/O03n/3y8cGPrqx9eXLue7uxz7ap96ctz4OKS9bheVk7MlgpOcriNhZ21xQ0VeTVcnIqmDRgZlFWSVFWaXHOkb6Bqr6+ir7eymP9VUMDldyBGu7xutGRutGBmpGBupFjdePDdYLResF4o2i8ScRr4U008sYbJycaRsfrRkdrh4Zq+gerjw1UDwzXDXMbh0abRiaauLzGUX7T6ETT2ETT8Fj90FDtwEjdwEjdMW49l1s3NNY4NNwwMFjLHaw9PlQ7PFI/OdosV/ZClhGvW7SYMG7PAqdmgOWwMWKXuoBRWD9mUXGNyhGdYkSrGtNr+WaLFER1iN1iozB30OuLRYOpdGRqPpJZ9KdWvMklb2yWitK9NBlOOgMxOo0jM/7Ugi8x603N+5Iz3mSGjE9TkTl3dM4dm6Oic57Ygicx507N+ZKL/tRaOLMend2Izm5G57eTSzvJ5RPJ5ZPTq6fmN04tbp1Z3j23vntua29/99TFndMHJ85eOLd/4fLFi1evXLpx/dqdm5fv3bh689LFu/vX75+7+Pzq1XduXf/gzr2P7z/83tPXvv/00Q+ePvr+vTvff/zgnx4//fk7b//q/W/88dNP/vzF5//x/S//68c/+J+f/+j/+cWP//c///i/f/zln7/9we/fePrz2xe+e3b28834d1ZDHyTBp2H1aw7BZWRkldcW4FbqOkvHWoq6qvMbOLk1rGwOI5tdnMUqymIVZ5Uwso8MDNb0H6/o7685frxqZKh6bLiWO1w/OljDPV4z0Fs92Fs91F/FHagZHawdH6obHakdGqRfefxY5bG+8t4eTlcnu6ODfbSz7GhPRXd/Vdexqt6B6p7B6v6R2r6h6r7Bms5jlUf7ytt6yjp6Kjr6KnqPVfUcq+zpr+nsquzvr+zurR4YqB8cbhRKe0D9CEWIZuKGzVlwZwZciVvTlDSE80jrJGKYsGrHzWquQTNu0PJMRjEAaXG71emxeaP+UCqdmJlJLy2lFlaSc6vhzGrsMK4DyWlfbNoXn/HGpz2xjD+1FEjN+9ILvtSMNzXjSUxTiTlPYt4bX/DFF3zJFX9y3p9cCKdXwpm12Ox6fG4zObeRnt/OLO/OrOzNrp5cWD+9vHlmeefc2s7+zu65vZPnT525eO7swf75Swfnr9y8cvXOjVtP7rz67N7tZ/duPbx19f7B5bsXDh6f3X/z+vlvXb3x0d1r375357uP7n159/737t3/8v6Tn754/Kt33/n1hy//+PlHf/3BJ//xo8//8x+/998//eH//sU//O9/+t5//ujzrz59+dtnt35+sPO9zfTHs/4Pkvg7EfVjt+S+Y+wA7luQtPhHKgxdzJH6ws7q/IbSnBpmdiUjq6w4i1WYxSjKYpRkHxkeqRserhkeqhsdrhvnNghHG8ZHmsaGGkaP1w321x7vre7rqR7orRk4VjNwvObYsZq+nqqurvLOzrKODnZbO6u5ldnUwmxqYTUd5bR1lrV1l7fTqug8VtV1rLproLqtp7Kls6z5KKf1aFlrZ3lHd0VHd0V3d2V7Z1VPd1V3X83XgEWSTkA/4iYl80nzzix8Yg7aTAMLQWWKEocIAYXyHSDPZp2ArJMgwAMhEYqrnRTgDTkiqWBqdiazvDi3uTa/sTm3tjG1tJ5eXI/PrUWnl0JTy/6pOV9i3pOc86VX/Zml4PSyb4rG7EkvUullb2bNk9rwTq36p9b96RV/aj0wterPrIZn1+ILW6mV3Zn1k/Obpxc2zy1sn188sb984tzqifMbJw92Th+cOnfp7MGVCwfXLl2+eePa7Qd37j19+Npbz5+88/TRG08fPnv15r1L52/unbq5u/lob/3p/s7b5za+df3MJ9fPfnLt0nevX/zenVs/fXz5Fy8f/fq91/706cu/fvvlX7/3zf/8hw//64cf/88PPvivH7z7l28//9P7939z/8zPzs79w2rks2ny72LW99ySZ9TEA+z4RaB7QVDvHi4zdjCGGws6yvNq2TnVzOwKRnZ58WGTVZxVwsw+MnYYufyxJsF4k3CyVTrRLBhr5Y82Tww1jw42DvbX9ffW9HdV9fdW9fZWdndVdhwta29jt7axm1tYjc2MukZGTWNJbROjroXV2Fba1M5uamO3HOW095R39ld19Fe2dlU0HeU0tXGa2zmt7Zy2zvKOrsqe7orOruq+3ppjx+sHBhtGuc0yaTcEcH0uyXzCsDUN7E4b1xLGOZ8y7hSFcJ4HnfSikz5MQBEil0PippR+vzEasSUznun56PzK3OLm6sru5uruzsr27sLm9szqdnJxPTazEplZDWUW/cnF4NR8MLMSml2OzK0EMot+GvOyb2YtMLvhnd71Tq35Umve1IovRWP2pVcjM6vJpa2ZjZNLu2fXTu6v7R2s7V1eO3WwfvriFp3JV09dvHbu0vWL125evf7qrdv3Hty7/+Lpk5evP//GO2++/+azt188en73+qv7Jy6urZ1byVybT93aSj9Ymnrr7Ow3zy18dLD3nYPd7985/08P9//5zVd/+9btP3345C8fP//LZy/++vHzv3776V8/ffzXTx/++7du/P7Ni7+6vfJPe9EfLnu/mCc+TVrfI0Wv2YZvW7pPKdsy3Gpbf6m6tWS4Pv8oO4/usGjAOeUl2ezDbRKDmX2Ex2sR81skvHYpr0XOb5fx2uT8DjmvTTh2lDfSMjbQNNhf09dV2dNR0dVe3t5W1tzMbmxiNTQy6xsYtXUlVbSKq+uLaxoYtY3M2mZmXROrsYXV0sFp7S5r7SprPlpe38ZuaGM3trFb2titXeUd3ZU9fVW9PTXHjjcMDjUNDbfwJtpV8uM4PuqzC9Mh+VxMMx+Wpn2yIC5wgmO4YQgzDZLW0QAuCLvkEZ86FTXPpoilOd/aenR1I7W+Ob+5u7q1t7V5amdr7+Ta7smlte300nJ8ZiE+u5icXYvMLaXm5+PzK8n51ejScmR2KTi/FJ1ZCS+sRhbW/HNbvsSyO77oSc7500vR9HIks5qaW59d3V7dPr11av/EuYt7Zy/vnbm8d/byyf0rZ/avXrh44/KV21ev37l16969Ow+fPnz04snjl288/+Cttz58+eYHbz5/6/HdRzcvXt5dPDmX3kj696KuCynqWtr/ZCX4cif+6dn1Lw62f3DnzM8eXf7Vixu/e+vanz549S+fvPbvHz746uX1P7138KdvHHz13uWvXl74t6fbv7ie+skW9Q8L2OezwLci2sco97y264S8NTNU7ejmaJqLJ+sKj5XntZbmVh3at6Ikp6yELsPM4iwWI+eIYLJNwG8T89tl/HbVRIdK3KEX9xjFPaqJbuFY+8RA82B/Xc/RytbWypbm8sbGsoY6dm0tq6aWWV3LrKplVNaWVFSXVFUXV9WWVNcyKusY1fW06ltK61o4DW2c+tby+qbS2payxray+tby1s6Ktu6a7mO1fYMNg4Otx0dahyc6BcJ+nWoYA8dchChMCWNOcdA+4Ya4iOG4RdGtkXfqVV2Q4bgLHg+4JNGwZjoJLs+4dtZDe3vxEycyJ3bndk+snjizuXdm88T+7vaZ3Y3ttYXVlamV5emV1czWxvTO1uKJ3dntvYWN7cz2ZmZjM7K6ntjaia1upFa2vbMb7uSyOzUXnJqLzS6nFtdSK1tz6zsrO2e2zl08eXDl3OXr+wfXzx3cuHD11sH1W1du3L1x+/7dO4/u33/2+NGzZ0+ev/nijZdvvPjmW29+8Mbb33r54v3nj57fuXZ7e3d7Jb7mt0174DmbfpXU7QeMD5L2l3Oej3cXf3hx8Sev7v3z3f1fPz31+9fP/Pt7F/763rWv3rv4uze2f/di/Q9PVv7wYvUPry//7tH0L8/7vrsEf5iSvxcce4wNnRU3Jsc43t5SSxuDX1nQV5nbzclpZufUM7LLGFnldOeczS7KZhZnsYuzSkpzjgj5beKJdgGvUyXoVIs7jZJeg7TfIuzV8LslI62jA43HumqOtpa3NJU21JfW1rCqqxnVlSVVlSUVlcUVlUUV5cUV5UVllbTKaRWWVRaWVRVVVzPq6pg1TezaBnZ1fWltQ2ltU2ljM7uxubzjaGVnX21ff9PxY40Dg22D3I5xfp9aPoQYuDaI58JGSWzcoR+AdMfMqk61sF0laNdLOkB1L2kd9uLioFudjlkWp4nNRe+JjcTeqZkz5xbOnl04c2711JnV0+d3T5/bO336xMnTuydOnTx56uypg7NnLuzvX7ty5uKVc1cunto/2Lu0v7l/cfvs2ZWTp5d2dpLr28mlpcTc4tzS0tLG9urW7vr23vbJ06fPXr5y+cb166/euH331u27t2/fvXvn3t17Dx48eO3Zo8cvXjx9/cXzt168ePn6i5dvPX/39Sfvvf7kG28+eufZvRcPrz24vHPuRGYjQc66kTSiiuKyNUS6bdfeSmBv7Lo/25/74bW1H105+7OHJ35z79S/vX7wh9evfvX+td+/fuk3j/Z/e2/rd09Wf/v0xG/ub/7iWuoHp+GPZjSvu+T3IO5ZRVd6pMbTzYFaWcLawp7y/HZWbgszp+EwlsuLsjlF2ezibHZxDqsom1WcxWLmHhkbaZgYbp4cbpSPtcknOtT8TtVEl4LXKR1pHx1qHeqt7+msaW8ur69n19YwK6uZVVWMykpGZUVJeXkxp7yIU17E/nqsKC6rKKK/kV5WxK4orqphVNaya+pLqxrKaupKqxvYDXWlNc1lLS1l7R013V21fccaB481DQy3coc7eLxelXzArBuGDaN26zhu5lo0A2ZFr07WIRO3yURtGvlRs7YLs/Q7cK7HyYv4ZKm4YXkG2V13nzkR2j8VP3sqef5s+sK5zIXzSxevbBxc3bl4de/ilXMHtw6u3b10896t2w9evfPk/oPHt2+/du/mvZuXXr118eaV05cvnrxwbuvcyfXTG3Mnt1ZPbG2cPrG3v7d34eTZg/1LN67fvHv7zmsPHjx59PDR44evPXn8+PGTp689e/7krTefv/3287fffuPdd15/961nL996/N6z19559vjthw8fPbz64MqF62fXN2aC80EiTZqnCeMUoli06VYJ7a0k8Wza+XIv+vHp9JcXZr5/bukHB0s/v77ybw93//ji3G/fOP1vz3b+7Y2Tf3zr3B9fXvnDGwf/+vjETw6Cny7oXnhFd2DuRW3P6mhdbKgy0MuB2lm8mqK+isJeTn4jJ7e2OKe8JKeyOJtTkltWnENjLslmsXOODA7WjfRXc4/X8QbqBdwm8UijYLhVMNDM628a7a0/3l3X017d1lTWUFtaW82qqmRWVTIqy0sqykrKy4o4nCIO+1CcQjaniH34vXQ2m55XVjKqq9n0t5zrONW17NpaTn0du76B09xcdrStpre7duB40/Bg6/hIx+RYl5h/TC0fgIxjhGXcDkzYrONW3YBJ2aeVdaqlHSrZUa2y3aTpgI09GHiMQIfdDl7YI5uK6VcW4O1124lt56lt9+nd4P7Z8LnzmYODpctXtq7c2L168/yN+wd3H157+OTVRy/uPn7ztafP7j16cf/hk7t3n966ff/6tVcv7V/fP33p5N65rc397RNnt04dbO9f2t6/uLd/6cyVa+dv37ly79HNh0/uvvb43qOHdx49fPW1124/fnznjef3337x8O03H779xoM3X7/z4vHNF/evP7p++cGN/ZsH2wenlk4sRWfjSIrURjBNBFImQNkUoFjAVGcdwPUYdCuKv5Yhn2eot+c8Hy55vrMd+OnpxK8erP364cnfPT39x7cu//v7D//y0et//tbj379x/Re31r7ccL4b0T4gRFcM3B1J+8pE89JEY3q4wd5bJWpgjlWX9JUXtrDya1h51Yzcr/9rmk030tlsZu6RY/1Vfd1l/d2Vgz0Vw8cquX2VI3014z3VI101A51V/R1V3W1V7c1lTfWlDTWs2ipmTSWjupJRVcEoLysu4/xfHcIuK+KUfc27qKqSUVPDrq9l19aX1dVx6uvLGhvLGpvL21orujprj/XWc4fauMMdwvEekaBfKR0waIbtIM9HiMI2UQDlOwAuahwEtf0mda9R3W3SdVp1XbCpBwX6MOi4Ax322sejAfHclGZtwbS5DG6voHubrtMn3WfOhC6cT124NH9wbfXajRO37+8/eHD1tae3njy/+fj1e689uf3o2Z1Hz248eHrt7oNLt+5cuHT9xLmLGyfPLZ3YXz13fvn8ldX9i8tn9lfP7q9euLh25crejVfP3bl/cPf+5VdvX7x98/ztm+fu3t5/eO/g8cOrzx5fefHo8tP/l623fm4r39Y+LckMsmxZZKaYKeTEkDgOczpxmJmZOtxxhx2mDtoxs8WbeYvJDnZ3uk+f7gP3vm/NrfkfptZ2zlszVVP1rV2SrPiHfPQseNbacu/Tnta7bU9vvWy5/PDGyVuXD185s/34gaY9W+fsbKrburRu+5LaHUvqdy6qObC09tTSGZc3zGlumvfj2vktqxc+27ygc8eykaOr+O+3vX9y7LfW638NPv5vpPN/ONv/7Sb/x4H8N9b3R8+jsXunqDMbBvYufrO+/v6yqjtzSx7OLr49q/jU1Jz1Rfq5WcnVqfEF6pjMpKhUZYRGCWvxSXEKVYJCpYwIKyvRFBYmFeYnlxQmlRUlVxalVBWlVBdrpxTqqkoMk4oMVcVpZQW6glxNfpY6J0Odk67OSldnpqrTDMkGvUqvU+l0Kp02UadL1OuVOq1Sm5Kg0cSnGVTpGZrsLG1uriEvW5ubq5uQry8oTq8oyZg0Ka9mSn5DXUlDXdm8xsqF86tXLq/Z0FS7b3Pj8b3zz++Zd2bHnIMb63atr97SNGntiso1y8rWLC9dt6Jk3crSjU2lm1eXbVtfsXvLpCP76i6cmtP8/aLrF5b9eHHVjeYNt29sunNr6717e+4/Pvzg6emfXl56297S2f20q/+n3v7nnf2v3vW/aO961t774F33o9aOB6/f3nn+4ocHj863PDp9+8H3D5+cffLs3L1HZ27dPXm75eNGXYAAACAASURBVGjL3RMPHl14+uLqy9fXX7y6+ezZ9cePf3zy6Mrzx5dfPP/x7atb7W9udbfd7nhz882Ti4+un7p9ac+l4+uPHVi5d+vCTevqVyyd/N38iuWNFasaSr9rrPquvnRVfem6+pKtsyfvbZy0t3HqsXlTry6tebhqRuuWBdbDaz3X9n9+ceX3vkf/svX8X6z9f5zE/xKQf6B9v3Y/Ctw9hZ/d1rN/+YvN9XdXTWlZWPl4XsXduWVnawt2V2YtzddWZyQUaeMyk6NTEyNTlBHJCXBjiypBoUyMCCsv1RYVqgomqIsLkkqLUiaWaCaW6msqDPWV6Q2TcmZNzmuckj9jck51RWZVSUZFYUZ5YWbZhMyy/MySvIzC3LT8nNScrNSc7NS8XENurj47S5uZrslMV+dlG4ryM8tKciaW5VeV5VSW5UyuzKutLppVW7p47sQVC6pXL5m+aunU1cunb2iavWvz/P2b5hzbveDs/iUXDiw8u2/ekY0z9m+eum39pM1NVRtXlm9cUbbpu5KN35Vs+q54S1PZrk1VB3ZWnzo448qZuc1nF147v/iHC8svXfjuyqUVl6+sam7eeOPmjlst++4/Pvn85eXXrbffvLv1pqPlZWvLi87bz940P31z+dmbH56/vPbo2cUHj79vuX+y5d7x23eP33tw4tGDU7fvHfnx+r4r13b+cH3PrZbDd+4fb7l/6vadEzduHLt27Wjz1UPXrh68dePovTunHt878+LJpedPLjy8e+LmD/sunl574uDindtmrVtTu3JpVeO84rl1ebNnFM6dmj23rmDBxJy5k/MXT85bVle6rrpo86xJ+xZOvryq4dHa2ratS6xH1rquHR97+sMvHS1/G3j7L3Tw34TpH0j/18FXoZfNbPPuocOrX21aeGdldfPSih9nlzfPLW1uLDkxs2hbZdayAt2kdGWxLj4tKdqgilIrI5MTIpRx4YnxEuCJE7WlxeqKInV5kbqyXDu1zFBdmT5rSvacaTmLakuWzChbPrNkSX35vNriGVMK6icVzJhSOHNKccOUovpJhVMriyZVFE6snDCpqnDqpOLJk4orK/PKi3NKi7InVhbWTi2eNaNywcyquTMr5taXLWio+m5+9bqmGQc3zji4c+nJrfP3bZ17cMu8Q1uWnNy68NCu+Sf3Ljy7c/GZ3fMObq7dt3bK7tVVO1aWb1xVuaWpYsuq0s3fFW/4rmRTU8n2teX7Nk48vLvm1KHGS8fmXTy56NKJBedPzj97fM6po3NPHJ9z+uzi8+dXX7y6ofnGvtsPjz5/cO7J4wtPn1386fmVp8/PPXl56fHjsw/un7l7+3jLrYN3b+y7cefwvVv779469rDlyP2WE3evH7p2ZdfFS1suNG+/+uOuC1d2X7i069z3W06d2nDyxJqTx9ecOb7h7KmN31/Ydq15//2WU/dunrzVfPjyuT3njq87snfhts2zmtbUrFxWNXd+yfy6gsbanDlTCuZOyZ81tbixOn9xfeHKhrI1DVWb55SfXFrbvGnWk20L3uxaZT69y3XruOvp5eCLy6HOu7/0PvnN+NPXwUcf3v0otBw2nl7zevvcW8umXpxXcX5W0ZnGgpOz8k83FBypyV5flbVkgmZirrJMH5eljU5LjtSoIjXK8KSEcLjRQR0RNm1yalWptqJMN6lEWzPJUFOZXj81c87knAV1+QtrS5c0lCyuL1vcWDq/tqShpmjWlMJ504vnTi+fPb1y1pTy+slltVPKaqdU1E2vnFk7cVbd5Pqpk6ZPKq+uKJ0+rayhbtLCedNXLqhpWlq9Yn7NmmXV21fM3L2t8eSOJWcOLT93aM3F40vOHl5x6uCy4/vmn9jfcGLvjMO7G/eumbpjbcXm74o2rChds6ywaVnxxmVFG5eXbFhauHF50baVpbvXVuzZVLVvx5Rj++rOHGw4dajx1MGG44dnHjowY++BmYcO1h8/Ovf7cysvNzf90LL91r2DT55//+z5hWevrr55ea313d22zuanby/ef3T89t1jN2/sv3Fr/40b22/f3H2vZe/dlr137+68/uOOH65uO//DxrMXNnx/aePZyxtOnFtz8OiyXfvn79g1f9v2hTu2Ldi/c/GJw00Xz6y/fH7rpfPbz53eePDwqr27lm3d1Li1qb5p7fSmJRPnLyyZNyO3YXr+/ClZs6ZNWFA5YWFt0YrqCU0NxZvry7fNqNw3f8qF1TUtq+e+2r/q3f7NlisHkPOHkAtHyOZjjvuXvY9vBx5dxZsPtB9ddWdd/anG8gO1RXumZu+sTt81OW3XpKztlelrJqYvzNVNzUou0ybkauIzVdH6pCitMipFGamOj0hShquTIsPqazKmTdRPnaifUqmdPkVfOyW9fnrGrJqs2fXZDbW5s2fkzZ2RP2dWXkNdXkN97uza3Pm1+QvriubUF82qLZpVUzyztmRGXcnMGSWNMyrmNFTNqa9qmFHRUFcye1bpgtkTly+pXr18yrqV1WuWT12zeurOtXUHdzWe3D336tlFzWdX/nh+4Y9HF1w8Mf/S4cbv99Ue3zX14PZJO9aUrF+Zt3Jx3pKFOUvmZS1akLVkQfaKxTlNi3PWLM/dsHLC1rVFOzeU7N1cfmD7xMO7qo/uqT2yt+bQ/prDB+uPH59z+sSCC5eWXrux8d6DXU+fn33z9lJvx52u3pb+/sdDQ0+swy9NQy+H+h68bbv++tn5J/eOPbp18MGd3Tdv7Gy5vv3OtR23rm/58fLGixdXnzm36uy5pu/PrTlzeuWR40t275+/ddvsjZtmrt9Yv3FD/bYtDXt2zj+6b+GJA8uP7Vl6aM+ivTvmbN88Z11T7erV1WuWw2h82bzKJQ2ljXUTZk/LmTkpp25S7txJuQuqcxZW5y+pKVxUU9g0q2TTnLJDC6rPLa+9s2XOiwPLOo6sfbX7u6f7m94eWNN7clP70TWPd827srp6T2NB09S0xWW6eYUpc/MT5xYkzs5LmpGvrslJnJypnKCNz1DHGFRRWlWkWhmRlBCRlBiuUiqSVeGJyRFhyxcUzm+csGhGwexZuQsbC5csLF65oPS7xWWrFlWtXFG1dkXVmlWT1qycvHbV5A0rJ25smrxtVc3Wprpta+s3rWtYt3pG0/Lpy5dOW7Fs2vLl079bNm3ZsmkrltWsWDF99fJpG9bUbltfv2NHw95tDXt2zjy4q+HkkQWXTyy9c3n186vrn9/Z8erWhmc3mp42r7p7ZUXLuXlXT9WdOzjt8J6qvZtKtqwvWL86f813eWtW5K1blb+5acKOdcV7N5ce2ll2fE/lyX2TT+2fevbQtHNHZ1w8NufSqflXTi+49sN3d2+se3h314snB9veXOhpvz4y8Nwy8hNm7cSxLgYf4KhhN2dx0WaBGkLNHSMDj/rf3ep4dbnj5blXT0+/eHD02cPDD2/ta7m5+8Y1EHHzD5ubr2y6fGnjuXNrj51Ysffg4t37F+zaN3ff3tkH9889cGDR8YOLTx5acnTvwoN75h/YOXfXltlb1tVtWTN9c9P0jU3TVy+dtGJe8fzZxY3TchqmZ9dNzJpRlTV7Skbj5KyZU7JmTs6cV529aFru2mn5W2YWH5pfcb6p5urauktNNadX1JxeNvXsisnHl0zcM7twzfSMeeUpdRMSp2QnVKbFlepjSvTRRbrYAl1sriY6Sx2lh5gcoYqXkm6cIiFeoYyHm8+UCQqVKiJs55bJ29dO3b6udtf6+kM7550+MO/04RXnjjadP7X20qm1V09vbD636YdzW66d23jj/NaWS7se/LDvwdW9j68dun/96M0r+69+v/XciQ2nj2w4dWTNySNNxw6vOnF0/ekja88eW33x+OqLp9ddPbf+2qV11y+uu9e86cntvW8fHup/cc745pK147Kt7eJI2/Hh18d7fjrY+Xjn65Y1j66vvHV50bXv5106VX/2eP2pQ7XH99efOlh37ujMK6dm3zi38PblRXevLH1wdeWDq6vvN699cGPj41s7nt3Z8/L+obafTve1/TDY22Lpf4IYW3FLN0UMcYRR5OxeEfe76JCH/xTwfAo4P/gFr0jy1ABt70GMr62DLy29T4a67g903+p6faP99dXWn5pfPbv48sn554/PPIKEffL27YPN1/Zcbd7T/OOe69d23vhxx7Ufd1y/uqP54vrzp5vOHF1+4tB3R/cuOrB77v5tDbu3zNq+vn7j6mlrl1UsXVA5d0bBnJn5s6fnzpyeM2tKVuO0zMbq9BlT0hompTVOSV80KX3Z9Kz1tbl75pbsXVCye2HRttmFG2bmNdVkLZ+aMbdCW12YWJ4dV5wWO8EQk6OJSk+OTFVFpiZFGlQRGmWEOj48OUEBN4PHKeKlIX9cHIz642Lg7kKlMjzszPHG5hPLL36/8t65bc/uHuh6dKzj9dWBt3cHe24b2+4aOx5YOx+Zuh9aOu5be5+RA29ZcytvfMub2zlrJzH01tL9eKD1bufLO90/3Wh/ca3jeXP7m5vdL653vb7a9ezyu5dXe19cGWj7YfD1D+ae62jfE9ryTDS1eaguP97mQdsclme87Sk/chcbuG7vvDTccbb/9dGul4fan+5++2zX64e7nt7b/fzO7tePdnc8P9Dz8njvq5P9r88Mv704/PZK35vmvtbrgx23RzrvWfqe2gff0NZeBhvkCAtPIDyF8iwqsrTHyQTdjg9B98eQ7+vo2Jf3o7+M+d+H3KNO2iOQTsrGYDbBbqTsg5S9CzP12gdbrX2t5t6Xxt6Xw31P+nof93Te73x3893ra22vbrS33uxov9bedrXt1YVXz888urvnRvPmq2eazp9cd/bYspNHFx/aO2f/jtlbN9ZtXDdt7bLJy+ZXzW0snj+rYN7M/Nkzc2dX58ypz5o/Pb1hWtqsKamzpqbOm5a2qCZ9VV3mllk5m+fkbmjMWtuQtbwufd4UQ0OFZmpRYnFOfG5aTJY+OkMbnaqO1KkiNIkRmsRwdQLYVYnSSYiTj98vKt0iDIBjY2RxcTIY+LecW/nmwbG2p4dH2q6hA/dE6zsfPTDqIN67kFEHNeq0jzrIMREZE/CPbvzngPBbyPU14P4acv866v7id7x3MiGW9POYj8P9LOpj0aBg84uIlxlxEINOvM9BDnjxAS9rDHEjY078kxv96MV+9RBfPPhnpyXEmUPCYIDu85BvXWirw/5csD9nzfA5YC2PSPMj+9ADZOAhOXifNj5hzc948yvB8ka0tQn2Ls7WzVl7BbTfgY24cJObwbwc6eUpD8+4GFqgSAdDChTrcYpeh/Oj3/vBH/j5fehTMPAl6P8Q8Iy5vV6B8/Ccg8adGCHgVhaz0ogJHxlEBruQoS50pAMzvUWMLy1Dz0b67vV3tvR33xvovTPQe7u3q/ndq/Ovnh65f3vLjavfXTy58OzRRccOzzl2cNbubTU7NlevWVu5sql08Zyixln5M6ZnN8zInFmdNWN62uyphln16Y1TDLOqU2dP08+bnra43rB8ZkZTffqmOVmbZmdsbEhfOzNz+Yz0edN09ZUpVQXKgqzY3LToDF1UekpUWnKkThWuU4WnKL/Rham+NFpQximU8fKEeKALdwbHyGJiZAmx8rDHt3YOvjhnGmoRjD85qL5Rp/VzgP7tg/OXj76vHz2/jga+jnl+Cbm+vvf//iX0189j//jl/Z+/fPjHrx//+euHP38J/e1z8PcPod8/BH97H/ztfehvH0b/9in0xyffbx/cX4POzz7nZxf92cP97BN+9jh+DnDwq8a4ry7ho4/8KOA+h2WMtrm5ES815GKGPfSwhx3ys0Y3Z/TSRg816CaGXcSgmxpyU8MeasTNmj2cxc/ZfDwKHykBDzmpURc/6hHHvM6Q2xFyOQMO0e3gBJYVWF5gHQ5R9IgOt9MTcnsCAXfI4wn43D6X1+PyuGnBwXMCiVKoFbcaMfMQNtJvGugYevd6oP1xX/vDge7HQz13+99de/f60stXp148P/L86aEnT/bdv7Pt1o01V84vOHm4/sDBaft2T924rmzLhvK1q0vWrClasCJn3rzsullps2amT5yuL6tSl5erKyZqK6u01ZO1U6p1ddXauimGWdN182caVsw2rFyYvXN2zq5FOVsXZq5ryFzekL6o3jB/uqa2Iqk8X5mfGZuVGpOhi0nTRhk0UfqUyFR1hF4ZoZYYq+IhPkPSTVAkKuXxCfK4WOlEy+JiZDFx8rC3d3cPdjTbBm4ylpcc1u1nbSEX9tkjfAhyv/jEn0PO30a9v773/u1j4O+fR//xy+g/fnn/j18+/fPXT//++ulfXz/89cuHv37+/NeXz39++vjHhw9///Tpj0/v//5x7OsHz5eA86OP++igx1zkmMAG3Oh7jh51kx8cTMiJBxnUy5i9hM2DD/lIsxMfcRNmJ2XyUnYvbQ2QuJdGAjQRoFEfbffSuJ8l/AwKr7B0iGdHBX5U5N+7HB+93k8+/0eP573XNepxj7rcfofo5gUnKzhYwUE73DzvYhxu3uFiHV7R6RNFn8vpFtwuh8NBcyzJERab1dxnHGwf6flpsOdpX1dL19sbHa9vvH155e1P3799/v1Pj0+03N1z7fqG5h+bLl9Zdfb7xUdOzThwoHrb9vKmNROWrMhZuixr3oL0uXNS6+oN1TW6KTUp5dOSCypUhSXK/NKEvIKEnPyECbnKkqKksmJVeXlyRalq0qTkusnq2dN1S+sNy+alN81N27owY9UMw6I67cIazdxpKY1VyTXlieUFCfkZsVmpUen6qFRtVKpauk1UuqYmR2hAyopkJZhWSUrYpFQmSCKOk76jI0YWEysPe/f4sLn9orWn2TZwjza/EoheHz0cdJlDTtsHN/PJw/4Scvw65vztg+tv731//+T/80vgz8+jf34Z++vn0T+/hP7+OfTHp9E/Po797ePo1/eBX8Z8v4Q8nwKOD14u5CQCLOJl7B7K6qRMLtIokhYXZXEziIuyuimbCzeLuNWBjjhwE48aBdwk2E0CbnFgVieFu2nUyxAemvCxpJ+l/Dzl50gfR/t4JihyQacQcokfvO5Pfs+ngPeDzzPmdY+6nUGX0+cQ3aLoZHknLzpYl4MTRVZwcJxICy7O4WIFt0NwCk6nIDpYliVR1Gw2DbUPt//U/7al9/WNvtfN3S8u9j4/2/b42It7+x7e2N5ydf2Vs0tPH5lz5NCMgwem7949ecOWktXr8pYuz5w3N7Vuhra2XjN1unpSdVJZpbKwLGFCSVxOYWx6TnRaZrQhOyotIzotPSo9IzYjO3ZCbtyEwriyoviysoSpE1X109QLajQrZunWNGrXN2pX1KQsmJo8a6pqRpVyWqmysji+OC82Nz06XR9l0ETqU+AW77TkiAwNnOzkiMykcL0qXKtSwF0qCZL5nCBXxsOoPz5WFhcri4mXh/W/OIf230L7b6LD9ynTc5HocBPdfmEkIJrGnOh7F/HZx3yB0Cr8GhS/jjp/f+/+/b3nt/fur2Our2POr2OOX0adX4KuLwHnp4Dw3sOFHIxfIDyA1uwiLC7c5MDMAjYsohYeN4moTSTNAm5zkjYXjoiE3YHaBczCIRYWNbFWK4eaOQQRCcxJ4G6adNOUj6X8HO3jqHG6Po7x81zAwYdcwnu384PX/cEP8h3zOEMuZ9Dp9IugYAfLi5zo4ESOFXiC5RhGoBiO5nmS4RmOZziO4XiCInEMMRkH+9p72x51vmrpfPVD18vmjmdn3z078frx3sctG2//sOrKmfknD9bs2zFx++byjRuLV62dsGxF1rIVaQsW6OvrNZOnJk2cnFhelVhclpBXGJs9ISYzNyo1M1JjiNCmRqj1ERp9hEYXrjVEalMj0zMiM7Oii/KiiwpiKsriJ09UNk5MWjg9ecl01dK6pIWTEhsrEmoqE6aWxFUWxBblxeRkRqXpIw2aCG1yeAqwDDckhaepwzNSwrOTgbEhKVyXpEhJVGiUsO+uktah4Z6GWBkwjpOH2TtviNYXouWZiLwQkTdeut2Dd/qZAT/bP8oPj/LG96L1gwP55ELheLDPPvKzj/rsJT568A8eXLoSYy581IEHRczHoh7a7qJsDtzsIoxO3OxCjQ7UIqImEbOJuEXEUCdhduKIi7K7ScxJoU4cc+B2AbXxiIWx2znUxiGYiOMOgnBRpIumvKwkXI7ysrTEmPbxrF+QGDvFkMs56gG6Y25nyAmAfSKEZSfDCwxg5hmewxiWpDmCpnGGxggSIymcogiaQQgSw1GLcbivq7fjScfbex1vm7tf/dD94vuOVyc7Xux59Wjjw1srm8/NOX5g0u7txZvXT1i1Km/hssz5Cw0LFunnzNZWT0uumKismJhQVq4sKIrPyYvJzIvOyIzSpUWodeEpunC1JjxJC2f8qVYfbkiNyMmMzMuNKpwQXVwcW10SP608oaY8rnZSfE1ZXHVJ7OSS2LKCmOKc6PzMqIzUSL0uQpsSDoCTwrWAM1yfHJ6uDs9UR2SP39IP7BVw00qiQiXJNzFOnhAri4+TALMjD0bJdyGqM8i0B+iOANPqw955iTde9LWfbPPjbT6y0493B6ieANUdYHoDXH+QHw5xw0F22M+O+DmTnzf56GE3NewkIdg6MaMTtzhQswMDui7U5MTMImZ2EBYnbnORdjdl81GIm0E8NOZmUCeNuCjUSdhF3C7gdh5FBRwVCdxJSYcm3QwpMYarlyO8AukTaZ/A+gTOL/IBBx90iSGXY9TlGnU5Ak7RK4oegXcxvIPhRTgsR7IsTrE4Q6MUheCoHcXtBIGRNEKyBEpgdmxkwNzfNtD1pLfjzlD7VVPHFUv3eVv3cVPr/u4XW5/fXt58uv7YvoodWwvXrsldtjR9/gJd41zdzBmaqdVJ5RXKiqqE8jJlQUlCfn5sVn50Vma0PgMUnKKLSNGGJ0tHrQ0HHWsUOoMiLS0iKysiJzsiJzeyID+6MDe6OC+6uCiqpCimtCC6dEL0hJyovMzI7NTIDENEqi5Cp4kw/J+TEpGqCc/URGTrInN1kZl6uJ9fqwYdqxOlXehYeUKMLDYGFAwh2mF+GOC6Q3RbgG33E2+8xAsReSJYHgimew7rE4flicP6XDA9E0wveNMzwfxatL11YO0utMuF9DiRHgfWI2C9rLWXsfRw9l7ONiggIyJqFjGTiJqdGMRnKdeanYTVRVjdpM3N2P0s5uFwSLEs5mZRL4v5gDTqJjEHgToIVCQwBzzGRBJz0LibwX0c4eNwD0d4eNLLkx6O9HCUl2d8Aut3cEEHF3KKQacYcAhegfXwnJtjnBzvYlieYUWCZgmKw0kSISgbYrMimMlOoCSNECxJcTjFYHbKMmI3dloHX9lNT/DhFtZ822G/xpkv4QMnR9p3tt7/7sb5GScPTNy7vWTD+qyVy/Rz5+kaZmhqpidPrEysKldWlCeWlCcUFscWTIjJyYnJzIkyZEYa0iBKawyAVqNTpOgUao1cr1cYDIr0NEVmpiI7JyIjMyI7IzInIzw3NyI3MyI3PSInLTwzNQJu9tXBSdXCydBFpOsiMrQRWbqIHH3khNSowrSootTo/NSonNSING1Eakq4WgUhOiFOBn1wtCwmWlIwPfzYjzx32586zbdF0xPH0E1m5BY5cJMauEb332CGWviRR8zQE2bgCTX4jB56zRlbedM73tTGWdo4Szdr6qKN78iRdnKkkzL20NZ+Fhng0GEeGeERo4CaHJjFgZlFHHGRNieFuQnUw1A+Dg9yNBRNNBPkKR/P+FjcRVMOCndQlEgQHI7zBM6TuEBgIkG6GNIHb6O9nHR4ysNRLpZyc5RHoH0i6xcEvygEnVzQxftEwSsIbpHzCAKUWgwv0pCAWYKiUBK3o5gNNm1wG0lhFE8wAkU5GMrJkG7aKuIjIvLaib7xkI991EMPfsuJXOIHj6JtW7ofLv3pasOtU1NO7ynevT5n1Yq0BfP1s2u00yYlV09Onjw5cWJlQkFhXG5hTE5BzIT86Kzc6KzcqPTsSF06SDlZq1DrFWqtQpsqT01X6DMUWdmK1DxFTnZ4Wm54ZkZ4ZnZ4TnZ4VkZ4ZpoiNVWh1Sm0WkWqTpGqVxj04am68HRDeIYhIs0QkaaLyE2NLMqIKkqPLM6ILs2ImpAekW2INGjCU5RQZCXEyuKipRyslIfZu26ywzfYwWtU902i/yYzdIsxtrAjd3nTPX7osWh+JhifcsYXzOBLZvgtbWplTe2sqZs1dTPmLsrUTRm7CWMXbuomLd20pY+y9LPWERYzAVrC6MAtLtLmoRAXjbgpxE3jXgbz8ISfZ4I8HRKYgEAGOSoAdRPpYggHiTsI3EHiPIlyOMoDXcxBY26WkBIw5eEIN0fAlcWdDC7SBIDhaK9Aex3jUuYDDs7nFLwi7xEEL885GNZJ0DxJ8ThOoDhutdktCGFBMMzGoqhAkAKOCTTpZHAoCGiLixx0ou1e8rWfexxg7nmJH13m89zgAUvnlu6nTS9vzbtzadqFwyWHtuRvXpk1b46+blrKtKqkSRWJ5aXxBUUxOXkxObnRWXlRuTlR6ZmR6RkROl24Whuu1iiSNXK1Rq7RKPSpirRMRVq2Ij1TkZEtz8pSZGcr8nIUeXmKggJFfp4iN0uRngp0DTqFQaswaBR67bej0yhSU8IzDeF5+ogJqRG5+oicVJB1hh6+Qyk5CfqlpAQopBPiwY4Os7Rfw3uvkT3X0J7rZPcNcugea3zMW5+L1he8+Y1gfMOa3nCmVs7UyZs7BWuXw9ojWnp5Sx9j7qNNvbSplzL105Z+xtrP2QY4+5CAmETU4iIsbtLupREfg/k53M/gPoBEeDnoeYIcLQGm/QIZ4CkfQ3k5wkUTTiksS6oFtCJJOCl43cNCqeVhCRdDuBnSzeBOGnNQOLyBJlws5eEYv8AFnXzQCVk54BCCIu8XeB/Pe1jewzAiSfEEwSAkaUMJG0JaURKxczgmiTc4PgAAIABJREFUECgc6fcIFCpSFhEfduG9LqrVRz8JEHd8+A2P7ZLbdITp3WV7u3Hg6ZLWOzOeXJ56/VjF8a0T1i5OnTdTUzsFAnVpefyEotjM/JisnKiMnKg0CNGRBgOk4ZSUcFCwRpGslWt0itQMRUaGIjVTDidLkQ5P5Vl5ipJCRXlpeFlheFFueHZ2eHo6MNZr5TqN4v99DNrwTF14FnzfSni6NlynCdenhEMhlqRISlaolAqVEm4tTEqUq1SKMHP7DbT7Bt55C+2+RXXfxQefMcOveFsbb2kXLB086LWdNXZy5l7B1uew9Tvtgw7bAG/tZy0DrHmANQ+ytiHePiRC6jU6MJMTt7hwq4eyeWnUx2FBHg8KRJAjAhzhY3EvRwZYMsBJhwfeAJ7GXTTqpDAniTpITIQ0jDlJ3EUTbobwMASUVyzpYXA3Q7hp6aNASUka8JMQ81k2KPIhhwCZWBRCDnHUIYQcfEDgfQLn5VgnTYsEyWEEi2C0HWHsCIOgHIZIgDGRxpwM4aBRgbSJhMmJ94tYqwt94kZvuJErTvtpp+WAOLyX7tuMtq00Pl/U/aDhWXPND0fK9q7LXLlI31ifMm1KYnlFXEFxTFZedEYWtEnajEidIUKrC0/WhCenKJJTFOoURYpWodUrDOmK1HRFappcny7Xp8m1qXK9QZ6aLS/MU5QVKkoLFQX5ivxcRXamIs2g0OvkOp1cwizX6RR6PVBP0ynSteEGrUKbolAnKZKT5MlJimSVXJUo3TUKdocsUSmDO/xt3fex3vt49wOk8yHR9Qzrf0kNtjHmTsbYyZu6OGMHY+ykjV2MuZe3Dgi2QdE+JNiGeOsgax3iLEO8DdKtiBqdUEyNl1FWNwmAPQziY9EAMMb8nHRYqJX8HOnnCT8UTYSHAWweGnNSiINEx68OAnFIVfQ4XY9E18eSXngzFNVuhnTRhIvCx+l6WcbPsYH/H8BCSATAfp7xsIyTJCCvYwiDIBxiYxGExWw8VOyok8FcDO5iMAeBOEmLEx8Q7a2i5TFvvSpYz4jmw4Jpj2jaLY5sYnrXku2r7G/ndT2acf981ZmdeVtXpS2eq6mrUVVUxBUURkMTnAF5V5MK7W+KNjxJrVAmy5OS5UlqeUoKKFivV+hSFTqDXKOXp2jlyTq5WivT6uUZafKcTHl2tjwzS56TIc9Kl6enyg16OTDWSpghHyvS9JCY07TwjRyaZHlKkjxJJUtWgWQTE2TKBFl8PLgc8fGyhAR5GApEX1KDr2ydL4iut1jfa6K/gxjpoIY66JFOeqiTGOkiTZ2UpZux9DHWAc46yNmGeNsQZxvh7CM8MsyjRiiYcaubsHoou4e2uSmri7S6KKuHtnkZu4+xe1nUx6F+lggAWsongIJ9HOVlKC+LexjMTaMuEgppSIQk4iBxJyMFZJp0s1BYwZtZ2sPQbpZ2c5SbpaS4zXg4xsuzPp7zi2LQIQSdQhC0K4YcIOiAwPs5LiDQXpZ207hIYAKOcCjCojbGDnMkFrMLuM0BxhnhpkkXiboIs4sYcRIdTutTwdos2L53mI86THucxm2ukU2OoQ1ifxPfswh93dB+bfKNQ0UH1qevXKyrq00qr0zIz49Oy47UpUVoDREgXE24SqNQqRUJiXKlSj6OOTlFrkuRp2jkyRp5coo8WS1PSpGrkmVqNVDUSiANWnmqVp6ml6frAbBWK9do5Fqd3KCTp+oU6QZ5Rqo8TQu/R6+W69SylGQZYE4E1SYoZVBIx0mYlfIwcqiNNr6jjW1o11u8rxXrfUcM9hAj7cRwNznUTQ71EcYeYqSHGumhLQOsZYCzDLLWYc46wtuNPGLiEZMAba6kXcrmoSXApNVF2ly0BRiDlO0+FvFxeIDD/Dzt40nQMRTGNPQ8LOahUSn82l006qJxN425WNQNARnCr1uaEfl42gcsaa/AQHfEMT4BeiQfL/h5AapohxAUgG4Qymk+JPJBgfMLrF9k/DzjZRgATKEigfAYyqM2BrWwdhOD2ATULlKIi8LdDOWmERdrd9FmD2X0Ye0e4omPuOOjznnwI170oB/b7bNt95jWOYdWct0rTM9mPLhUcXpP9poV+jmzkior4/LzojIzIvWpkcm68ES1IkktT0ySJ6rkEmCZUiWdRJkqSZagkiUkyJRKWVISPE1Sy5LVcr1GbkiR61NkBo3coJGn6uQ6vSxFI0tJkalTZNoUmUErT9PJ0wzyVD28AeJ2ikyXDKQNKXK1SpakkqkSZEnxMmU8jAtBwcRwF2/tJQZ6bL3tWF87MtCFDnTjQ534YCc61IWPdOPGXtLUB5WUtZ+xDjDWIcYywlqNnN3Mo2bxWyMEgD2U1QM1s9VFmp2E2Y1bPJTFQ1s9jNVL270M4mfRAIv6GMjNPoaEKM3gXgYFu4NC3TTmpjEPTXiZ8ddxD4u7obYC7fqh0mYCPBcYx8Zzfp4PwBECvARVEAMCiDgkQmT2C3yQ5wI8G+B5P8d4WBKcE5KA3hpFBQzhURtrN3OIRURtThx1g4gxNwuxxEMjAd48yo2Msl0f2NYP3P1R+mLQfjxk2Ruy7xqz7wxZt7mHN9Dti3vvT71ztOjg2syV81KmTE2YUBidnhWl00WotOEJifKEJHl8ojw2UR6fIItXyuOV8jglCCs2XhYXL4uNg2t8AmguKVGmTpIb1PKMFBCoQS/XSZFZrwWtJ6nlarVcqwGJGzTydK08Uy/P0oOIU1MBObxigAcGtSwxCX5bYqJMpZTFgYJN3ZSpB+/rtPZ32nu7rAPdyEAXPtiJD3ehIz2EqY+29NOWAcYywNgGWRvEZ84G8hXAzQC7SsTNDtzsJi0gVjhWL2WVnlo8NAD2AmDQcYBDAhzig4P6eNzPwRQZGicWhT6KQT2MZHqwmBeCNuaWLA4pB1NejvbzdIBnAgIXENigwEoPgHdQ5IMiFxDgGoTIDNeAyIUc3KgIPw2A4ikPjTso+CSJOOLAbBwAtnCoVcSsDtLuohCIz9LnzMsiIQEZFdBPTtvPrsHPYusY0xLALwWQ4z77Ab91T8C60zO8nWtfMfRg9tNLVRf2TNixyjCzVlVeFpOVFaXXRarU4QkqaXiXII9N+EY0LkEWIwkrNk4WGyuLjpXFSCOB+ARZYrwsSSXXquWpGkWqFIqhsJKORiPXgKwlTY8rWCfP0EN6TjfIMnTS0cuysgBzhlau1so1aplaJVMnyhKTQcHdtLmPGOy29XWivZ1Ifzcy0I0P95Aj3aSpl7IMSKodZCAyS9kXGqERETM6cKlmxozgTRImD2nxAlqbF1Rr8VJmL2Xx0nD8jNVH23ysxc/ag5w9wGIBDg1weIBHfSzuY1EvoLV7aMTDfDsQKim7Expo1EODlKG/4ig/T4OOoYFmgoCZC4oscBWYAEyZ6KDIhuBwQQcLgB3SY5EO8LSXwaEyJxGBgPEGi1g5xMQiFgGxCOCTW0XcJuI2BwkRxc8TIQH/6MR+dtt/dvV/ZH4KoVf9lmOe4X3e/q2+3o2OnnVU63emB/PbLk27cbj44Ib0pY3q6qq47PxofWpkkiZcmaiIS5DHxstjEuSxcbKYOJBstHSFp/8BHBsLr8fHgeDUyXJtCihVkyKVYykQtHWScNP08oxURWaqIlMvTzVIgA1yg05mSJGlamQGnSzDIEvTytO1Ml2KTJss0yTJNGpZkloehg51UiYAjPb1UANdxHAPNtxDGAcYM3S3rHWQsQ0xtkEor6AdgoJZxEzgORNmJ2FyEUY3YfSQFh9l9dMSSEmyPsbsYyx+xuZnbQHW5meRAGfzc0hQQKTGCQ9wRFDA/Czu58ZVi0iM7R4KzGonaXcQVpG0Oyk7xEwW87JSdcZTPsDMSFwBXugbQlZCzgSA97efjjr4Uec4b8Dv43AXhTsJRMDtHAw2zJCD7SbObmLtFhYxs4iFQy08YXNQqJclgxz+QcQ/O/EvDtNH+l0IbfGbz7kHD7r7trq71nMda4jWVaaHC9sv1rYcrzi+JWfDQu3Mqcri4tjMnKgUfURikiJBKQfGCfLYWAAc858rPI2Fv4ITHQNSjoWxD4g4WSVPSYYDbY9KliIlV70G7I6MVEVuhiIvQ5GdqkiXwnKaVqbXyDQSTq1aZlDL0jQygxaQa5NlWjXkbLVaHmYbbMNHeojBLrS/lx7upcx9lKmPMoNYISBbh1gJMGsf5OwjAnS60tiABIvKDWNds5e2+Gibn7FLIO1+xg5cGWuAswU5JABE0SCPBQU0KGAhBxoSsKCAB3kiKABdWPeB9gmFyTFtd1N2F2lzEDYHYXUQdgieUIJh3m/9FZRmAX4cLRdySnHYwYVENiAyQV4K3SIDjwV2VMIfdDBgmQFgwsWgDgIRpODM2E2MzczYjIzdSNuMlNXIWE2s3cTjFgeJeFkiyOIfBOKTSHwS7B/ZvvfkqxBy12c57zUddvfvFLo2U2/XGR8ubLtS33Ji4unt+duWGubVJU8tTyguiE1Pi1KnhCcBY0U8KFgOSVcCCak3DoYB43/5JlYaDMTFQumbFC9TJ8rVidDwJEtZWauW61LAzALrKj28ICM8Nz08O1UB2TdFYpkiiVUl0yaBlLUpMp2E9hvgZHmYubcVH4aYjPR3EqYe2tQP9oVlgLMNcuYBzjzIWftZ2wBvGxYkb1nEpAJqvDymrV7aKmnXFmBsQcbqh2OXVGsNskiIR0cFOGMCOipi8FjEQjwW5KE/hsOiAR4PcADYRyMeia6LsDlxi5OwOgmQspvEvDTuA60TAY4M8lRIYEIiO+pgR6VrSASEUsQGBxRiNZRjEJYDgnR4xs9THppwU5gTRwQMsi9rN7M2C2M1UtZh0jJCWkZo6whjMwmI1U0ifhYPCeSYQH0QqM8O7Itg+cL0f6Rb35MP39uuhkZOufr2Uq82me4v7ro64+7xSed3TNixKm3FXM3MaUnVZQlFeXEZhiidNkKdFJ6YHJ6QACs18fC1N/IE6cRLO1Pf5BsDbWtcLJS+qniI1SrlOGO5RtK0JkUBEyRDeE56RI4hPEuvSE9RGFKgKAO9JslTVJB0NSkydZIsWQUlt0Yl06fIEtXyMPPgO2ykA+nrxPs7cGMvbexnrH0wM7ANSI1vH2ft5+2DIjYs4iOQd/FxG9ICNTNj9TIWn3QCIFm7j7H6WHgQ5O0hAQmJ6HsRee8kx0R0VERHBSTowEZFLCBIjHkswKN+qX2Cuhrka4MGmrA5CasD/w9gGvEyqI/FADBPBTgqxNMhiMPjSZcKiXTIwQQFOsBTQYECqNL6BzTc4902rAxQbgZzkYiTRETCJmB2FjExFjMNaIco8zBpHqKtI5zd7CBtHhrxs0RQoN6L9AcH8dlF/Owmf3GiP4vDn+i2j/ijMeS6e+gs+W7nyNPlndcbn56ddvNIwYktOTvXGFYv1C+ZramZllJRnpCfF5OeHq3XRyYnw3JrUqJCqZSrVHJVvAx2a2JlMLWF1TjpKkXppHi5avxL6uLhyybVieBjaJPluiS5IUmRrglP1yhSk+Q6NXTA+hR5hvR4nCtYV0pgnJQE/VJyskylkoXZ+9opYy9p7kEGu4nhXmq4lzL20eZ+xtzLmPsYWy9r7+eRQREZFqXdGiduduIWN2H2kGYPZRmvpHy0xU9bAlBPWQKsJcBYQ5wlxNpCvH1UQMakijTE24M8NsqjIQ64SsJF/Czm51Efg3lpxE0iLtLqBMAwOXYQVidpg/EihXrpb9W1jyV8PBkQqaBAfzsiCbWVMC5i6XWeDoAxIlnfDCYNr8AThX6MJF00An4ZYYNAjZppu4m2GmmLmbKOMHaLgFqcOOZhSR9PBnl8VKDHHPRHJ/XJRf7sxH5xWD8LA5+pt59sD0ZHLjk7diPPVg3fnN/zY+2rS5Punqi8sLvg6JbsrU1pGxenL5ypmTtNNbUivqwwJtsQBbalJlynD09Rh2tSFElSfwxbVEp5QoJsfJ0qSSlPluKztJgBXbIqEdzHZJVcnSTXqIG0RgVHnSjXSg/0aoU+GX6UrJQlJsiSlbIkJZhZSSrAnJAsC0MGOwhjLznchQ50kYNdtKmHNsNh4PSy1j7W1s/ZBwV0WAT5mqRVDYsbamaLTyqSfVJkDjLWICRdW2j88LaQYIeYzNtDPMRq0DRnDwpYkEMBMIv6eXR809YnFc/j2ddF2FxScHYQYIe5wRpDvQzmY3A4MK4g/LwkZYH28+B6gqwl3gGBghANr1PwUQATG97vZQnpH0qWGYO5wSlDBMwKe0KIibWbIR/bzRwAtjoIWEDwkPCpCnB4UCTHHOQHB/nZiX1xIJ958xeq+xPycsx0y9t3im3djj9vsj5dOnR/TvvNup8uVF0/Vn75UMGxzQW7mjI2L0hd2aipr06sLIzLy43KTY/MyorISIvITA1P18PwX61WgIecqFADQgUodbzISpQnKuXfbCmwlGUqOAAbvkY2Ua5SwkmSSCcnyVOkjwX0WonSgSAP/0qZIAuzDbQTxl5ioMs+0IkPdhAmaQho7qbM0B8zFmDM2wcEZMiBjThxo5MwugiTm4QuyAflFXRBAdYW4uwhCeEoZx8F4dq+CVdAQvx4Bww9UpC3BznEz4Hp4efArPYxgNnLIjBVJOzfAJNWUDAxDhjxMpgXAGOwGsBisGEJXRPpZ0lYyQPA0lYeTwagxoYfeRnSx0iTDCCNA2wO97K4W+qUHISNx2FJiIcVMLA7WLt1HLCA26BrQm1OQorVDBpk0RCLjnH2D5ztE2f+zPZ9It68tz8Imn/w9B9zde/hujeRrU22FwsH7858e2P6yx8m3Txafn53wdn1OfuaMtfOSVkwLXFaRWxVYUzlhKjCzMjinMiirMicjIh0Q7heC7MguEoT31RduF6rSEmWj0tcmShPSJQpJeNCKUVgpeQ2K2GBUvLCwA6Tg3UF63ZAFOxoScRKyVQJM/e9w4a6kb4Oa38HMtCBDXfgQ12EsYswdRGmHsrcy1r6eHu/gAw60GEXPgJ9EWn0kCYfbZZ6IXMAku63aAyMefuYYB8T7WOAFgnCsftZqfKCJtgGqZoF81KyqVGf5HDBUxqR6I6nYauTsMAGiGR/eplxxtAxgxEmFVxwZUCaYHz+Z3rhh6dQkYFHBsKVHkifD6/kn7hIDHow3AYgUYuIwREwK49YJG/OwiHQPnF2k4hZnITNR9r9lN1P2UK0bYy1fhLMn4Whz0z3Z+r1J/LBR+Tae/vlkPWUd3iv2LOFbF1p/mnRyKPZb36sf/T95NsHSi/tnnBsdeauZbpVjckLq5WzJsZPLY6ZWBA9MT+6KDcqLzMiKw2+gT/TAMrOSgtPTw036GBGlJwMHmdiIsTwRMlk/gYvHuptZRxc4+L+U51JG1jwovRTMEFh0iBZlcbeVltfh6Wn1dz7ztr7Dul/hwy0Y0MdmLGLMPaQpl7G0svZQMQOdNCFD3tIo48y+WiTnzEHwLuAa4C1QmSW6AY5m6RgIB3k7QFWap8Ym5exBhib5HjYPIzNB6/YoLCi7T7gh3gom4uCBCzVWRYADCF63N8Gp9NL/+eAjvFxNftYsMOgRoNeGa5gh4EjJvliDOqhUBeFeGjUTaNu8JwRKM4Ju4hZBQxKOWjJcIuAmXnEzKMmzm5kbCOsDaw6Jw7WjZ9G/AwSYtEPPPrJYf8iWH/mTV+Fga+Ozt/Ftt8cL39lH34mr47avvca9/Od25nW1SNPl3Xfanx+btrjE+U/7i+9uD33yJr0vQt0qxqTFtYoa0riphXGlOVFF2ZH5mdE5KZF5KRF5KRHZKXC2oY0BIRWWCXRBcCSamECGP8NLSzUjS/GxoTBak40PI2PkWYMYEF/07FKKQ8b6X5lG2i397aOdL81db229L619L+zDbWjwx0wY5BSMmfpFe0DTnTQg4/4SWOQNodYs1RGWQOMxU+ZA5QlxFhHOWuQBYoB1h6USq0ADe5HgDb7oKEySz6XSfIyLR7a7qPB3XTTVlj2AAdb6o5wixO8TytsZBKgZkjDcKCJkt4JtDxQPaEQt2GfSzK0JX4wlYJ9TYAq4bQ7YDnXJhJ2WNElECcOVwdugy1PzCrCUyu8CDq2CKhRsJs5m5EdL7gI1E1hPobws3iQIz6I1Ccn+cWB/iKav3psv/tsf/qtf/mH/+7r/MP77lfx8c/49ffG477ePdzbNZb7y/quz+64XPvk7JS7e0uv7sw7vy7rwArduoaUeZNVNaXxk4tiy7KjC7Oi8jMj87MicjNAzRmG8FQD/EWcJJVcis8wqEhQSlE3Ea7xCeBgg3bjZTExYdExYdGxYTExYTGxYXFgnoTBjxKkHKySJSjlYaa+N9bBNqSn1dzzztLVau5rtQy02gbbUAjUPbS5l7H1C/ZBBzbkJow+xhzkrKO87b1ofy9CrgWiLNRWQUjDaIhDxpNxkLVLpJEAZw/8pzOGQM3YoHWm7V4WhOuHYSLiG7c4xhskuIJwYagM9zTYvYx9XJFSoP5PywTxVjJAgC7Mo9ywFQR+p5uyO0nJCyPtTskw+T82JOzZ41BFu0nMRdvdBOKlEA+JuKWqykkiLgKOGweDxU0hsLPAEkGODgn0mIv+5KZ+dtO/eKjfPMQffuqvEPvPUfpf76n/+kD+6735z+DAH/5XPwsPPpIXXAP7ufYd1idrhx4u6rxa++LyxHv7K5sPFH+/JnP7EsOaeu28muT6sviJJTGVE6KLc6JKMiMLMyOLcmDvLjMVRAyMk6CngkCtgooJ5oBS7P028ZWck9hooBsdHRYTHRYbGxYdI+GXInZCHBTnYSO9b7CRTmSw3dTTau17Y+t7Yx9oQwbb0ZEO0thNm3ok+fa7sCEPMeynTaOseYy3jgm2Ud4W4qwh1hJkvvVIAeiRrAHWGmQk3uBt2QMsAnmXsfvhQ4D4WZtfIgpcgTHwkwDbvNKgAsYVwBVMaan9hRvapLyLglMNr0P4BeRwxtGiTtIOB9pooOsiJLSwnmEFseJWB2YVUSvs7ULpBHHbDQcQftsrYqB2k/I65pfaNvj8QcFPjIrUmJP96OI/e9lffcxXL/PVS/8R4P/5Xvyvj8K/P3D//ZH5X5/J//0F/a9Q/5/un76yNz8ix/19e5i2DdbnC4buzGq7Uv3qRNXNA8WXt044ujzt4FJ90+yUZdOT6qvipxXHTMyPLsuJKsmJrMiNKsmNzM+ElUq9RpEyzjgRquUklVRUS6MnSK7jIh63xoArKDgmNuz/GJ9xcWHxsWExcbKw4d43yNA7a1+rqbvV0vPG2vvW3v8OGWrHhjspYxdj6uEtPQ6k340NeMmhAG0c5UyjvDkIbS6cIGsOMuYAYw7Q48nYAhU1qFmqq6HOQiEZc1A8hziouUDHHCoZXghgpsHd9DF23/h2gJSSfQz8v/uhnpLoSk+lKA2B1yuBAU7jqEjUSSBOCSoAJuxOHK4SWhuEaNTmwG0OzObEbR4SIryPQj005iFRHw1deIAlgjwZEsiQQAVYKsASflpy2TjJz3LQH1zcJ7fws4f/xcP96mV/83N/hMS/3jv//dH5r4/O//7k/K/P/H9/Yv/9wfJXoOd396OfyR9HTYcdPbvJt6ttzxYP3mvs+LH+p3OTWo5UXN2Rd3pdzoHv0rYu1q1uVM2bnlBfFTulNGZKUfTkouiqwqjSCVETsiMyUsN1WgWsA8A6DrTCUkoGEY+H6HGWsVKIBsAxshhJzXCNBk1HR0PQDhvqfm0baLP1t5l7Ws1db629rbaBNnToHTbcQRk7GXMPb+11SoA95JCfGg4yxgBj9NPGAG0CycKRAMMDa4Aedzm+FVyjAjIKTTAiAbaHYIiE+qUS2gd1FgCW5sSIn4VA7QXe0EGNA4YICWhhQOuGzAr6kxLzt2TspmAPxEUAYAcO6VYiDY9F3C6iVgGzC3BrjF3EgDqEX/h8oD4a81CgYx+N+Rk8wI47oNSoQAdZEgDDi2CYh0RyzEl/cHMf3fwnN/fFw/3iZb/6ub8Fxb+Pin+9F/8aE/45JvzrA/tf76l/j5r/Ger90/vyN7blg+20r3ev0LGRfrUafbTQ2DK368fat99PajlUcm170eWt2WfXpx9Yrtk+N2lZbcLcyfENFXF1FbHTS6Mnl0RX5EdNyIpITwvXaBVqaRisliYQELET5fFKKQHHwg2i0bGQg8cBw/QiOiwqCk5kTFhUdBjcfDbY+co20GoffGfpbbN0v7H2tdoGWtHhVnyknTZ2sZZuwSYBxge9xJCPGvKTwz5y2EsO+yjjN/eKNvtp8zfYANgybneAs8EDaWlEKDVIEKLtPhbSMCwCULAI4IGFHmnlYxwwJGYp/NIgNciR0nwJTC6ohsYtTGljBKLx/5eoxFiia4POB7VwiJVHrBxmFUG+dhekWymz0phXMsh8EkhYAgTrigzyREDawvcxaICVNgZFYtRJvXexEmP2i5f71ct99XG/B8U/gsLfR/m/B9k/g9Q/QtS/RvF/Bc3/DvX909f+u/DwE3YpMHzA1beNb91EPV2GPlgweKeh+9L0R6fKW/aXXj+Qd3179pm1qSeWajbPVa2oUS6YGt84Ka6+MmZ6aXRVflRhTkRWRrhep9CkKFLGjxr8LJVKLk2av82joqTCSsIsi4yVRUWHRUSGRUaFRUik4fbRvvafbAMA1dr3ztb3xtb/xj7Qig23EcMdjLmbs/aI9n4XOughhgAqOeyDByNeYsRLmfzjRofkU34zKaGKtgah7BqfJkHXKzXKUs0FUyabtAVgdlPglkjpFtYBpErq2wKXX1q29Y03RRJd9zf/0uKE6toqbffZoOqGhgfCr1QSS1Wx1PwIKDgYPALmFI9aBUS6Y1EC7KHg0+Onofb20yjIFCxuECv4pizil25YhcTBIkEeCwkEOFlOuMv5i4f/2SN89Yu/Bx2/hxx/hBx/HxX+HuL+CNF/BMi/gsRfIds/R0f+DPb+6nz+mbnmQ854jAfYrm3km1VNAZCeAAAB/0lEQVT25wuGHs/paJ754nLV9eOlV4/m/7An9/zm9CNN2l3Lk1fPVi2uS5g9Ja5+Usy00uiKCVH52REZaeEGPaxD6zT/T83m88swGMbxYbZmQxmJH5ktEURcdpmQuDgQjiISB4mDCzfZbQdO4sBFgmQXMb8XlllZ261VndnadVs7QoTU+Fvk+5akef+APnme9/t9vp+X1NjzX2CaaGmrg63MEYMa1XVQNgcpsNNpo5x1Htphix7uM7GT1DWm9N31EXsVZePRdOI0kzyTmJicusqx8TxQ4YQqJlQBZ1G80URGI9tKkhXeImNApE+yQnKWslwZ/4jcr1mugt7lyxKnyamiCCIAr4HhnQh8KbFFGcIKI9rKFWQonRJRQLBSIog+hSwvQXvBPlnvE6Gb/u5ay/bwcDtPHAPgBL72Ns9DZykg6zhVgBsu3ac1OYM5nBUMhAqIftG7WYsMxGYN2vCR13MZ40l4KUivqvyu5T4q+U89bxqKWVW/qur3s/LzXKgZuS9dMnXhW2drlUStfGmWjs3C7tvDdpUNK8m1x4tFITJ/czAd35s63xqJbIzuhIY3Q4PrK/7wUu/qQufyXMfSDD07QU+ONY0HXcEAFRhyDPQ1+n12r9fe47V39zR0dTZgtUkgPboNCJ+brnM1wxGBGGnB6XT/fRRxSk2t9b7+9l/al4kfaS7ojgAAAABJRU5ErkJggg==;" vertex="1" parent="1">
                    <mxGeometry x="700" y="380" width="160" height="80" as="geometry"/>
                </mxCell>
            </root>
        </mxGraphModel>
    </diagram>
</mxfile>